%TF.GenerationSoftware,KiCad,Pcbnew,10.0.3*%
%TF.CreationDate,2026-10-01T18:46:21+01:00*%
%TF.ProjectId,picobox,7069636f-626f-4782-9e6b-696361645f70,rev?*%
%TF.SameCoordinates,Original*%
%TF.FileFunction,Soldermask,Top*%
%TF.FilePolarity,Negative*%
%FSLAX46Y46*%
G04 Gerber Fmt 4.6, Leading zero omitted, Abs format (unit mm)*
G04 Created by KiCad (PCBNEW 10.0.3) date 2026-10-01 18:46:21*
%MOMM*%
%LPD*%
G01*
G04 APERTURE LIST*
%ADD10C,2.000000*%
%ADD11C,1.600000*%
%ADD12O,1.800000X1.800000*%
%ADD13O,1.500000X1.500000*%
%ADD14O,1.700000X1.700000*%
%ADD15R,1.700000X3.500000*%
%ADD16R,1.700000X1.700000*%
%ADD17R,3.500000X1.700000*%
%ADD18C,3.300000*%
%ADD19R,2.000000X2.000000*%
%ADD20O,3.500000X2.200000*%
%ADD21R,2.500000X1.500000*%
%ADD22O,2.500000X1.500000*%
%ADD23C,1.700000*%
G04 APERTURE END LIST*
D10*
%TO.C,DOWN1*%
X137425133Y-133470160D03*
X143925133Y-133470160D03*
X137425133Y-137970160D03*
X143925133Y-137970160D03*
%TD*%
D11*
%TO.C,C1*%
X200700000Y-65532000D03*
X205700000Y-65532000D03*
%TD*%
D10*
%TO.C,UP1*%
X137425133Y-113150160D03*
X143925133Y-113150160D03*
X137425133Y-117650160D03*
X143925133Y-117650160D03*
%TD*%
D12*
%TO.C,U1*%
X142624000Y-52001000D03*
D13*
X145654000Y-51701000D03*
X145654000Y-46851000D03*
D12*
X142624000Y-46551000D03*
D14*
X142494000Y-58166000D03*
D15*
X142494000Y-59066000D03*
D14*
X145034000Y-58166000D03*
D15*
X145034000Y-59066000D03*
D16*
X147574000Y-58166000D03*
D15*
X147574000Y-59066000D03*
D14*
X150114000Y-58166000D03*
D15*
X150114000Y-59066000D03*
D14*
X152654000Y-58166000D03*
D15*
X152654000Y-59066000D03*
D14*
X155194000Y-58166000D03*
D15*
X155194000Y-59066000D03*
D14*
X157734000Y-58166000D03*
D15*
X157734000Y-59066000D03*
D16*
X160274000Y-58166000D03*
D15*
X160274000Y-59066000D03*
D14*
X162814000Y-58166000D03*
D15*
X162814000Y-59066000D03*
D14*
X165354000Y-58166000D03*
D15*
X165354000Y-59066000D03*
D14*
X167894000Y-58166000D03*
D15*
X167894000Y-59066000D03*
D14*
X170434000Y-58166000D03*
D15*
X170434000Y-59066000D03*
D16*
X172974000Y-58166000D03*
D15*
X172974000Y-59066000D03*
D14*
X175514000Y-58166000D03*
D15*
X175514000Y-59066000D03*
D14*
X178054000Y-58166000D03*
D15*
X178054000Y-59066000D03*
D14*
X180594000Y-58166000D03*
D15*
X180594000Y-59066000D03*
D14*
X183134000Y-58166000D03*
D15*
X183134000Y-59066000D03*
D16*
X185674000Y-58166000D03*
D15*
X185674000Y-59066000D03*
D14*
X188214000Y-58166000D03*
D15*
X188214000Y-59066000D03*
D14*
X190754000Y-58166000D03*
D15*
X190754000Y-59066000D03*
D14*
X190754000Y-40386000D03*
D15*
X190754000Y-39486000D03*
D14*
X188214000Y-40386000D03*
D15*
X188214000Y-39486000D03*
D16*
X185674000Y-40386000D03*
D15*
X185674000Y-39486000D03*
D14*
X183134000Y-40386000D03*
D15*
X183134000Y-39486000D03*
D14*
X180594000Y-40386000D03*
D15*
X180594000Y-39486000D03*
D14*
X178054000Y-40386000D03*
D15*
X178054000Y-39486000D03*
D14*
X175514000Y-40386000D03*
D15*
X175514000Y-39486000D03*
D16*
X172974000Y-40386000D03*
D15*
X172974000Y-39486000D03*
D14*
X170434000Y-40386000D03*
D15*
X170434000Y-39486000D03*
D14*
X167894000Y-40386000D03*
D15*
X167894000Y-39486000D03*
D14*
X165354000Y-40386000D03*
D15*
X165354000Y-39486000D03*
D14*
X162814000Y-40386000D03*
D15*
X162814000Y-39486000D03*
D16*
X160274000Y-40386000D03*
D15*
X160274000Y-39486000D03*
D14*
X157734000Y-40386000D03*
D15*
X157734000Y-39486000D03*
D14*
X155194000Y-40386000D03*
D15*
X155194000Y-39486000D03*
D14*
X152654000Y-40386000D03*
D15*
X152654000Y-39486000D03*
D14*
X150114000Y-40386000D03*
D15*
X150114000Y-39486000D03*
D16*
X147574000Y-40386000D03*
D15*
X147574000Y-39486000D03*
D14*
X145034000Y-40386000D03*
D15*
X145034000Y-39486000D03*
D14*
X142494000Y-40386000D03*
D15*
X142494000Y-39486000D03*
D14*
X190524000Y-51816000D03*
D17*
X191424000Y-51816000D03*
D16*
X190524000Y-49276000D03*
D17*
X191424000Y-49276000D03*
D14*
X190524000Y-46736000D03*
D17*
X191424000Y-46736000D03*
%TD*%
D18*
%TO.C,BT1*%
X167881000Y-78990000D03*
X167881000Y-93980000D03*
D19*
X140716000Y-78990000D03*
D10*
X140716000Y-93980000D03*
%TD*%
%TO.C,B1*%
X198893133Y-129406160D03*
X205393133Y-129406160D03*
X198893133Y-133906160D03*
X205393133Y-133906160D03*
%TD*%
D20*
%TO.C,SW1*%
X128821500Y-80808000D03*
X128821500Y-72608000D03*
D21*
X128821500Y-78708000D03*
D22*
X128821500Y-76708000D03*
X128821500Y-74708000D03*
%TD*%
D10*
%TO.C,RIGHT1*%
X147891133Y-123092160D03*
X154391133Y-123092160D03*
X147891133Y-127592160D03*
X154391133Y-127592160D03*
%TD*%
%TO.C,LEFT1*%
X126757133Y-123310160D03*
X133257133Y-123310160D03*
X126757133Y-127810160D03*
X133257133Y-127810160D03*
%TD*%
%TO.C,A1*%
X198893133Y-115690160D03*
X205393133Y-115690160D03*
X198893133Y-120190160D03*
X205393133Y-120190160D03*
%TD*%
%TO.C,HOME1*%
X198934000Y-140208000D03*
X205434000Y-140208000D03*
X198934000Y-144708000D03*
X205434000Y-144708000D03*
%TD*%
D16*
%TO.C,J1*%
X171663133Y-111844160D03*
D23*
X174203133Y-111844160D03*
X176743133Y-111844160D03*
X179283133Y-111844160D03*
%TD*%
M02*
