%TF.GenerationSoftware,KiCad,Pcbnew,10.0.3*%
%TF.CreationDate,2026-10-01T18:46:21+01:00*%
%TF.ProjectId,picobox,7069636f-626f-4782-9e6b-696361645f70,rev?*%
%TF.SameCoordinates,Original*%
%TF.FileFunction,Copper,L1,Top*%
%TF.FilePolarity,Positive*%
%FSLAX46Y46*%
G04 Gerber Fmt 4.6, Leading zero omitted, Abs format (unit mm)*
G04 Created by KiCad (PCBNEW 10.0.3) date 2026-10-01 18:46:21*
%MOMM*%
%LPD*%
G01*
G04 APERTURE LIST*
%TA.AperFunction,ComponentPad*%
%ADD10C,2.000000*%
%TD*%
%TA.AperFunction,ComponentPad*%
%ADD11C,1.600000*%
%TD*%
%TA.AperFunction,ComponentPad*%
%ADD12O,1.700000X1.700000*%
%TD*%
%TA.AperFunction,SMDPad,CuDef*%
%ADD13R,1.700000X3.500000*%
%TD*%
%TA.AperFunction,ComponentPad*%
%ADD14R,1.700000X1.700000*%
%TD*%
%TA.AperFunction,SMDPad,CuDef*%
%ADD15R,3.500000X1.700000*%
%TD*%
%TA.AperFunction,ComponentPad*%
%ADD16R,2.000000X2.000000*%
%TD*%
%TA.AperFunction,ComponentPad*%
%ADD17O,3.500000X2.200000*%
%TD*%
%TA.AperFunction,ComponentPad*%
%ADD18R,2.500000X1.500000*%
%TD*%
%TA.AperFunction,ComponentPad*%
%ADD19O,2.500000X1.500000*%
%TD*%
%TA.AperFunction,ComponentPad*%
%ADD20C,1.700000*%
%TD*%
%TA.AperFunction,ViaPad*%
%ADD21C,0.600000*%
%TD*%
%TA.AperFunction,Conductor*%
%ADD22C,0.200000*%
%TD*%
G04 APERTURE END LIST*
D10*
%TO.P,DOWN1,1,1_1*%
%TO.N,Net-(U1-GPIO9)*%
X137425133Y-133470160D03*
X143925133Y-133470160D03*
%TO.P,DOWN1,2,2_2*%
%TO.N,GND*%
X137425133Y-137970160D03*
X143925133Y-137970160D03*
%TD*%
D11*
%TO.P,C1,1*%
%TO.N,Net-(J1-Pin_2)*%
X200700000Y-65532000D03*
%TO.P,C1,2*%
%TO.N,GND*%
X205700000Y-65532000D03*
%TD*%
D10*
%TO.P,UP1,1,1_1*%
%TO.N,Net-(U1-GPIO8)*%
X137425133Y-113150160D03*
X143925133Y-113150160D03*
%TO.P,UP1,2,2_2*%
%TO.N,GND*%
X137425133Y-117650160D03*
X143925133Y-117650160D03*
%TD*%
D12*
%TO.P,U1,1,GPIO0_1*%
%TO.N,unconnected-(U1-GPIO0-Pad1)_1*%
X142494000Y-58166000D03*
D13*
%TO.N,unconnected-(U1-GPIO0-Pad1)*%
X142494000Y-59066000D03*
D12*
%TO.P,U1,2,GPIO1_2*%
%TO.N,unconnected-(U1-GPIO1-Pad2)_1*%
X145034000Y-58166000D03*
D13*
%TO.N,unconnected-(U1-GPIO1-Pad2)*%
X145034000Y-59066000D03*
D14*
%TO.P,U1,3,GND_3*%
%TO.N,unconnected-(U1-GND-Pad3)*%
X147574000Y-58166000D03*
D13*
%TO.N,unconnected-(U1-GND-Pad3)_1*%
X147574000Y-59066000D03*
D12*
%TO.P,U1,4,GPIO2_4*%
%TO.N,unconnected-(U1-GPIO2-Pad4)_1*%
X150114000Y-58166000D03*
D13*
%TO.N,unconnected-(U1-GPIO2-Pad4)*%
X150114000Y-59066000D03*
D12*
%TO.P,U1,5,GPIO3_5*%
%TO.N,unconnected-(U1-GPIO3-Pad5)*%
X152654000Y-58166000D03*
D13*
%TO.N,unconnected-(U1-GPIO3-Pad5)_1*%
X152654000Y-59066000D03*
D12*
%TO.P,U1,6,GPIO4_6*%
%TO.N,Net-(J1-Pin_4)*%
X155194000Y-58166000D03*
D13*
X155194000Y-59066000D03*
D12*
%TO.P,U1,7,GPIO5_7*%
%TO.N,Net-(J1-Pin_3)*%
X157734000Y-58166000D03*
D13*
X157734000Y-59066000D03*
D14*
%TO.P,U1,8,GND_8*%
%TO.N,unconnected-(U1-GND-Pad8)_1*%
X160274000Y-58166000D03*
D13*
%TO.N,unconnected-(U1-GND-Pad8)*%
X160274000Y-59066000D03*
D12*
%TO.P,U1,9,GPIO6_9*%
%TO.N,Net-(U1-GPIO6)*%
X162814000Y-58166000D03*
D13*
X162814000Y-59066000D03*
D12*
%TO.P,U1,10,GPIO7_10*%
%TO.N,Net-(U1-GPIO7)*%
X165354000Y-58166000D03*
D13*
X165354000Y-59066000D03*
D12*
%TO.P,U1,11,GPIO8_11*%
%TO.N,Net-(U1-GPIO8)*%
X167894000Y-58166000D03*
D13*
X167894000Y-59066000D03*
D12*
%TO.P,U1,12,GPIO9_12*%
%TO.N,Net-(U1-GPIO9)*%
X170434000Y-58166000D03*
D13*
X170434000Y-59066000D03*
D14*
%TO.P,U1,13,GND_13*%
%TO.N,unconnected-(U1-GND-Pad13)_1*%
X172974000Y-58166000D03*
D13*
%TO.N,unconnected-(U1-GND-Pad13)*%
X172974000Y-59066000D03*
D12*
%TO.P,U1,14,GPIO10_14*%
%TO.N,Net-(U1-GPIO10)*%
X175514000Y-58166000D03*
D13*
X175514000Y-59066000D03*
D12*
%TO.P,U1,15,GPIO11_15*%
%TO.N,Net-(U1-GPIO11)*%
X178054000Y-58166000D03*
D13*
X178054000Y-59066000D03*
D12*
%TO.P,U1,16,GPIO12_16*%
%TO.N,Net-(U1-GPIO12)*%
X180594000Y-58166000D03*
D13*
X180594000Y-59066000D03*
D12*
%TO.P,U1,17,GPIO13_17*%
%TO.N,unconnected-(U1-GPIO13-Pad17)_1*%
X183134000Y-58166000D03*
D13*
%TO.N,unconnected-(U1-GPIO13-Pad17)*%
X183134000Y-59066000D03*
D14*
%TO.P,U1,18,GND_18*%
%TO.N,unconnected-(U1-GND-Pad18)*%
X185674000Y-58166000D03*
D13*
%TO.N,unconnected-(U1-GND-Pad18)_1*%
X185674000Y-59066000D03*
D12*
%TO.P,U1,19,GPIO14_19*%
%TO.N,unconnected-(U1-GPIO14-Pad19)*%
X188214000Y-58166000D03*
D13*
%TO.N,unconnected-(U1-GPIO14-Pad19)_1*%
X188214000Y-59066000D03*
D12*
%TO.P,U1,20,GPIO15_20*%
%TO.N,unconnected-(U1-GPIO15-Pad20)*%
X190754000Y-58166000D03*
D13*
%TO.N,unconnected-(U1-GPIO15-Pad20)_1*%
X190754000Y-59066000D03*
D12*
%TO.P,U1,21,GPIO16_21*%
%TO.N,unconnected-(U1-GPIO16-Pad21)_1*%
X190754000Y-40386000D03*
D13*
%TO.N,unconnected-(U1-GPIO16-Pad21)*%
X190754000Y-39486000D03*
D12*
%TO.P,U1,22,GPIO17_22*%
%TO.N,unconnected-(U1-GPIO17-Pad22)*%
X188214000Y-40386000D03*
D13*
%TO.N,unconnected-(U1-GPIO17-Pad22)_1*%
X188214000Y-39486000D03*
D14*
%TO.P,U1,23,GND_23*%
%TO.N,unconnected-(U1-GND-Pad23)_1*%
X185674000Y-40386000D03*
D13*
%TO.N,unconnected-(U1-GND-Pad23)*%
X185674000Y-39486000D03*
D12*
%TO.P,U1,24,GPIO18_24*%
%TO.N,unconnected-(U1-GPIO18-Pad24)*%
X183134000Y-40386000D03*
D13*
%TO.N,unconnected-(U1-GPIO18-Pad24)_1*%
X183134000Y-39486000D03*
D12*
%TO.P,U1,25,GPIO19_25*%
%TO.N,unconnected-(U1-GPIO19-Pad25)*%
X180594000Y-40386000D03*
D13*
%TO.N,unconnected-(U1-GPIO19-Pad25)_1*%
X180594000Y-39486000D03*
D12*
%TO.P,U1,26,GPIO20_26*%
%TO.N,unconnected-(U1-GPIO20-Pad26)_1*%
X178054000Y-40386000D03*
D13*
%TO.N,unconnected-(U1-GPIO20-Pad26)*%
X178054000Y-39486000D03*
D12*
%TO.P,U1,27,GPIO21_27*%
%TO.N,unconnected-(U1-GPIO21-Pad27)_1*%
X175514000Y-40386000D03*
D13*
%TO.N,unconnected-(U1-GPIO21-Pad27)*%
X175514000Y-39486000D03*
D14*
%TO.P,U1,28,GND_28*%
%TO.N,unconnected-(U1-GND-Pad28)_1*%
X172974000Y-40386000D03*
D13*
%TO.N,unconnected-(U1-GND-Pad28)*%
X172974000Y-39486000D03*
D12*
%TO.P,U1,29,GPIO22_29*%
%TO.N,unconnected-(U1-GPIO22-Pad29)*%
X170434000Y-40386000D03*
D13*
%TO.N,unconnected-(U1-GPIO22-Pad29)_1*%
X170434000Y-39486000D03*
D12*
%TO.P,U1,30,RUN_30*%
%TO.N,unconnected-(U1-RUN-Pad30)*%
X167894000Y-40386000D03*
D13*
%TO.N,unconnected-(U1-RUN-Pad30)_1*%
X167894000Y-39486000D03*
D12*
%TO.P,U1,31,GPIO26_ADC0_31*%
%TO.N,unconnected-(U1-GPIO26_ADC0-Pad31)*%
X165354000Y-40386000D03*
D13*
%TO.N,unconnected-(U1-GPIO26_ADC0-Pad31)_1*%
X165354000Y-39486000D03*
D12*
%TO.P,U1,32,GPIO27_ADC1_32*%
%TO.N,unconnected-(U1-GPIO27_ADC1-Pad32)_1*%
X162814000Y-40386000D03*
D13*
%TO.N,unconnected-(U1-GPIO27_ADC1-Pad32)*%
X162814000Y-39486000D03*
D14*
%TO.P,U1,33,AGND_33*%
%TO.N,unconnected-(U1-AGND-Pad33)*%
X160274000Y-40386000D03*
D13*
%TO.N,unconnected-(U1-AGND-Pad33)_1*%
X160274000Y-39486000D03*
D12*
%TO.P,U1,34,GPIO28_ADC2_34*%
%TO.N,unconnected-(U1-GPIO28_ADC2-Pad34)*%
X157734000Y-40386000D03*
D13*
%TO.N,unconnected-(U1-GPIO28_ADC2-Pad34)_1*%
X157734000Y-39486000D03*
D12*
%TO.P,U1,35,ADC_VREF_35*%
%TO.N,unconnected-(U1-ADC_VREF-Pad35)*%
X155194000Y-40386000D03*
D13*
%TO.N,unconnected-(U1-ADC_VREF-Pad35)_1*%
X155194000Y-39486000D03*
D12*
%TO.P,U1,36,3V3_36*%
%TO.N,Net-(J1-Pin_2)*%
X152654000Y-40386000D03*
D13*
X152654000Y-39486000D03*
D12*
%TO.P,U1,37,3V3_EN_37*%
%TO.N,unconnected-(U1-3V3_EN-Pad37)_1*%
X150114000Y-40386000D03*
D13*
%TO.N,unconnected-(U1-3V3_EN-Pad37)*%
X150114000Y-39486000D03*
D14*
%TO.P,U1,38,GND_38*%
%TO.N,unconnected-(U1-GND-Pad38)_1*%
X147574000Y-40386000D03*
D13*
%TO.N,unconnected-(U1-GND-Pad38)*%
X147574000Y-39486000D03*
D12*
%TO.P,U1,39,VSYS_39*%
%TO.N,Net-(SW1-B)*%
X145034000Y-40386000D03*
D13*
X145034000Y-39486000D03*
D12*
%TO.P,U1,40,VBUS_40*%
%TO.N,unconnected-(U1-VBUS-Pad40)_1*%
X142494000Y-40386000D03*
D13*
%TO.N,unconnected-(U1-VBUS-Pad40)*%
X142494000Y-39486000D03*
D12*
%TO.P,U1,41,SWCLK_41*%
%TO.N,unconnected-(U1-SWCLK-Pad41)*%
X190524000Y-51816000D03*
D15*
%TO.N,unconnected-(U1-SWCLK-Pad41)_1*%
X191424000Y-51816000D03*
D14*
%TO.P,U1,42,GND_42*%
%TO.N,unconnected-(U1-GND-Pad42)*%
X190524000Y-49276000D03*
D15*
%TO.N,unconnected-(U1-GND-Pad42)_1*%
X191424000Y-49276000D03*
D12*
%TO.P,U1,43,SWDIO_43*%
%TO.N,unconnected-(U1-SWDIO-Pad43)*%
X190524000Y-46736000D03*
D15*
%TO.N,unconnected-(U1-SWDIO-Pad43)_1*%
X191424000Y-46736000D03*
%TD*%
D16*
%TO.P,BT1,1,+_1*%
%TO.N,Net-(BT1-+)*%
X140716000Y-78990000D03*
D10*
%TO.P,BT1,2,-_2*%
%TO.N,GND*%
X140716000Y-93980000D03*
%TD*%
%TO.P,B1,1,1_1*%
%TO.N,Net-(U1-GPIO11)*%
X198893133Y-129406160D03*
X205393133Y-129406160D03*
%TO.P,B1,2,2_2*%
%TO.N,GND*%
X198893133Y-133906160D03*
X205393133Y-133906160D03*
%TD*%
D17*
%TO.P,SW1,*%
%TO.N,*%
X128821500Y-80808000D03*
X128821500Y-72608000D03*
D18*
%TO.P,SW1,1,A_1*%
%TO.N,Net-(BT1-+)*%
X128821500Y-78708000D03*
D19*
%TO.P,SW1,2,B_2*%
%TO.N,Net-(SW1-B)*%
X128821500Y-76708000D03*
%TO.P,SW1,3,C_3*%
%TO.N,unconnected-(SW1-C-Pad3)*%
X128821500Y-74708000D03*
%TD*%
D10*
%TO.P,RIGHT1,1,1_1*%
%TO.N,Net-(U1-GPIO7)*%
X147891133Y-123092160D03*
X154391133Y-123092160D03*
%TO.P,RIGHT1,2,2_2*%
%TO.N,GND*%
X147891133Y-127592160D03*
X154391133Y-127592160D03*
%TD*%
%TO.P,LEFT1,1,1_1*%
%TO.N,Net-(U1-GPIO6)*%
X126757133Y-123310160D03*
X133257133Y-123310160D03*
%TO.P,LEFT1,2,2_2*%
%TO.N,GND*%
X126757133Y-127810160D03*
X133257133Y-127810160D03*
%TD*%
%TO.P,A1,1,1_1*%
%TO.N,Net-(U1-GPIO10)*%
X198893133Y-115690160D03*
X205393133Y-115690160D03*
%TO.P,A1,2,2_2*%
%TO.N,GND*%
X198893133Y-120190160D03*
X205393133Y-120190160D03*
%TD*%
%TO.P,HOME1,1,1_1*%
%TO.N,Net-(U1-GPIO12)*%
X198934000Y-140208000D03*
X205434000Y-140208000D03*
%TO.P,HOME1,2,2_2*%
%TO.N,GND*%
X198934000Y-144708000D03*
X205434000Y-144708000D03*
%TD*%
D14*
%TO.P,J1,1,Pin_1_1*%
%TO.N,GND*%
X171663133Y-111844160D03*
D20*
%TO.P,J1,2,Pin_2_2*%
%TO.N,Net-(J1-Pin_2)*%
X174203133Y-111844160D03*
%TO.P,J1,3,Pin_3_3*%
%TO.N,Net-(J1-Pin_3)*%
X176743133Y-111844160D03*
%TO.P,J1,4,Pin_4_4*%
%TO.N,Net-(J1-Pin_4)*%
X179283133Y-111844160D03*
%TD*%
D21*
%TO.N,Net-(BT1-+)*%
X137160000Y-82804000D03*
X125984000Y-83820000D03*
%TO.N,Net-(U1-GPIO7)*%
X162052000Y-63408000D03*
X140716000Y-67148000D03*
X140208000Y-62900000D03*
X136744000Y-103124000D03*
X131988000Y-102616000D03*
X149952000Y-107280000D03*
X149352000Y-105064000D03*
X162052000Y-66040000D03*
%TO.N,Net-(U1-GPIO8)*%
X160020000Y-64008000D03*
X158343735Y-63347735D03*
X154712262Y-63596265D03*
X151384000Y-63500000D03*
X132588000Y-105156000D03*
X133857133Y-105664000D03*
%TO.N,Net-(U1-GPIO6)*%
X154112265Y-64196265D03*
X150797735Y-64253735D03*
%TO.N,Net-(U1-GPIO9)*%
X153416000Y-65024000D03*
X149860000Y-64932000D03*
%TO.N,Net-(U1-GPIO12)*%
X200100000Y-61468000D03*
X201300000Y-61468000D03*
%TO.N,Net-(U1-GPIO11)*%
X197612000Y-66040000D03*
X202184000Y-107696000D03*
X202184000Y-73152000D03*
X200700000Y-107696000D03*
%TO.N,Net-(U1-GPIO10)*%
X200100000Y-70104000D03*
X201300000Y-70104000D03*
%TO.N,Net-(J1-Pin_4)*%
X136744000Y-104648000D03*
X135128000Y-104140000D03*
X179832000Y-108712000D03*
X175260000Y-105664000D03*
%TO.N,Net-(J1-Pin_3)*%
X178308000Y-106172000D03*
X179832000Y-107188000D03*
%TD*%
%TO.N,Net-(U1-GPIO11)*%
D22*
X196596000Y-111800000D02*
X200700000Y-107696000D01*
X196596000Y-127109027D02*
X196596000Y-111800000D01*
X198893133Y-129406160D02*
X196596000Y-127109027D01*
%TO.N,Net-(BT1-+)*%
X137160000Y-82546000D02*
X140716000Y-78990000D01*
X137160000Y-82804000D02*
X137160000Y-82546000D01*
X125984000Y-79248000D02*
X125984000Y-83820000D01*
X126524000Y-78708000D02*
X125984000Y-79248000D01*
X128821500Y-78708000D02*
X126524000Y-78708000D01*
%TO.N,Net-(SW1-B)*%
X140752000Y-34544000D02*
X145034000Y-38826000D01*
X136652000Y-34544000D02*
X140752000Y-34544000D01*
X145034000Y-38826000D02*
X145034000Y-40386000D01*
X136652000Y-53340000D02*
X136652000Y-34544000D01*
X125984000Y-64008000D02*
X136652000Y-53340000D01*
X125984000Y-76708000D02*
X125984000Y-64008000D01*
X128821500Y-76708000D02*
X125984000Y-76708000D01*
%TO.N,Net-(U1-GPIO9)*%
X137425133Y-133470160D02*
X143925133Y-133470160D01*
%TO.N,Net-(U1-GPIO7)*%
X147891133Y-123092160D02*
X154391133Y-123092160D01*
%TO.N,Net-(U1-GPIO6)*%
X126757133Y-123310160D02*
X133257133Y-123310160D01*
%TO.N,Net-(U1-GPIO8)*%
X137425133Y-113150160D02*
X143925133Y-113150160D01*
%TO.N,Net-(U1-GPIO10)*%
X205393133Y-115690160D02*
X198893133Y-115690160D01*
%TO.N,Net-(U1-GPIO12)*%
X205434000Y-140208000D02*
X198934000Y-140208000D01*
%TO.N,Net-(U1-GPIO11)*%
X205393133Y-129406160D02*
X198893133Y-129406160D01*
%TO.N,Net-(U1-GPIO7)*%
X165354000Y-60106000D02*
X165354000Y-58166000D01*
X151800000Y-67148000D02*
X152908000Y-66040000D01*
X162052000Y-63408000D02*
X165354000Y-60106000D01*
X138776000Y-62900000D02*
X140208000Y-62900000D01*
X138684000Y-62992000D02*
X138776000Y-62900000D01*
X137887575Y-62992000D02*
X138684000Y-62992000D01*
X131988000Y-68891575D02*
X137887575Y-62992000D01*
X131988000Y-102616000D02*
X131988000Y-68891575D01*
X152908000Y-66040000D02*
X162052000Y-66040000D01*
X140716000Y-67148000D02*
X151800000Y-67148000D01*
X136744000Y-103216000D02*
X136744000Y-103124000D01*
X137668000Y-104140000D02*
X136744000Y-103216000D01*
X148428000Y-104140000D02*
X137668000Y-104140000D01*
X149352000Y-105064000D02*
X148428000Y-104140000D01*
X149952000Y-118653027D02*
X149952000Y-107280000D01*
X154391133Y-123092160D02*
X149952000Y-118653027D01*
%TO.N,Net-(U1-GPIO8)*%
X163612000Y-64008000D02*
X167894000Y-59726000D01*
X160020000Y-64008000D02*
X163612000Y-64008000D01*
X167894000Y-59726000D02*
X167894000Y-58166000D01*
X158095205Y-63596265D02*
X158343735Y-63347735D01*
X154712262Y-63596265D02*
X158095205Y-63596265D01*
X137945260Y-63500000D02*
X151384000Y-63500000D01*
X132588000Y-68857260D02*
X137945260Y-63500000D01*
X132588000Y-105156000D02*
X132588000Y-68857260D01*
X133857133Y-105864000D02*
X133857133Y-105664000D01*
X137721133Y-109728000D02*
X133857133Y-105864000D01*
X142748000Y-111973027D02*
X142748000Y-109728000D01*
X142748000Y-109728000D02*
X137721133Y-109728000D01*
X143925133Y-113150160D02*
X142748000Y-111973027D01*
%TO.N,Net-(U1-GPIO6)*%
X162814000Y-59726000D02*
X162814000Y-58166000D01*
X158343735Y-64196265D02*
X162814000Y-59726000D01*
X154112265Y-64196265D02*
X158343735Y-64196265D01*
X137757210Y-64253735D02*
X150797735Y-64253735D01*
X133257133Y-68753812D02*
X137757210Y-64253735D01*
X133257133Y-123310160D02*
X133257133Y-68753812D01*
%TO.N,Net-(U1-GPIO9)*%
X170434000Y-59726000D02*
X170434000Y-58166000D01*
X165136000Y-65024000D02*
X170434000Y-59726000D01*
X153416000Y-65024000D02*
X165136000Y-65024000D01*
X137644630Y-64932000D02*
X149860000Y-64932000D01*
X134112000Y-68464630D02*
X137644630Y-64932000D01*
X134112000Y-103972529D02*
X134112000Y-68464630D01*
X137327471Y-107188000D02*
X134112000Y-103972529D01*
X149352000Y-107188000D02*
X137327471Y-107188000D01*
X149352000Y-117856000D02*
X149352000Y-107188000D01*
X147828000Y-119380000D02*
X149352000Y-117856000D01*
X143925133Y-121758867D02*
X146304000Y-119380000D01*
X143925133Y-133470160D02*
X143925133Y-121758867D01*
X146304000Y-119380000D02*
X147828000Y-119380000D01*
%TO.N,Net-(U1-GPIO12)*%
X201474000Y-137668000D02*
X198934000Y-140208000D01*
X207772000Y-137668000D02*
X201474000Y-137668000D01*
X180594000Y-61214000D02*
X180594000Y-58166000D01*
X184912000Y-65532000D02*
X180594000Y-61214000D01*
X195072000Y-65532000D02*
X184912000Y-65532000D01*
X199136000Y-61468000D02*
X195072000Y-65532000D01*
X200100000Y-61468000D02*
X199136000Y-61468000D01*
X207264000Y-61468000D02*
X201300000Y-61468000D01*
X207772000Y-137668000D02*
X208280000Y-137160000D01*
X208280000Y-137160000D02*
X208280000Y-62484000D01*
X208280000Y-62484000D02*
X207264000Y-61468000D01*
%TO.N,Net-(U1-GPIO11)*%
X178054000Y-59726000D02*
X178054000Y-58166000D01*
X197612000Y-66040000D02*
X184368000Y-66040000D01*
X184368000Y-66040000D02*
X178054000Y-59726000D01*
X202184000Y-107696000D02*
X202184000Y-73152000D01*
%TO.N,Net-(U1-GPIO10)*%
X175514000Y-66294000D02*
X175514000Y-58166000D01*
X175768000Y-66548000D02*
X175514000Y-66294000D01*
X196088000Y-66548000D02*
X175768000Y-66548000D01*
X199644000Y-70104000D02*
X196088000Y-66548000D01*
X200100000Y-70104000D02*
X199644000Y-70104000D01*
X201300000Y-113283293D02*
X201300000Y-70104000D01*
X198893133Y-115690160D02*
X201300000Y-113283293D01*
%TO.N,Net-(J1-Pin_4)*%
X155194000Y-60706000D02*
X155194000Y-58166000D01*
X150368000Y-65532000D02*
X155194000Y-60706000D01*
X137610315Y-65532000D02*
X150368000Y-65532000D01*
X135128000Y-68014315D02*
X137610315Y-65532000D01*
X135128000Y-104140000D02*
X135128000Y-68014315D01*
X137760000Y-105664000D02*
X136744000Y-104648000D01*
X175260000Y-105664000D02*
X137760000Y-105664000D01*
X179283133Y-109260867D02*
X179832000Y-108712000D01*
X179283133Y-111844160D02*
X179283133Y-109260867D01*
%TO.N,Net-(J1-Pin_3)*%
X157734000Y-59726000D02*
X157734000Y-58166000D01*
X150912000Y-66548000D02*
X157734000Y-59726000D01*
X137160000Y-66548000D02*
X150912000Y-66548000D01*
X136144000Y-67564000D02*
X137160000Y-66548000D01*
X136144000Y-105156000D02*
X136144000Y-67564000D01*
X137668000Y-106680000D02*
X136144000Y-105156000D01*
X177800000Y-106680000D02*
X137668000Y-106680000D01*
X178308000Y-106172000D02*
X177800000Y-106680000D01*
X178816000Y-108204000D02*
X179832000Y-107188000D01*
X178816000Y-109771293D02*
X178816000Y-108204000D01*
X176743133Y-111844160D02*
X178816000Y-109771293D01*
%TO.N,Net-(J1-Pin_2)*%
X200700000Y-103592000D02*
X200700000Y-65532000D01*
X181399293Y-104648000D02*
X199644000Y-104648000D01*
X174203133Y-111844160D02*
X181399293Y-104648000D01*
X199644000Y-104648000D02*
X200700000Y-103592000D01*
X153924000Y-33528000D02*
X153924000Y-39116000D01*
X200152000Y-33528000D02*
X153924000Y-33528000D01*
X200700000Y-34076000D02*
X200152000Y-33528000D01*
X153924000Y-39116000D02*
X152654000Y-40386000D01*
X200700000Y-65532000D02*
X200700000Y-34076000D01*
%TD*%
M02*
