%TF.GenerationSoftware,KiCad,Pcbnew,10.0.3*%
%TF.CreationDate,2026-10-01T18:46:21+01:00*%
%TF.ProjectId,picobox,7069636f-626f-4782-9e6b-696361645f70,rev?*%
%TF.SameCoordinates,Original*%
%TF.FileFunction,Copper,L2,Bot*%
%TF.FilePolarity,Positive*%
%FSLAX46Y46*%
G04 Gerber Fmt 4.6, Leading zero omitted, Abs format (unit mm)*
G04 Created by KiCad (PCBNEW 10.0.3) date 2026-10-01 18:46:21*
%MOMM*%
%LPD*%
G01*
G04 APERTURE LIST*
%TA.AperFunction,ComponentPad*%
%ADD10C,2.000000*%
%TD*%
%TA.AperFunction,ComponentPad*%
%ADD11C,1.600000*%
%TD*%
%TA.AperFunction,ComponentPad*%
%ADD12O,1.700000X1.700000*%
%TD*%
%TA.AperFunction,ComponentPad*%
%ADD13R,1.700000X1.700000*%
%TD*%
%TA.AperFunction,ComponentPad*%
%ADD14R,2.000000X2.000000*%
%TD*%
%TA.AperFunction,ComponentPad*%
%ADD15O,3.500000X2.200000*%
%TD*%
%TA.AperFunction,ComponentPad*%
%ADD16R,2.500000X1.500000*%
%TD*%
%TA.AperFunction,ComponentPad*%
%ADD17O,2.500000X1.500000*%
%TD*%
%TA.AperFunction,ComponentPad*%
%ADD18C,1.700000*%
%TD*%
%TA.AperFunction,ViaPad*%
%ADD19C,0.600000*%
%TD*%
%TA.AperFunction,Conductor*%
%ADD20C,0.200000*%
%TD*%
G04 APERTURE END LIST*
D10*
%TO.P,DOWN1,1,1_1*%
%TO.N,Net-(U1-GPIO9)*%
X137425133Y-133470160D03*
X143925133Y-133470160D03*
%TO.P,DOWN1,2,2_2*%
%TO.N,GND*%
X137425133Y-137970160D03*
X143925133Y-137970160D03*
%TD*%
D11*
%TO.P,C1,1*%
%TO.N,Net-(J1-Pin_2)*%
X200700000Y-65532000D03*
%TO.P,C1,2*%
%TO.N,GND*%
X205700000Y-65532000D03*
%TD*%
D10*
%TO.P,UP1,1,1_1*%
%TO.N,Net-(U1-GPIO8)*%
X137425133Y-113150160D03*
X143925133Y-113150160D03*
%TO.P,UP1,2,2_2*%
%TO.N,GND*%
X137425133Y-117650160D03*
X143925133Y-117650160D03*
%TD*%
D12*
%TO.P,U1,1,GPIO0_1*%
%TO.N,unconnected-(U1-GPIO0-Pad1)_1*%
X142494000Y-58166000D03*
%TO.P,U1,2,GPIO1_2*%
%TO.N,unconnected-(U1-GPIO1-Pad2)_1*%
X145034000Y-58166000D03*
D13*
%TO.P,U1,3,GND_3*%
%TO.N,unconnected-(U1-GND-Pad3)*%
X147574000Y-58166000D03*
D12*
%TO.P,U1,4,GPIO2_4*%
%TO.N,unconnected-(U1-GPIO2-Pad4)_1*%
X150114000Y-58166000D03*
%TO.P,U1,5,GPIO3_5*%
%TO.N,unconnected-(U1-GPIO3-Pad5)*%
X152654000Y-58166000D03*
%TO.P,U1,6,GPIO4_6*%
%TO.N,Net-(J1-Pin_4)*%
X155194000Y-58166000D03*
%TO.P,U1,7,GPIO5_7*%
%TO.N,Net-(J1-Pin_3)*%
X157734000Y-58166000D03*
D13*
%TO.P,U1,8,GND_8*%
%TO.N,unconnected-(U1-GND-Pad8)_1*%
X160274000Y-58166000D03*
D12*
%TO.P,U1,9,GPIO6_9*%
%TO.N,Net-(U1-GPIO6)*%
X162814000Y-58166000D03*
%TO.P,U1,10,GPIO7_10*%
%TO.N,Net-(U1-GPIO7)*%
X165354000Y-58166000D03*
%TO.P,U1,11,GPIO8_11*%
%TO.N,Net-(U1-GPIO8)*%
X167894000Y-58166000D03*
%TO.P,U1,12,GPIO9_12*%
%TO.N,Net-(U1-GPIO9)*%
X170434000Y-58166000D03*
D13*
%TO.P,U1,13,GND_13*%
%TO.N,unconnected-(U1-GND-Pad13)_1*%
X172974000Y-58166000D03*
D12*
%TO.P,U1,14,GPIO10_14*%
%TO.N,Net-(U1-GPIO10)*%
X175514000Y-58166000D03*
%TO.P,U1,15,GPIO11_15*%
%TO.N,Net-(U1-GPIO11)*%
X178054000Y-58166000D03*
%TO.P,U1,16,GPIO12_16*%
%TO.N,Net-(U1-GPIO12)*%
X180594000Y-58166000D03*
%TO.P,U1,17,GPIO13_17*%
%TO.N,unconnected-(U1-GPIO13-Pad17)_1*%
X183134000Y-58166000D03*
D13*
%TO.P,U1,18,GND_18*%
%TO.N,unconnected-(U1-GND-Pad18)*%
X185674000Y-58166000D03*
D12*
%TO.P,U1,19,GPIO14_19*%
%TO.N,unconnected-(U1-GPIO14-Pad19)*%
X188214000Y-58166000D03*
%TO.P,U1,20,GPIO15_20*%
%TO.N,unconnected-(U1-GPIO15-Pad20)*%
X190754000Y-58166000D03*
%TO.P,U1,21,GPIO16_21*%
%TO.N,unconnected-(U1-GPIO16-Pad21)_1*%
X190754000Y-40386000D03*
%TO.P,U1,22,GPIO17_22*%
%TO.N,unconnected-(U1-GPIO17-Pad22)*%
X188214000Y-40386000D03*
D13*
%TO.P,U1,23,GND_23*%
%TO.N,unconnected-(U1-GND-Pad23)_1*%
X185674000Y-40386000D03*
D12*
%TO.P,U1,24,GPIO18_24*%
%TO.N,unconnected-(U1-GPIO18-Pad24)*%
X183134000Y-40386000D03*
%TO.P,U1,25,GPIO19_25*%
%TO.N,unconnected-(U1-GPIO19-Pad25)*%
X180594000Y-40386000D03*
%TO.P,U1,26,GPIO20_26*%
%TO.N,unconnected-(U1-GPIO20-Pad26)_1*%
X178054000Y-40386000D03*
%TO.P,U1,27,GPIO21_27*%
%TO.N,unconnected-(U1-GPIO21-Pad27)_1*%
X175514000Y-40386000D03*
D13*
%TO.P,U1,28,GND_28*%
%TO.N,unconnected-(U1-GND-Pad28)_1*%
X172974000Y-40386000D03*
D12*
%TO.P,U1,29,GPIO22_29*%
%TO.N,unconnected-(U1-GPIO22-Pad29)*%
X170434000Y-40386000D03*
%TO.P,U1,30,RUN_30*%
%TO.N,unconnected-(U1-RUN-Pad30)*%
X167894000Y-40386000D03*
%TO.P,U1,31,GPIO26_ADC0_31*%
%TO.N,unconnected-(U1-GPIO26_ADC0-Pad31)*%
X165354000Y-40386000D03*
%TO.P,U1,32,GPIO27_ADC1_32*%
%TO.N,unconnected-(U1-GPIO27_ADC1-Pad32)_1*%
X162814000Y-40386000D03*
D13*
%TO.P,U1,33,AGND_33*%
%TO.N,unconnected-(U1-AGND-Pad33)*%
X160274000Y-40386000D03*
D12*
%TO.P,U1,34,GPIO28_ADC2_34*%
%TO.N,unconnected-(U1-GPIO28_ADC2-Pad34)*%
X157734000Y-40386000D03*
%TO.P,U1,35,ADC_VREF_35*%
%TO.N,unconnected-(U1-ADC_VREF-Pad35)*%
X155194000Y-40386000D03*
%TO.P,U1,36,3V3_36*%
%TO.N,Net-(J1-Pin_2)*%
X152654000Y-40386000D03*
%TO.P,U1,37,3V3_EN_37*%
%TO.N,unconnected-(U1-3V3_EN-Pad37)_1*%
X150114000Y-40386000D03*
D13*
%TO.P,U1,38,GND_38*%
%TO.N,unconnected-(U1-GND-Pad38)_1*%
X147574000Y-40386000D03*
D12*
%TO.P,U1,39,VSYS_39*%
%TO.N,Net-(SW1-B)*%
X145034000Y-40386000D03*
%TO.P,U1,40,VBUS_40*%
%TO.N,unconnected-(U1-VBUS-Pad40)_1*%
X142494000Y-40386000D03*
%TO.P,U1,41,SWCLK_41*%
%TO.N,unconnected-(U1-SWCLK-Pad41)*%
X190524000Y-51816000D03*
D13*
%TO.P,U1,42,GND_42*%
%TO.N,unconnected-(U1-GND-Pad42)*%
X190524000Y-49276000D03*
D12*
%TO.P,U1,43,SWDIO_43*%
%TO.N,unconnected-(U1-SWDIO-Pad43)*%
X190524000Y-46736000D03*
%TD*%
D14*
%TO.P,BT1,1,+_1*%
%TO.N,Net-(BT1-+)*%
X140716000Y-78990000D03*
D10*
%TO.P,BT1,2,-_2*%
%TO.N,GND*%
X140716000Y-93980000D03*
%TD*%
%TO.P,B1,1,1_1*%
%TO.N,Net-(U1-GPIO11)*%
X198893133Y-129406160D03*
X205393133Y-129406160D03*
%TO.P,B1,2,2_2*%
%TO.N,GND*%
X198893133Y-133906160D03*
X205393133Y-133906160D03*
%TD*%
D15*
%TO.P,SW1,*%
%TO.N,*%
X128821500Y-80808000D03*
X128821500Y-72608000D03*
D16*
%TO.P,SW1,1,A_1*%
%TO.N,Net-(BT1-+)*%
X128821500Y-78708000D03*
D17*
%TO.P,SW1,2,B_2*%
%TO.N,Net-(SW1-B)*%
X128821500Y-76708000D03*
%TO.P,SW1,3,C_3*%
%TO.N,unconnected-(SW1-C-Pad3)*%
X128821500Y-74708000D03*
%TD*%
D10*
%TO.P,RIGHT1,1,1_1*%
%TO.N,Net-(U1-GPIO7)*%
X147891133Y-123092160D03*
X154391133Y-123092160D03*
%TO.P,RIGHT1,2,2_2*%
%TO.N,GND*%
X147891133Y-127592160D03*
X154391133Y-127592160D03*
%TD*%
%TO.P,LEFT1,1,1_1*%
%TO.N,Net-(U1-GPIO6)*%
X126757133Y-123310160D03*
X133257133Y-123310160D03*
%TO.P,LEFT1,2,2_2*%
%TO.N,GND*%
X126757133Y-127810160D03*
X133257133Y-127810160D03*
%TD*%
%TO.P,A1,1,1_1*%
%TO.N,Net-(U1-GPIO10)*%
X198893133Y-115690160D03*
X205393133Y-115690160D03*
%TO.P,A1,2,2_2*%
%TO.N,GND*%
X198893133Y-120190160D03*
X205393133Y-120190160D03*
%TD*%
%TO.P,HOME1,1,1_1*%
%TO.N,Net-(U1-GPIO12)*%
X198934000Y-140208000D03*
X205434000Y-140208000D03*
%TO.P,HOME1,2,2_2*%
%TO.N,GND*%
X198934000Y-144708000D03*
X205434000Y-144708000D03*
%TD*%
D13*
%TO.P,J1,1,Pin_1_1*%
%TO.N,GND*%
X171663133Y-111844160D03*
D18*
%TO.P,J1,2,Pin_2_2*%
%TO.N,Net-(J1-Pin_2)*%
X174203133Y-111844160D03*
%TO.P,J1,3,Pin_3_3*%
%TO.N,Net-(J1-Pin_3)*%
X176743133Y-111844160D03*
%TO.P,J1,4,Pin_4_4*%
%TO.N,Net-(J1-Pin_4)*%
X179283133Y-111844160D03*
%TD*%
D19*
%TO.N,Net-(BT1-+)*%
X137160000Y-82804000D03*
X125984000Y-83820000D03*
%TO.N,Net-(U1-GPIO7)*%
X162052000Y-63408000D03*
X140716000Y-67148000D03*
X140208000Y-62900000D03*
X136744000Y-103124000D03*
X131988000Y-102616000D03*
X149952000Y-107280000D03*
X149352000Y-105064000D03*
X162052000Y-66040000D03*
%TO.N,Net-(U1-GPIO8)*%
X160020000Y-64008000D03*
X158343735Y-63347735D03*
X154712262Y-63596265D03*
X151384000Y-63500000D03*
X132588000Y-105156000D03*
X133857133Y-105664000D03*
%TO.N,Net-(U1-GPIO6)*%
X154112265Y-64196265D03*
X150797735Y-64253735D03*
%TO.N,Net-(U1-GPIO9)*%
X153416000Y-65024000D03*
X149860000Y-64932000D03*
%TO.N,Net-(U1-GPIO12)*%
X200100000Y-61468000D03*
X201300000Y-61468000D03*
%TO.N,Net-(U1-GPIO11)*%
X197612000Y-66040000D03*
X202184000Y-107696000D03*
X202184000Y-73152000D03*
X200700000Y-107696000D03*
%TO.N,Net-(U1-GPIO10)*%
X200100000Y-70104000D03*
X201300000Y-70104000D03*
%TO.N,Net-(J1-Pin_4)*%
X136744000Y-104648000D03*
X135128000Y-104140000D03*
X179832000Y-108712000D03*
X175260000Y-105664000D03*
%TO.N,Net-(J1-Pin_3)*%
X178308000Y-106172000D03*
X179832000Y-107188000D03*
%TD*%
%TO.N,Net-(BT1-+)*%
D20*
X136144000Y-83820000D02*
X137160000Y-82804000D01*
X125984000Y-83820000D02*
X136144000Y-83820000D01*
%TO.N,Net-(U1-GPIO7)*%
X140208000Y-66640000D02*
X140716000Y-67148000D01*
X140208000Y-62900000D02*
X140208000Y-66640000D01*
X132496000Y-103124000D02*
X131988000Y-102616000D01*
X162052000Y-66040000D02*
X162052000Y-63408000D01*
X136744000Y-103124000D02*
X132496000Y-103124000D01*
X149952000Y-105664000D02*
X149352000Y-105064000D01*
X149952000Y-107280000D02*
X149952000Y-105664000D01*
%TO.N,Net-(U1-GPIO8)*%
X159359735Y-63347735D02*
X160020000Y-64008000D01*
X154615997Y-63500000D02*
X154712262Y-63596265D01*
X151384000Y-63500000D02*
X154615997Y-63500000D01*
X133096000Y-105664000D02*
X132588000Y-105156000D01*
X133857133Y-105664000D02*
X133096000Y-105664000D01*
X158343735Y-63347735D02*
X159359735Y-63347735D01*
%TO.N,Net-(U1-GPIO6)*%
X154054795Y-64253735D02*
X154112265Y-64196265D01*
X150797735Y-64253735D02*
X154054795Y-64253735D01*
%TO.N,Net-(U1-GPIO9)*%
X153324000Y-64932000D02*
X153416000Y-65024000D01*
X149860000Y-64932000D02*
X153324000Y-64932000D01*
%TO.N,Net-(U1-GPIO12)*%
X201300000Y-61468000D02*
X200100000Y-61468000D01*
%TO.N,Net-(U1-GPIO11)*%
X197612000Y-68580000D02*
X197612000Y-66040000D01*
X202184000Y-73152000D02*
X197612000Y-68580000D01*
X200700000Y-107696000D02*
X202184000Y-107696000D01*
%TO.N,Net-(U1-GPIO10)*%
X201300000Y-70104000D02*
X200100000Y-70104000D01*
%TO.N,Net-(J1-Pin_4)*%
X135636000Y-104648000D02*
X135128000Y-104140000D01*
X136744000Y-104648000D02*
X135636000Y-104648000D01*
X179832000Y-108712000D02*
X178308000Y-108712000D01*
X178308000Y-108712000D02*
X175260000Y-105664000D01*
%TO.N,Net-(J1-Pin_3)*%
X179832000Y-107188000D02*
X179324000Y-107188000D01*
X179324000Y-107188000D02*
X178308000Y-106172000D01*
%TD*%
%TA.AperFunction,Conductor*%
%TO.N,GND*%
G36*
X210262539Y-31508185D02*
G01*
X210308294Y-31560989D01*
X210319500Y-31612500D01*
X210319500Y-147203500D01*
X210299815Y-147270539D01*
X210247011Y-147316294D01*
X210195500Y-147327500D01*
X124027633Y-147327500D01*
X123960594Y-147307815D01*
X123914839Y-147255011D01*
X123903633Y-147203500D01*
X123903633Y-144589947D01*
X197434000Y-144589947D01*
X197434000Y-144826052D01*
X197470934Y-145059247D01*
X197543897Y-145283802D01*
X197651087Y-145494174D01*
X197711338Y-145577104D01*
X197711340Y-145577105D01*
X198410212Y-144878233D01*
X198421482Y-144920292D01*
X198493890Y-145045708D01*
X198596292Y-145148110D01*
X198721708Y-145220518D01*
X198763765Y-145231787D01*
X198064893Y-145930658D01*
X198147828Y-145990914D01*
X198358197Y-146098102D01*
X198582752Y-146171065D01*
X198582751Y-146171065D01*
X198815948Y-146208000D01*
X199052052Y-146208000D01*
X199285247Y-146171065D01*
X199509802Y-146098102D01*
X199720163Y-145990918D01*
X199720169Y-145990914D01*
X199803104Y-145930658D01*
X199803105Y-145930658D01*
X199104233Y-145231787D01*
X199146292Y-145220518D01*
X199271708Y-145148110D01*
X199374110Y-145045708D01*
X199446518Y-144920292D01*
X199457787Y-144878233D01*
X200156658Y-145577105D01*
X200156658Y-145577104D01*
X200216914Y-145494169D01*
X200216918Y-145494163D01*
X200324102Y-145283802D01*
X200397065Y-145059247D01*
X200434000Y-144826052D01*
X200434000Y-144589947D01*
X203934000Y-144589947D01*
X203934000Y-144826052D01*
X203970934Y-145059247D01*
X204043897Y-145283802D01*
X204151087Y-145494174D01*
X204211338Y-145577104D01*
X204211340Y-145577105D01*
X204910212Y-144878233D01*
X204921482Y-144920292D01*
X204993890Y-145045708D01*
X205096292Y-145148110D01*
X205221708Y-145220518D01*
X205263765Y-145231787D01*
X204564893Y-145930658D01*
X204647828Y-145990914D01*
X204858197Y-146098102D01*
X205082752Y-146171065D01*
X205082751Y-146171065D01*
X205315948Y-146208000D01*
X205552052Y-146208000D01*
X205785247Y-146171065D01*
X206009802Y-146098102D01*
X206220163Y-145990918D01*
X206220169Y-145990914D01*
X206303104Y-145930658D01*
X206303105Y-145930658D01*
X205604233Y-145231787D01*
X205646292Y-145220518D01*
X205771708Y-145148110D01*
X205874110Y-145045708D01*
X205946518Y-144920292D01*
X205957787Y-144878233D01*
X206656658Y-145577105D01*
X206656658Y-145577104D01*
X206716914Y-145494169D01*
X206716918Y-145494163D01*
X206824102Y-145283802D01*
X206897065Y-145059247D01*
X206934000Y-144826052D01*
X206934000Y-144589947D01*
X206897065Y-144356752D01*
X206824102Y-144132197D01*
X206716914Y-143921828D01*
X206656658Y-143838894D01*
X206656658Y-143838893D01*
X205957787Y-144537765D01*
X205946518Y-144495708D01*
X205874110Y-144370292D01*
X205771708Y-144267890D01*
X205646292Y-144195482D01*
X205604234Y-144184212D01*
X206303105Y-143485340D01*
X206303104Y-143485338D01*
X206220174Y-143425087D01*
X206009802Y-143317897D01*
X205785247Y-143244934D01*
X205785248Y-143244934D01*
X205552052Y-143208000D01*
X205315948Y-143208000D01*
X205082752Y-143244934D01*
X204858197Y-143317897D01*
X204647830Y-143425084D01*
X204564894Y-143485340D01*
X205263766Y-144184212D01*
X205221708Y-144195482D01*
X205096292Y-144267890D01*
X204993890Y-144370292D01*
X204921482Y-144495708D01*
X204910212Y-144537766D01*
X204211340Y-143838894D01*
X204151084Y-143921830D01*
X204043897Y-144132197D01*
X203970934Y-144356752D01*
X203934000Y-144589947D01*
X200434000Y-144589947D01*
X200397065Y-144356752D01*
X200324102Y-144132197D01*
X200216914Y-143921828D01*
X200156658Y-143838894D01*
X200156658Y-143838893D01*
X199457787Y-144537765D01*
X199446518Y-144495708D01*
X199374110Y-144370292D01*
X199271708Y-144267890D01*
X199146292Y-144195482D01*
X199104234Y-144184212D01*
X199803105Y-143485340D01*
X199803104Y-143485339D01*
X199720174Y-143425087D01*
X199509802Y-143317897D01*
X199285247Y-143244934D01*
X199285248Y-143244934D01*
X199052052Y-143208000D01*
X198815948Y-143208000D01*
X198582752Y-143244934D01*
X198358197Y-143317897D01*
X198147830Y-143425084D01*
X198064894Y-143485340D01*
X198763766Y-144184212D01*
X198721708Y-144195482D01*
X198596292Y-144267890D01*
X198493890Y-144370292D01*
X198421482Y-144495708D01*
X198410212Y-144537766D01*
X197711340Y-143838894D01*
X197651084Y-143921830D01*
X197543897Y-144132197D01*
X197470934Y-144356752D01*
X197434000Y-144589947D01*
X123903633Y-144589947D01*
X123903633Y-140089902D01*
X197433500Y-140089902D01*
X197433500Y-140326097D01*
X197470446Y-140559368D01*
X197543433Y-140783996D01*
X197650657Y-140994433D01*
X197789483Y-141185510D01*
X197956490Y-141352517D01*
X198147567Y-141491343D01*
X198246991Y-141542002D01*
X198358003Y-141598566D01*
X198358005Y-141598566D01*
X198358008Y-141598568D01*
X198478412Y-141637689D01*
X198582631Y-141671553D01*
X198815903Y-141708500D01*
X198815908Y-141708500D01*
X199052097Y-141708500D01*
X199285368Y-141671553D01*
X199509992Y-141598568D01*
X199720433Y-141491343D01*
X199911510Y-141352517D01*
X200078517Y-141185510D01*
X200217343Y-140994433D01*
X200324568Y-140783992D01*
X200397553Y-140559368D01*
X200434500Y-140326097D01*
X200434500Y-140089902D01*
X203933500Y-140089902D01*
X203933500Y-140326097D01*
X203970446Y-140559368D01*
X204043433Y-140783996D01*
X204150657Y-140994433D01*
X204289483Y-141185510D01*
X204456490Y-141352517D01*
X204647567Y-141491343D01*
X204746991Y-141542002D01*
X204858003Y-141598566D01*
X204858005Y-141598566D01*
X204858008Y-141598568D01*
X204978412Y-141637689D01*
X205082631Y-141671553D01*
X205315903Y-141708500D01*
X205315908Y-141708500D01*
X205552097Y-141708500D01*
X205785368Y-141671553D01*
X206009992Y-141598568D01*
X206220433Y-141491343D01*
X206411510Y-141352517D01*
X206578517Y-141185510D01*
X206717343Y-140994433D01*
X206824568Y-140783992D01*
X206897553Y-140559368D01*
X206934500Y-140326097D01*
X206934500Y-140089902D01*
X206897553Y-139856631D01*
X206824566Y-139632003D01*
X206717342Y-139421566D01*
X206578517Y-139230490D01*
X206411510Y-139063483D01*
X206220433Y-138924657D01*
X206009996Y-138817433D01*
X205785368Y-138744446D01*
X205552097Y-138707500D01*
X205552092Y-138707500D01*
X205315908Y-138707500D01*
X205315903Y-138707500D01*
X205082631Y-138744446D01*
X204858003Y-138817433D01*
X204647566Y-138924657D01*
X204538550Y-139003862D01*
X204456490Y-139063483D01*
X204456488Y-139063485D01*
X204456487Y-139063485D01*
X204289485Y-139230487D01*
X204289485Y-139230488D01*
X204289483Y-139230490D01*
X204273075Y-139253074D01*
X204150657Y-139421566D01*
X204043433Y-139632003D01*
X203970446Y-139856631D01*
X203933500Y-140089902D01*
X200434500Y-140089902D01*
X200397553Y-139856631D01*
X200324566Y-139632003D01*
X200217342Y-139421566D01*
X200078517Y-139230490D01*
X199911510Y-139063483D01*
X199720433Y-138924657D01*
X199509996Y-138817433D01*
X199285368Y-138744446D01*
X199052097Y-138707500D01*
X199052092Y-138707500D01*
X198815908Y-138707500D01*
X198815903Y-138707500D01*
X198582631Y-138744446D01*
X198358003Y-138817433D01*
X198147566Y-138924657D01*
X198038550Y-139003862D01*
X197956490Y-139063483D01*
X197956488Y-139063485D01*
X197956487Y-139063485D01*
X197789485Y-139230487D01*
X197789485Y-139230488D01*
X197789483Y-139230490D01*
X197773075Y-139253074D01*
X197650657Y-139421566D01*
X197543433Y-139632003D01*
X197470446Y-139856631D01*
X197433500Y-140089902D01*
X123903633Y-140089902D01*
X123903633Y-137852107D01*
X135925133Y-137852107D01*
X135925133Y-138088212D01*
X135962067Y-138321407D01*
X136035030Y-138545962D01*
X136142220Y-138756334D01*
X136202471Y-138839264D01*
X136202473Y-138839265D01*
X136901345Y-138140393D01*
X136912615Y-138182452D01*
X136985023Y-138307868D01*
X137087425Y-138410270D01*
X137212841Y-138482678D01*
X137254898Y-138493947D01*
X136556026Y-139192818D01*
X136638961Y-139253074D01*
X136849330Y-139360262D01*
X137073885Y-139433225D01*
X137073884Y-139433225D01*
X137307081Y-139470160D01*
X137543185Y-139470160D01*
X137776380Y-139433225D01*
X138000935Y-139360262D01*
X138211296Y-139253078D01*
X138211302Y-139253074D01*
X138294237Y-139192818D01*
X138294238Y-139192818D01*
X137595366Y-138493947D01*
X137637425Y-138482678D01*
X137762841Y-138410270D01*
X137865243Y-138307868D01*
X137937651Y-138182452D01*
X137948920Y-138140394D01*
X138647791Y-138839265D01*
X138647791Y-138839264D01*
X138708047Y-138756329D01*
X138708051Y-138756323D01*
X138815235Y-138545962D01*
X138888198Y-138321407D01*
X138925133Y-138088212D01*
X138925133Y-137852107D01*
X142425133Y-137852107D01*
X142425133Y-138088212D01*
X142462067Y-138321407D01*
X142535030Y-138545962D01*
X142642220Y-138756334D01*
X142702471Y-138839264D01*
X142702473Y-138839265D01*
X143401345Y-138140393D01*
X143412615Y-138182452D01*
X143485023Y-138307868D01*
X143587425Y-138410270D01*
X143712841Y-138482678D01*
X143754898Y-138493947D01*
X143056026Y-139192818D01*
X143138961Y-139253074D01*
X143349330Y-139360262D01*
X143573885Y-139433225D01*
X143573884Y-139433225D01*
X143807081Y-139470160D01*
X144043185Y-139470160D01*
X144276380Y-139433225D01*
X144500935Y-139360262D01*
X144711296Y-139253078D01*
X144711302Y-139253074D01*
X144794237Y-139192818D01*
X144794238Y-139192818D01*
X144095366Y-138493947D01*
X144137425Y-138482678D01*
X144262841Y-138410270D01*
X144365243Y-138307868D01*
X144437651Y-138182452D01*
X144448920Y-138140394D01*
X145147791Y-138839265D01*
X145147791Y-138839264D01*
X145208047Y-138756329D01*
X145208051Y-138756323D01*
X145315235Y-138545962D01*
X145388198Y-138321407D01*
X145425133Y-138088212D01*
X145425133Y-137852107D01*
X145388198Y-137618912D01*
X145315235Y-137394357D01*
X145208047Y-137183988D01*
X145147791Y-137101054D01*
X145147791Y-137101053D01*
X144448920Y-137799925D01*
X144437651Y-137757868D01*
X144365243Y-137632452D01*
X144262841Y-137530050D01*
X144137425Y-137457642D01*
X144095367Y-137446372D01*
X144794238Y-136747500D01*
X144794237Y-136747498D01*
X144711307Y-136687247D01*
X144500935Y-136580057D01*
X144276380Y-136507094D01*
X144276381Y-136507094D01*
X144043185Y-136470160D01*
X143807081Y-136470160D01*
X143573885Y-136507094D01*
X143349330Y-136580057D01*
X143138963Y-136687244D01*
X143056027Y-136747500D01*
X143754899Y-137446372D01*
X143712841Y-137457642D01*
X143587425Y-137530050D01*
X143485023Y-137632452D01*
X143412615Y-137757868D01*
X143401345Y-137799926D01*
X142702473Y-137101054D01*
X142642217Y-137183990D01*
X142535030Y-137394357D01*
X142462067Y-137618912D01*
X142425133Y-137852107D01*
X138925133Y-137852107D01*
X138888198Y-137618912D01*
X138815235Y-137394357D01*
X138708047Y-137183988D01*
X138647791Y-137101054D01*
X138647791Y-137101053D01*
X137948920Y-137799925D01*
X137937651Y-137757868D01*
X137865243Y-137632452D01*
X137762841Y-137530050D01*
X137637425Y-137457642D01*
X137595367Y-137446372D01*
X138294238Y-136747500D01*
X138294237Y-136747499D01*
X138211307Y-136687247D01*
X138000935Y-136580057D01*
X137776380Y-136507094D01*
X137776381Y-136507094D01*
X137543185Y-136470160D01*
X137307081Y-136470160D01*
X137073885Y-136507094D01*
X136849330Y-136580057D01*
X136638963Y-136687244D01*
X136556027Y-136747500D01*
X137254899Y-137446372D01*
X137212841Y-137457642D01*
X137087425Y-137530050D01*
X136985023Y-137632452D01*
X136912615Y-137757868D01*
X136901345Y-137799926D01*
X136202473Y-137101054D01*
X136142217Y-137183990D01*
X136035030Y-137394357D01*
X135962067Y-137618912D01*
X135925133Y-137852107D01*
X123903633Y-137852107D01*
X123903633Y-133352062D01*
X135924633Y-133352062D01*
X135924633Y-133588257D01*
X135961579Y-133821528D01*
X136034566Y-134046156D01*
X136135306Y-134243868D01*
X136141790Y-134256593D01*
X136280616Y-134447670D01*
X136447623Y-134614677D01*
X136638700Y-134753503D01*
X136738124Y-134804162D01*
X136849136Y-134860726D01*
X136849138Y-134860726D01*
X136849141Y-134860728D01*
X136969545Y-134899849D01*
X137073764Y-134933713D01*
X137307036Y-134970660D01*
X137307041Y-134970660D01*
X137543230Y-134970660D01*
X137776501Y-134933713D01*
X138001125Y-134860728D01*
X138211566Y-134753503D01*
X138402643Y-134614677D01*
X138569650Y-134447670D01*
X138708476Y-134256593D01*
X138815701Y-134046152D01*
X138888686Y-133821528D01*
X138893979Y-133788107D01*
X138925633Y-133588257D01*
X138925633Y-133352062D01*
X142424633Y-133352062D01*
X142424633Y-133588257D01*
X142461579Y-133821528D01*
X142534566Y-134046156D01*
X142635306Y-134243868D01*
X142641790Y-134256593D01*
X142780616Y-134447670D01*
X142947623Y-134614677D01*
X143138700Y-134753503D01*
X143238124Y-134804162D01*
X143349136Y-134860726D01*
X143349138Y-134860726D01*
X143349141Y-134860728D01*
X143469545Y-134899849D01*
X143573764Y-134933713D01*
X143807036Y-134970660D01*
X143807041Y-134970660D01*
X144043230Y-134970660D01*
X144116305Y-134959086D01*
X144276501Y-134933713D01*
X144501125Y-134860728D01*
X144711566Y-134753503D01*
X144902643Y-134614677D01*
X145069650Y-134447670D01*
X145208476Y-134256593D01*
X145315701Y-134046152D01*
X145388686Y-133821528D01*
X145393979Y-133788107D01*
X197393133Y-133788107D01*
X197393133Y-134024212D01*
X197430067Y-134257407D01*
X197503030Y-134481962D01*
X197610220Y-134692334D01*
X197670471Y-134775264D01*
X197670473Y-134775265D01*
X198369345Y-134076393D01*
X198380615Y-134118452D01*
X198453023Y-134243868D01*
X198555425Y-134346270D01*
X198680841Y-134418678D01*
X198722898Y-134429947D01*
X198024026Y-135128818D01*
X198106961Y-135189074D01*
X198317330Y-135296262D01*
X198541885Y-135369225D01*
X198541884Y-135369225D01*
X198775081Y-135406160D01*
X199011185Y-135406160D01*
X199244380Y-135369225D01*
X199468935Y-135296262D01*
X199679296Y-135189078D01*
X199679302Y-135189074D01*
X199762237Y-135128818D01*
X199762238Y-135128818D01*
X199063366Y-134429947D01*
X199105425Y-134418678D01*
X199230841Y-134346270D01*
X199333243Y-134243868D01*
X199405651Y-134118452D01*
X199416920Y-134076394D01*
X200115791Y-134775265D01*
X200115791Y-134775264D01*
X200176047Y-134692329D01*
X200176051Y-134692323D01*
X200283235Y-134481962D01*
X200356198Y-134257407D01*
X200393133Y-134024212D01*
X200393133Y-133788107D01*
X203893133Y-133788107D01*
X203893133Y-134024212D01*
X203930067Y-134257407D01*
X204003030Y-134481962D01*
X204110220Y-134692334D01*
X204170471Y-134775264D01*
X204170473Y-134775265D01*
X204869345Y-134076393D01*
X204880615Y-134118452D01*
X204953023Y-134243868D01*
X205055425Y-134346270D01*
X205180841Y-134418678D01*
X205222898Y-134429947D01*
X204524026Y-135128818D01*
X204606961Y-135189074D01*
X204817330Y-135296262D01*
X205041885Y-135369225D01*
X205041884Y-135369225D01*
X205275081Y-135406160D01*
X205511185Y-135406160D01*
X205744380Y-135369225D01*
X205968935Y-135296262D01*
X206179296Y-135189078D01*
X206179302Y-135189074D01*
X206262237Y-135128818D01*
X206262238Y-135128818D01*
X205563366Y-134429947D01*
X205605425Y-134418678D01*
X205730841Y-134346270D01*
X205833243Y-134243868D01*
X205905651Y-134118452D01*
X205916920Y-134076394D01*
X206615791Y-134775265D01*
X206615791Y-134775264D01*
X206676047Y-134692329D01*
X206676051Y-134692323D01*
X206783235Y-134481962D01*
X206856198Y-134257407D01*
X206893133Y-134024212D01*
X206893133Y-133788107D01*
X206856198Y-133554912D01*
X206783235Y-133330357D01*
X206676047Y-133119988D01*
X206615791Y-133037054D01*
X206615791Y-133037053D01*
X205916920Y-133735925D01*
X205905651Y-133693868D01*
X205833243Y-133568452D01*
X205730841Y-133466050D01*
X205605425Y-133393642D01*
X205563367Y-133382372D01*
X206262238Y-132683500D01*
X206262237Y-132683498D01*
X206179307Y-132623247D01*
X205968935Y-132516057D01*
X205744380Y-132443094D01*
X205744381Y-132443094D01*
X205511185Y-132406160D01*
X205275081Y-132406160D01*
X205041885Y-132443094D01*
X204817330Y-132516057D01*
X204606963Y-132623244D01*
X204524027Y-132683500D01*
X205222899Y-133382372D01*
X205180841Y-133393642D01*
X205055425Y-133466050D01*
X204953023Y-133568452D01*
X204880615Y-133693868D01*
X204869345Y-133735926D01*
X204170473Y-133037054D01*
X204110217Y-133119990D01*
X204003030Y-133330357D01*
X203930067Y-133554912D01*
X203893133Y-133788107D01*
X200393133Y-133788107D01*
X200356198Y-133554912D01*
X200283235Y-133330357D01*
X200176047Y-133119988D01*
X200115791Y-133037054D01*
X200115791Y-133037053D01*
X199416920Y-133735925D01*
X199405651Y-133693868D01*
X199333243Y-133568452D01*
X199230841Y-133466050D01*
X199105425Y-133393642D01*
X199063367Y-133382372D01*
X199762238Y-132683500D01*
X199762237Y-132683499D01*
X199679307Y-132623247D01*
X199468935Y-132516057D01*
X199244380Y-132443094D01*
X199244381Y-132443094D01*
X199011185Y-132406160D01*
X198775081Y-132406160D01*
X198541885Y-132443094D01*
X198317330Y-132516057D01*
X198106963Y-132623244D01*
X198024027Y-132683500D01*
X198722899Y-133382372D01*
X198680841Y-133393642D01*
X198555425Y-133466050D01*
X198453023Y-133568452D01*
X198380615Y-133693868D01*
X198369345Y-133735925D01*
X197670473Y-133037054D01*
X197610217Y-133119990D01*
X197503030Y-133330357D01*
X197430067Y-133554912D01*
X197393133Y-133788107D01*
X145393979Y-133788107D01*
X145394187Y-133786794D01*
X145397824Y-133763836D01*
X145397824Y-133763835D01*
X145425633Y-133588257D01*
X145425633Y-133352062D01*
X145388686Y-133118791D01*
X145315699Y-132894163D01*
X145261124Y-132787054D01*
X145208475Y-132683726D01*
X145208310Y-132683499D01*
X145069650Y-132492650D01*
X144902643Y-132325643D01*
X144711566Y-132186817D01*
X144501129Y-132079593D01*
X144276501Y-132006606D01*
X144043230Y-131969660D01*
X144043225Y-131969660D01*
X143807041Y-131969660D01*
X143807036Y-131969660D01*
X143573764Y-132006606D01*
X143349136Y-132079593D01*
X143138699Y-132186817D01*
X143029683Y-132266022D01*
X142947623Y-132325643D01*
X142947621Y-132325645D01*
X142947620Y-132325645D01*
X142780618Y-132492647D01*
X142780618Y-132492648D01*
X142780616Y-132492650D01*
X142763610Y-132516057D01*
X142641790Y-132683726D01*
X142534566Y-132894163D01*
X142461579Y-133118791D01*
X142424633Y-133352062D01*
X138925633Y-133352062D01*
X138888686Y-133118791D01*
X138815699Y-132894163D01*
X138708475Y-132683726D01*
X138708310Y-132683499D01*
X138569650Y-132492650D01*
X138402643Y-132325643D01*
X138211566Y-132186817D01*
X138001129Y-132079593D01*
X137776501Y-132006606D01*
X137543230Y-131969660D01*
X137543225Y-131969660D01*
X137307041Y-131969660D01*
X137307036Y-131969660D01*
X137073764Y-132006606D01*
X136849136Y-132079593D01*
X136638699Y-132186817D01*
X136529683Y-132266022D01*
X136447623Y-132325643D01*
X136447621Y-132325645D01*
X136447620Y-132325645D01*
X136280618Y-132492647D01*
X136280618Y-132492648D01*
X136280616Y-132492650D01*
X136263610Y-132516057D01*
X136141790Y-132683726D01*
X136034566Y-132894163D01*
X135961579Y-133118791D01*
X135924633Y-133352062D01*
X123903633Y-133352062D01*
X123903633Y-127692107D01*
X125257133Y-127692107D01*
X125257133Y-127928212D01*
X125294067Y-128161407D01*
X125367030Y-128385962D01*
X125474220Y-128596334D01*
X125534471Y-128679264D01*
X125534473Y-128679265D01*
X126233345Y-127980393D01*
X126244615Y-128022452D01*
X126317023Y-128147868D01*
X126419425Y-128250270D01*
X126544841Y-128322678D01*
X126586898Y-128333947D01*
X125888026Y-129032818D01*
X125970961Y-129093074D01*
X126181330Y-129200262D01*
X126405885Y-129273225D01*
X126405884Y-129273225D01*
X126639081Y-129310160D01*
X126875185Y-129310160D01*
X127108380Y-129273225D01*
X127332935Y-129200262D01*
X127543296Y-129093078D01*
X127543302Y-129093074D01*
X127626237Y-129032818D01*
X127626238Y-129032818D01*
X126927366Y-128333947D01*
X126969425Y-128322678D01*
X127094841Y-128250270D01*
X127197243Y-128147868D01*
X127269651Y-128022452D01*
X127280920Y-127980394D01*
X127979791Y-128679265D01*
X127979791Y-128679264D01*
X128040047Y-128596329D01*
X128040051Y-128596323D01*
X128147235Y-128385962D01*
X128220198Y-128161407D01*
X128257133Y-127928212D01*
X128257133Y-127692107D01*
X131757133Y-127692107D01*
X131757133Y-127928212D01*
X131794067Y-128161407D01*
X131867030Y-128385962D01*
X131974220Y-128596334D01*
X132034471Y-128679264D01*
X132034473Y-128679265D01*
X132733345Y-127980393D01*
X132744615Y-128022452D01*
X132817023Y-128147868D01*
X132919425Y-128250270D01*
X133044841Y-128322678D01*
X133086898Y-128333947D01*
X132388026Y-129032818D01*
X132470961Y-129093074D01*
X132681330Y-129200262D01*
X132905885Y-129273225D01*
X132905884Y-129273225D01*
X133139081Y-129310160D01*
X133375185Y-129310160D01*
X133514704Y-129288062D01*
X197392633Y-129288062D01*
X197392633Y-129524257D01*
X197429579Y-129757528D01*
X197502566Y-129982156D01*
X197609790Y-130192593D01*
X197748616Y-130383670D01*
X197915623Y-130550677D01*
X198106700Y-130689503D01*
X198206124Y-130740162D01*
X198317136Y-130796726D01*
X198317138Y-130796726D01*
X198317141Y-130796728D01*
X198437545Y-130835849D01*
X198541764Y-130869713D01*
X198775036Y-130906660D01*
X198775041Y-130906660D01*
X199011230Y-130906660D01*
X199244501Y-130869713D01*
X199469125Y-130796728D01*
X199679566Y-130689503D01*
X199870643Y-130550677D01*
X200037650Y-130383670D01*
X200176476Y-130192593D01*
X200283701Y-129982152D01*
X200356686Y-129757528D01*
X200393633Y-129524257D01*
X200393633Y-129288062D01*
X203892633Y-129288062D01*
X203892633Y-129524257D01*
X203929579Y-129757528D01*
X204002566Y-129982156D01*
X204109790Y-130192593D01*
X204248616Y-130383670D01*
X204415623Y-130550677D01*
X204606700Y-130689503D01*
X204706124Y-130740162D01*
X204817136Y-130796726D01*
X204817138Y-130796726D01*
X204817141Y-130796728D01*
X204937545Y-130835849D01*
X205041764Y-130869713D01*
X205275036Y-130906660D01*
X205275041Y-130906660D01*
X205511230Y-130906660D01*
X205744501Y-130869713D01*
X205969125Y-130796728D01*
X206179566Y-130689503D01*
X206370643Y-130550677D01*
X206537650Y-130383670D01*
X206676476Y-130192593D01*
X206783701Y-129982152D01*
X206856686Y-129757528D01*
X206893633Y-129524257D01*
X206893633Y-129288062D01*
X206856686Y-129054791D01*
X206783699Y-128830163D01*
X206706812Y-128679265D01*
X206676476Y-128619727D01*
X206537650Y-128428650D01*
X206370643Y-128261643D01*
X206179566Y-128122817D01*
X205969129Y-128015593D01*
X205744501Y-127942606D01*
X205511230Y-127905660D01*
X205511225Y-127905660D01*
X205275041Y-127905660D01*
X205275036Y-127905660D01*
X205041764Y-127942606D01*
X204817136Y-128015593D01*
X204606699Y-128122817D01*
X204550410Y-128163714D01*
X204415623Y-128261643D01*
X204415621Y-128261645D01*
X204415620Y-128261645D01*
X204248618Y-128428647D01*
X204248618Y-128428648D01*
X204248616Y-128428650D01*
X204224920Y-128461265D01*
X204109790Y-128619726D01*
X204002566Y-128830163D01*
X203929579Y-129054791D01*
X203892633Y-129288062D01*
X200393633Y-129288062D01*
X200356686Y-129054791D01*
X200283699Y-128830163D01*
X200206812Y-128679265D01*
X200176476Y-128619727D01*
X200037650Y-128428650D01*
X199870643Y-128261643D01*
X199679566Y-128122817D01*
X199469129Y-128015593D01*
X199244501Y-127942606D01*
X199011230Y-127905660D01*
X199011225Y-127905660D01*
X198775041Y-127905660D01*
X198775036Y-127905660D01*
X198541764Y-127942606D01*
X198317136Y-128015593D01*
X198106699Y-128122817D01*
X198050410Y-128163714D01*
X197915623Y-128261643D01*
X197915621Y-128261645D01*
X197915620Y-128261645D01*
X197748618Y-128428647D01*
X197748618Y-128428648D01*
X197748616Y-128428650D01*
X197724920Y-128461265D01*
X197609790Y-128619726D01*
X197502566Y-128830163D01*
X197429579Y-129054791D01*
X197392633Y-129288062D01*
X133514704Y-129288062D01*
X133608380Y-129273225D01*
X133832935Y-129200262D01*
X133887009Y-129172711D01*
X134043296Y-129093078D01*
X134043302Y-129093074D01*
X134126237Y-129032818D01*
X134126238Y-129032818D01*
X133427366Y-128333947D01*
X133469425Y-128322678D01*
X133594841Y-128250270D01*
X133697243Y-128147868D01*
X133769651Y-128022452D01*
X133780920Y-127980394D01*
X134479791Y-128679265D01*
X134479791Y-128679264D01*
X134540047Y-128596329D01*
X134540051Y-128596323D01*
X134647235Y-128385962D01*
X134720198Y-128161407D01*
X134757133Y-127928212D01*
X134757133Y-127692107D01*
X134724906Y-127488633D01*
X134722605Y-127474107D01*
X146391133Y-127474107D01*
X146391133Y-127710212D01*
X146428067Y-127943407D01*
X146501030Y-128167962D01*
X146608220Y-128378334D01*
X146668471Y-128461264D01*
X146668473Y-128461265D01*
X147367345Y-127762393D01*
X147378615Y-127804452D01*
X147451023Y-127929868D01*
X147553425Y-128032270D01*
X147678841Y-128104678D01*
X147720898Y-128115947D01*
X147022026Y-128814818D01*
X147104961Y-128875074D01*
X147315330Y-128982262D01*
X147539885Y-129055225D01*
X147539884Y-129055225D01*
X147773081Y-129092160D01*
X148009185Y-129092160D01*
X148242380Y-129055225D01*
X148466935Y-128982262D01*
X148677296Y-128875078D01*
X148677302Y-128875074D01*
X148760237Y-128814818D01*
X148760238Y-128814818D01*
X148061366Y-128115947D01*
X148103425Y-128104678D01*
X148228841Y-128032270D01*
X148331243Y-127929868D01*
X148403651Y-127804452D01*
X148414920Y-127762394D01*
X149113791Y-128461265D01*
X149113791Y-128461264D01*
X149174047Y-128378329D01*
X149174051Y-128378323D01*
X149281235Y-128167962D01*
X149354198Y-127943407D01*
X149391133Y-127710212D01*
X149391133Y-127474107D01*
X152891133Y-127474107D01*
X152891133Y-127710212D01*
X152928067Y-127943407D01*
X153001030Y-128167962D01*
X153108220Y-128378334D01*
X153168471Y-128461264D01*
X153168473Y-128461265D01*
X153867345Y-127762393D01*
X153878615Y-127804452D01*
X153951023Y-127929868D01*
X154053425Y-128032270D01*
X154178841Y-128104678D01*
X154220898Y-128115947D01*
X153522026Y-128814818D01*
X153604961Y-128875074D01*
X153815330Y-128982262D01*
X154039885Y-129055225D01*
X154039884Y-129055225D01*
X154273081Y-129092160D01*
X154509185Y-129092160D01*
X154742380Y-129055225D01*
X154966935Y-128982262D01*
X155177296Y-128875078D01*
X155177302Y-128875074D01*
X155260237Y-128814818D01*
X155260238Y-128814818D01*
X154561366Y-128115947D01*
X154603425Y-128104678D01*
X154728841Y-128032270D01*
X154831243Y-127929868D01*
X154903651Y-127804452D01*
X154914920Y-127762394D01*
X155613791Y-128461265D01*
X155613791Y-128461264D01*
X155674047Y-128378329D01*
X155674051Y-128378323D01*
X155781235Y-128167962D01*
X155854198Y-127943407D01*
X155891133Y-127710212D01*
X155891133Y-127474107D01*
X155854198Y-127240912D01*
X155781235Y-127016357D01*
X155674047Y-126805988D01*
X155613791Y-126723054D01*
X155613791Y-126723053D01*
X154914920Y-127421925D01*
X154903651Y-127379868D01*
X154831243Y-127254452D01*
X154728841Y-127152050D01*
X154603425Y-127079642D01*
X154561367Y-127068372D01*
X155260238Y-126369500D01*
X155260237Y-126369498D01*
X155177307Y-126309247D01*
X154966935Y-126202057D01*
X154742380Y-126129094D01*
X154742381Y-126129094D01*
X154509185Y-126092160D01*
X154273081Y-126092160D01*
X154039885Y-126129094D01*
X153815330Y-126202057D01*
X153604963Y-126309244D01*
X153522027Y-126369500D01*
X154220899Y-127068372D01*
X154178841Y-127079642D01*
X154053425Y-127152050D01*
X153951023Y-127254452D01*
X153878615Y-127379868D01*
X153867345Y-127421926D01*
X153168473Y-126723054D01*
X153108217Y-126805990D01*
X153001030Y-127016357D01*
X152928067Y-127240912D01*
X152891133Y-127474107D01*
X149391133Y-127474107D01*
X149354198Y-127240912D01*
X149281235Y-127016357D01*
X149174047Y-126805988D01*
X149113791Y-126723054D01*
X149113791Y-126723053D01*
X148414920Y-127421925D01*
X148403651Y-127379868D01*
X148331243Y-127254452D01*
X148228841Y-127152050D01*
X148103425Y-127079642D01*
X148061367Y-127068372D01*
X148760238Y-126369500D01*
X148760237Y-126369499D01*
X148677307Y-126309247D01*
X148466935Y-126202057D01*
X148242380Y-126129094D01*
X148242381Y-126129094D01*
X148009185Y-126092160D01*
X147773081Y-126092160D01*
X147539885Y-126129094D01*
X147315330Y-126202057D01*
X147104963Y-126309244D01*
X147022027Y-126369500D01*
X147720899Y-127068372D01*
X147678841Y-127079642D01*
X147553425Y-127152050D01*
X147451023Y-127254452D01*
X147378615Y-127379868D01*
X147367345Y-127421926D01*
X146668473Y-126723054D01*
X146608217Y-126805990D01*
X146501030Y-127016357D01*
X146428067Y-127240912D01*
X146391133Y-127474107D01*
X134722605Y-127474107D01*
X134720198Y-127458912D01*
X134647235Y-127234357D01*
X134540047Y-127023988D01*
X134479791Y-126941054D01*
X134479791Y-126941053D01*
X133780920Y-127639925D01*
X133769651Y-127597868D01*
X133697243Y-127472452D01*
X133594841Y-127370050D01*
X133469425Y-127297642D01*
X133427367Y-127286372D01*
X134126238Y-126587500D01*
X134126237Y-126587498D01*
X134043304Y-126527244D01*
X134043302Y-126527244D01*
X133832935Y-126420057D01*
X133608380Y-126347094D01*
X133608381Y-126347094D01*
X133375185Y-126310160D01*
X133139081Y-126310160D01*
X132905885Y-126347094D01*
X132681330Y-126420057D01*
X132470963Y-126527244D01*
X132388027Y-126587500D01*
X133086899Y-127286372D01*
X133044841Y-127297642D01*
X132919425Y-127370050D01*
X132817023Y-127472452D01*
X132744615Y-127597868D01*
X132733345Y-127639926D01*
X132034473Y-126941054D01*
X131974217Y-127023990D01*
X131867030Y-127234357D01*
X131794067Y-127458912D01*
X131757133Y-127692107D01*
X128257133Y-127692107D01*
X128220198Y-127458912D01*
X128147235Y-127234357D01*
X128040047Y-127023988D01*
X127979791Y-126941054D01*
X127979791Y-126941053D01*
X127280920Y-127639925D01*
X127269651Y-127597868D01*
X127197243Y-127472452D01*
X127094841Y-127370050D01*
X126969425Y-127297642D01*
X126927367Y-127286372D01*
X127626238Y-126587500D01*
X127626237Y-126587499D01*
X127543307Y-126527247D01*
X127332935Y-126420057D01*
X127108380Y-126347094D01*
X127108381Y-126347094D01*
X126875185Y-126310160D01*
X126639081Y-126310160D01*
X126405885Y-126347094D01*
X126181330Y-126420057D01*
X125970963Y-126527244D01*
X125888027Y-126587500D01*
X126586899Y-127286372D01*
X126544841Y-127297642D01*
X126419425Y-127370050D01*
X126317023Y-127472452D01*
X126244615Y-127597868D01*
X126233345Y-127639926D01*
X125534473Y-126941054D01*
X125474217Y-127023990D01*
X125367030Y-127234357D01*
X125294067Y-127458912D01*
X125257133Y-127692107D01*
X123903633Y-127692107D01*
X123903633Y-123192062D01*
X125256633Y-123192062D01*
X125256633Y-123428257D01*
X125293579Y-123661528D01*
X125366566Y-123886156D01*
X125460073Y-124069672D01*
X125473790Y-124096593D01*
X125612616Y-124287670D01*
X125779623Y-124454677D01*
X125970700Y-124593503D01*
X126070124Y-124644162D01*
X126181136Y-124700726D01*
X126181138Y-124700726D01*
X126181141Y-124700728D01*
X126301545Y-124739849D01*
X126405764Y-124773713D01*
X126639036Y-124810660D01*
X126639041Y-124810660D01*
X126875230Y-124810660D01*
X127108501Y-124773713D01*
X127333125Y-124700728D01*
X127543566Y-124593503D01*
X127734643Y-124454677D01*
X127901650Y-124287670D01*
X128040476Y-124096593D01*
X128147701Y-123886152D01*
X128220686Y-123661528D01*
X128255214Y-123443528D01*
X128257633Y-123428257D01*
X128257633Y-123192062D01*
X131756633Y-123192062D01*
X131756633Y-123428257D01*
X131793579Y-123661528D01*
X131866566Y-123886156D01*
X131960073Y-124069672D01*
X131973790Y-124096593D01*
X132112616Y-124287670D01*
X132279623Y-124454677D01*
X132470700Y-124593503D01*
X132570124Y-124644162D01*
X132681136Y-124700726D01*
X132681138Y-124700726D01*
X132681141Y-124700728D01*
X132801545Y-124739849D01*
X132905764Y-124773713D01*
X133139036Y-124810660D01*
X133139041Y-124810660D01*
X133375230Y-124810660D01*
X133608501Y-124773713D01*
X133833125Y-124700728D01*
X134043566Y-124593503D01*
X134234643Y-124454677D01*
X134401650Y-124287670D01*
X134540476Y-124096593D01*
X134647701Y-123886152D01*
X134720686Y-123661528D01*
X134755214Y-123443528D01*
X134757633Y-123428257D01*
X134757633Y-123192062D01*
X134739828Y-123079650D01*
X134723105Y-122974062D01*
X146390633Y-122974062D01*
X146390633Y-123210257D01*
X146427579Y-123443528D01*
X146500566Y-123668156D01*
X146607790Y-123878593D01*
X146746616Y-124069670D01*
X146913623Y-124236677D01*
X147104700Y-124375503D01*
X147204124Y-124426162D01*
X147315136Y-124482726D01*
X147315138Y-124482726D01*
X147315141Y-124482728D01*
X147435545Y-124521849D01*
X147539764Y-124555713D01*
X147773036Y-124592660D01*
X147773041Y-124592660D01*
X148009230Y-124592660D01*
X148242501Y-124555713D01*
X148467125Y-124482728D01*
X148677566Y-124375503D01*
X148868643Y-124236677D01*
X149035650Y-124069670D01*
X149174476Y-123878593D01*
X149281701Y-123668152D01*
X149354686Y-123443528D01*
X149357105Y-123428257D01*
X149391633Y-123210257D01*
X149391633Y-122974062D01*
X152890633Y-122974062D01*
X152890633Y-123210257D01*
X152927579Y-123443528D01*
X153000566Y-123668156D01*
X153107790Y-123878593D01*
X153246616Y-124069670D01*
X153413623Y-124236677D01*
X153604700Y-124375503D01*
X153704124Y-124426162D01*
X153815136Y-124482726D01*
X153815138Y-124482726D01*
X153815141Y-124482728D01*
X153935545Y-124521849D01*
X154039764Y-124555713D01*
X154273036Y-124592660D01*
X154273041Y-124592660D01*
X154509230Y-124592660D01*
X154742501Y-124555713D01*
X154967125Y-124482728D01*
X155177566Y-124375503D01*
X155368643Y-124236677D01*
X155535650Y-124069670D01*
X155674476Y-123878593D01*
X155781701Y-123668152D01*
X155854686Y-123443528D01*
X155857105Y-123428257D01*
X155891633Y-123210257D01*
X155891633Y-122974062D01*
X155854686Y-122740791D01*
X155784157Y-122523727D01*
X155781701Y-122516168D01*
X155781699Y-122516165D01*
X155781699Y-122516163D01*
X155674475Y-122305726D01*
X155535650Y-122114650D01*
X155368643Y-121947643D01*
X155177566Y-121808817D01*
X154967129Y-121701593D01*
X154742501Y-121628606D01*
X154509230Y-121591660D01*
X154509225Y-121591660D01*
X154273041Y-121591660D01*
X154273036Y-121591660D01*
X154039764Y-121628606D01*
X153815136Y-121701593D01*
X153604699Y-121808817D01*
X153495683Y-121888022D01*
X153413623Y-121947643D01*
X153413621Y-121947645D01*
X153413620Y-121947645D01*
X153246618Y-122114647D01*
X153246618Y-122114648D01*
X153246616Y-122114650D01*
X153209566Y-122165645D01*
X153107790Y-122305726D01*
X153000566Y-122516163D01*
X152927579Y-122740791D01*
X152890633Y-122974062D01*
X149391633Y-122974062D01*
X149354686Y-122740791D01*
X149284157Y-122523727D01*
X149281701Y-122516168D01*
X149281699Y-122516165D01*
X149281699Y-122516163D01*
X149174475Y-122305726D01*
X149035650Y-122114650D01*
X148868643Y-121947643D01*
X148677566Y-121808817D01*
X148467129Y-121701593D01*
X148242501Y-121628606D01*
X148009230Y-121591660D01*
X148009225Y-121591660D01*
X147773041Y-121591660D01*
X147773036Y-121591660D01*
X147539764Y-121628606D01*
X147315136Y-121701593D01*
X147104699Y-121808817D01*
X146995683Y-121888022D01*
X146913623Y-121947643D01*
X146913621Y-121947645D01*
X146913620Y-121947645D01*
X146746618Y-122114647D01*
X146746618Y-122114648D01*
X146746616Y-122114650D01*
X146709566Y-122165645D01*
X146607790Y-122305726D01*
X146500566Y-122516163D01*
X146427579Y-122740791D01*
X146390633Y-122974062D01*
X134723105Y-122974062D01*
X134720686Y-122958792D01*
X134647701Y-122734168D01*
X134647699Y-122734165D01*
X134647699Y-122734163D01*
X134540475Y-122523726D01*
X134534980Y-122516163D01*
X134401650Y-122332650D01*
X134234643Y-122165643D01*
X134043566Y-122026817D01*
X133833129Y-121919593D01*
X133608501Y-121846606D01*
X133375230Y-121809660D01*
X133375225Y-121809660D01*
X133139041Y-121809660D01*
X133139036Y-121809660D01*
X132905764Y-121846606D01*
X132681136Y-121919593D01*
X132470699Y-122026817D01*
X132361683Y-122106022D01*
X132279623Y-122165643D01*
X132279621Y-122165645D01*
X132279620Y-122165645D01*
X132112618Y-122332647D01*
X132112618Y-122332648D01*
X132112616Y-122332650D01*
X132052995Y-122414710D01*
X131973790Y-122523726D01*
X131866566Y-122734163D01*
X131793579Y-122958791D01*
X131756633Y-123192062D01*
X128257633Y-123192062D01*
X128220686Y-122958791D01*
X128147699Y-122734163D01*
X128040475Y-122523726D01*
X128034980Y-122516163D01*
X127901650Y-122332650D01*
X127734643Y-122165643D01*
X127543566Y-122026817D01*
X127333129Y-121919593D01*
X127108501Y-121846606D01*
X126875230Y-121809660D01*
X126875225Y-121809660D01*
X126639041Y-121809660D01*
X126639036Y-121809660D01*
X126405764Y-121846606D01*
X126181136Y-121919593D01*
X125970699Y-122026817D01*
X125861683Y-122106022D01*
X125779623Y-122165643D01*
X125779621Y-122165645D01*
X125779620Y-122165645D01*
X125612618Y-122332647D01*
X125612618Y-122332648D01*
X125612616Y-122332650D01*
X125552995Y-122414710D01*
X125473790Y-122523726D01*
X125366566Y-122734163D01*
X125293579Y-122958791D01*
X125256633Y-123192062D01*
X123903633Y-123192062D01*
X123903633Y-120072107D01*
X197393133Y-120072107D01*
X197393133Y-120308212D01*
X197430067Y-120541407D01*
X197503030Y-120765962D01*
X197610220Y-120976334D01*
X197670471Y-121059264D01*
X197670473Y-121059265D01*
X198369345Y-120360393D01*
X198380615Y-120402452D01*
X198453023Y-120527868D01*
X198555425Y-120630270D01*
X198680841Y-120702678D01*
X198722898Y-120713947D01*
X198024026Y-121412818D01*
X198106961Y-121473074D01*
X198317330Y-121580262D01*
X198541885Y-121653225D01*
X198541884Y-121653225D01*
X198775081Y-121690160D01*
X199011185Y-121690160D01*
X199244380Y-121653225D01*
X199468935Y-121580262D01*
X199679296Y-121473078D01*
X199679302Y-121473074D01*
X199762237Y-121412818D01*
X199762238Y-121412818D01*
X199063366Y-120713947D01*
X199105425Y-120702678D01*
X199230841Y-120630270D01*
X199333243Y-120527868D01*
X199405651Y-120402452D01*
X199416920Y-120360394D01*
X200115791Y-121059265D01*
X200115791Y-121059264D01*
X200176047Y-120976329D01*
X200176051Y-120976323D01*
X200283235Y-120765962D01*
X200356198Y-120541407D01*
X200393133Y-120308212D01*
X200393133Y-120072107D01*
X203893133Y-120072107D01*
X203893133Y-120308212D01*
X203930067Y-120541407D01*
X204003030Y-120765962D01*
X204110220Y-120976334D01*
X204170471Y-121059264D01*
X204170473Y-121059265D01*
X204869345Y-120360393D01*
X204880615Y-120402452D01*
X204953023Y-120527868D01*
X205055425Y-120630270D01*
X205180841Y-120702678D01*
X205222898Y-120713947D01*
X204524026Y-121412818D01*
X204606961Y-121473074D01*
X204817330Y-121580262D01*
X205041885Y-121653225D01*
X205041884Y-121653225D01*
X205275081Y-121690160D01*
X205511185Y-121690160D01*
X205744380Y-121653225D01*
X205968935Y-121580262D01*
X206179296Y-121473078D01*
X206179302Y-121473074D01*
X206262237Y-121412818D01*
X206262238Y-121412818D01*
X205563366Y-120713947D01*
X205605425Y-120702678D01*
X205730841Y-120630270D01*
X205833243Y-120527868D01*
X205905651Y-120402452D01*
X205916920Y-120360394D01*
X206615791Y-121059265D01*
X206615791Y-121059264D01*
X206676047Y-120976329D01*
X206676051Y-120976323D01*
X206783235Y-120765962D01*
X206856198Y-120541407D01*
X206893133Y-120308212D01*
X206893133Y-120072107D01*
X206856198Y-119838912D01*
X206783235Y-119614357D01*
X206676047Y-119403988D01*
X206615791Y-119321054D01*
X206615791Y-119321053D01*
X205916920Y-120019925D01*
X205905651Y-119977868D01*
X205833243Y-119852452D01*
X205730841Y-119750050D01*
X205605425Y-119677642D01*
X205563367Y-119666372D01*
X206262238Y-118967500D01*
X206262237Y-118967498D01*
X206179307Y-118907247D01*
X205968935Y-118800057D01*
X205744380Y-118727094D01*
X205744381Y-118727094D01*
X205511185Y-118690160D01*
X205275081Y-118690160D01*
X205041885Y-118727094D01*
X204817330Y-118800057D01*
X204606963Y-118907244D01*
X204524027Y-118967500D01*
X205222899Y-119666372D01*
X205180841Y-119677642D01*
X205055425Y-119750050D01*
X204953023Y-119852452D01*
X204880615Y-119977868D01*
X204869345Y-120019926D01*
X204170473Y-119321054D01*
X204110217Y-119403990D01*
X204003030Y-119614357D01*
X203930067Y-119838912D01*
X203893133Y-120072107D01*
X200393133Y-120072107D01*
X200356198Y-119838912D01*
X200283235Y-119614357D01*
X200176047Y-119403988D01*
X200115791Y-119321054D01*
X200115791Y-119321053D01*
X199416920Y-120019925D01*
X199405651Y-119977868D01*
X199333243Y-119852452D01*
X199230841Y-119750050D01*
X199105425Y-119677642D01*
X199063367Y-119666372D01*
X199762238Y-118967500D01*
X199762237Y-118967499D01*
X199679307Y-118907247D01*
X199468935Y-118800057D01*
X199244380Y-118727094D01*
X199244381Y-118727094D01*
X199011185Y-118690160D01*
X198775081Y-118690160D01*
X198541885Y-118727094D01*
X198317330Y-118800057D01*
X198106963Y-118907244D01*
X198024027Y-118967500D01*
X198722899Y-119666372D01*
X198680841Y-119677642D01*
X198555425Y-119750050D01*
X198453023Y-119852452D01*
X198380615Y-119977868D01*
X198369345Y-120019925D01*
X197670473Y-119321054D01*
X197610217Y-119403990D01*
X197503030Y-119614357D01*
X197430067Y-119838912D01*
X197393133Y-120072107D01*
X123903633Y-120072107D01*
X123903633Y-117532107D01*
X135925133Y-117532107D01*
X135925133Y-117768212D01*
X135962067Y-118001407D01*
X136035030Y-118225962D01*
X136142220Y-118436334D01*
X136202471Y-118519264D01*
X136202473Y-118519265D01*
X136901345Y-117820393D01*
X136912615Y-117862452D01*
X136985023Y-117987868D01*
X137087425Y-118090270D01*
X137212841Y-118162678D01*
X137254898Y-118173947D01*
X136556026Y-118872818D01*
X136638961Y-118933074D01*
X136849330Y-119040262D01*
X137073885Y-119113225D01*
X137073884Y-119113225D01*
X137307081Y-119150160D01*
X137543185Y-119150160D01*
X137776380Y-119113225D01*
X138000935Y-119040262D01*
X138211296Y-118933078D01*
X138211302Y-118933074D01*
X138294237Y-118872818D01*
X138294238Y-118872818D01*
X137595366Y-118173947D01*
X137637425Y-118162678D01*
X137762841Y-118090270D01*
X137865243Y-117987868D01*
X137937651Y-117862452D01*
X137948920Y-117820394D01*
X138647791Y-118519265D01*
X138647791Y-118519264D01*
X138708047Y-118436329D01*
X138708051Y-118436323D01*
X138815235Y-118225962D01*
X138888198Y-118001407D01*
X138925133Y-117768212D01*
X138925133Y-117532107D01*
X142425133Y-117532107D01*
X142425133Y-117768212D01*
X142462067Y-118001407D01*
X142535030Y-118225962D01*
X142642220Y-118436334D01*
X142702471Y-118519264D01*
X142702473Y-118519265D01*
X143401345Y-117820393D01*
X143412615Y-117862452D01*
X143485023Y-117987868D01*
X143587425Y-118090270D01*
X143712841Y-118162678D01*
X143754898Y-118173947D01*
X143056026Y-118872818D01*
X143138961Y-118933074D01*
X143349330Y-119040262D01*
X143573885Y-119113225D01*
X143573884Y-119113225D01*
X143807081Y-119150160D01*
X144043185Y-119150160D01*
X144276380Y-119113225D01*
X144500935Y-119040262D01*
X144711296Y-118933078D01*
X144711302Y-118933074D01*
X144736950Y-118914441D01*
X144794237Y-118872818D01*
X144794238Y-118872818D01*
X144095366Y-118173947D01*
X144137425Y-118162678D01*
X144262841Y-118090270D01*
X144365243Y-117987868D01*
X144437651Y-117862452D01*
X144448920Y-117820394D01*
X145147791Y-118519265D01*
X145147791Y-118519264D01*
X145208047Y-118436329D01*
X145208051Y-118436323D01*
X145315235Y-118225962D01*
X145388198Y-118001407D01*
X145425133Y-117768212D01*
X145425133Y-117532107D01*
X145388198Y-117298912D01*
X145315235Y-117074357D01*
X145208047Y-116863988D01*
X145147791Y-116781054D01*
X145147791Y-116781053D01*
X144448920Y-117479925D01*
X144437651Y-117437868D01*
X144365243Y-117312452D01*
X144262841Y-117210050D01*
X144137425Y-117137642D01*
X144095367Y-117126372D01*
X144794238Y-116427500D01*
X144794237Y-116427498D01*
X144711307Y-116367247D01*
X144500935Y-116260057D01*
X144276380Y-116187094D01*
X144276381Y-116187094D01*
X144043185Y-116150160D01*
X143807081Y-116150160D01*
X143573885Y-116187094D01*
X143349330Y-116260057D01*
X143138963Y-116367244D01*
X143056027Y-116427500D01*
X143754899Y-117126372D01*
X143712841Y-117137642D01*
X143587425Y-117210050D01*
X143485023Y-117312452D01*
X143412615Y-117437868D01*
X143401345Y-117479926D01*
X142702473Y-116781054D01*
X142642217Y-116863990D01*
X142535030Y-117074357D01*
X142462067Y-117298912D01*
X142425133Y-117532107D01*
X138925133Y-117532107D01*
X138888198Y-117298912D01*
X138815235Y-117074357D01*
X138708047Y-116863988D01*
X138647791Y-116781054D01*
X138647791Y-116781053D01*
X137948920Y-117479925D01*
X137937651Y-117437868D01*
X137865243Y-117312452D01*
X137762841Y-117210050D01*
X137637425Y-117137642D01*
X137595367Y-117126372D01*
X138294238Y-116427500D01*
X138294237Y-116427499D01*
X138211307Y-116367247D01*
X138000935Y-116260057D01*
X137776380Y-116187094D01*
X137776381Y-116187094D01*
X137543185Y-116150160D01*
X137307081Y-116150160D01*
X137073885Y-116187094D01*
X136849330Y-116260057D01*
X136638963Y-116367244D01*
X136556027Y-116427500D01*
X137254899Y-117126372D01*
X137212841Y-117137642D01*
X137087425Y-117210050D01*
X136985023Y-117312452D01*
X136912615Y-117437868D01*
X136901345Y-117479926D01*
X136202473Y-116781054D01*
X136142217Y-116863990D01*
X136035030Y-117074357D01*
X135962067Y-117298912D01*
X135925133Y-117532107D01*
X123903633Y-117532107D01*
X123903633Y-115572062D01*
X197392633Y-115572062D01*
X197392633Y-115808257D01*
X197429579Y-116041528D01*
X197502566Y-116266156D01*
X197554075Y-116367247D01*
X197609790Y-116476593D01*
X197748616Y-116667670D01*
X197915623Y-116834677D01*
X198106700Y-116973503D01*
X198206124Y-117024162D01*
X198317136Y-117080726D01*
X198317138Y-117080726D01*
X198317141Y-117080728D01*
X198437545Y-117119849D01*
X198541764Y-117153713D01*
X198775036Y-117190660D01*
X198775041Y-117190660D01*
X199011230Y-117190660D01*
X199244501Y-117153713D01*
X199293962Y-117137642D01*
X199469125Y-117080728D01*
X199679566Y-116973503D01*
X199870643Y-116834677D01*
X200037650Y-116667670D01*
X200176476Y-116476593D01*
X200283701Y-116266152D01*
X200356686Y-116041528D01*
X200393633Y-115808257D01*
X200393633Y-115572062D01*
X203892633Y-115572062D01*
X203892633Y-115808257D01*
X203929579Y-116041528D01*
X204002566Y-116266156D01*
X204054075Y-116367247D01*
X204109790Y-116476593D01*
X204248616Y-116667670D01*
X204415623Y-116834677D01*
X204606700Y-116973503D01*
X204706124Y-117024162D01*
X204817136Y-117080726D01*
X204817138Y-117080726D01*
X204817141Y-117080728D01*
X204937545Y-117119849D01*
X205041764Y-117153713D01*
X205275036Y-117190660D01*
X205275041Y-117190660D01*
X205511230Y-117190660D01*
X205744501Y-117153713D01*
X205793962Y-117137642D01*
X205969125Y-117080728D01*
X206179566Y-116973503D01*
X206370643Y-116834677D01*
X206537650Y-116667670D01*
X206676476Y-116476593D01*
X206783701Y-116266152D01*
X206856686Y-116041528D01*
X206893633Y-115808257D01*
X206893633Y-115572062D01*
X206856686Y-115338791D01*
X206783699Y-115114163D01*
X206676475Y-114903726D01*
X206537650Y-114712650D01*
X206370643Y-114545643D01*
X206179566Y-114406817D01*
X205969129Y-114299593D01*
X205744501Y-114226606D01*
X205511230Y-114189660D01*
X205511225Y-114189660D01*
X205275041Y-114189660D01*
X205275036Y-114189660D01*
X205041764Y-114226606D01*
X204817136Y-114299593D01*
X204606699Y-114406817D01*
X204497683Y-114486022D01*
X204415623Y-114545643D01*
X204415621Y-114545645D01*
X204415620Y-114545645D01*
X204248618Y-114712647D01*
X204248618Y-114712648D01*
X204248616Y-114712650D01*
X204188995Y-114794710D01*
X204109790Y-114903726D01*
X204002566Y-115114163D01*
X203929579Y-115338791D01*
X203892633Y-115572062D01*
X200393633Y-115572062D01*
X200356686Y-115338791D01*
X200283699Y-115114163D01*
X200176475Y-114903726D01*
X200037650Y-114712650D01*
X199870643Y-114545643D01*
X199679566Y-114406817D01*
X199469129Y-114299593D01*
X199244501Y-114226606D01*
X199011230Y-114189660D01*
X199011225Y-114189660D01*
X198775041Y-114189660D01*
X198775036Y-114189660D01*
X198541764Y-114226606D01*
X198317136Y-114299593D01*
X198106699Y-114406817D01*
X197997683Y-114486022D01*
X197915623Y-114545643D01*
X197915621Y-114545645D01*
X197915620Y-114545645D01*
X197748618Y-114712647D01*
X197748618Y-114712648D01*
X197748616Y-114712650D01*
X197688995Y-114794710D01*
X197609790Y-114903726D01*
X197502566Y-115114163D01*
X197429579Y-115338791D01*
X197392633Y-115572062D01*
X123903633Y-115572062D01*
X123903633Y-113032062D01*
X135924633Y-113032062D01*
X135924633Y-113268257D01*
X135961579Y-113501528D01*
X136034566Y-113726156D01*
X136141790Y-113936593D01*
X136280616Y-114127670D01*
X136447623Y-114294677D01*
X136638700Y-114433503D01*
X136738124Y-114484162D01*
X136849136Y-114540726D01*
X136849138Y-114540726D01*
X136849141Y-114540728D01*
X136969545Y-114579849D01*
X137073764Y-114613713D01*
X137307036Y-114650660D01*
X137307041Y-114650660D01*
X137543230Y-114650660D01*
X137776501Y-114613713D01*
X138001125Y-114540728D01*
X138211566Y-114433503D01*
X138402643Y-114294677D01*
X138569650Y-114127670D01*
X138708476Y-113936593D01*
X138815701Y-113726152D01*
X138888686Y-113501528D01*
X138925633Y-113268257D01*
X138925633Y-113032062D01*
X142424633Y-113032062D01*
X142424633Y-113268257D01*
X142461579Y-113501528D01*
X142534566Y-113726156D01*
X142641790Y-113936593D01*
X142780616Y-114127670D01*
X142947623Y-114294677D01*
X143138700Y-114433503D01*
X143238124Y-114484162D01*
X143349136Y-114540726D01*
X143349138Y-114540726D01*
X143349141Y-114540728D01*
X143469545Y-114579849D01*
X143573764Y-114613713D01*
X143807036Y-114650660D01*
X143807041Y-114650660D01*
X144043230Y-114650660D01*
X144276501Y-114613713D01*
X144501125Y-114540728D01*
X144711566Y-114433503D01*
X144902643Y-114294677D01*
X145069650Y-114127670D01*
X145208476Y-113936593D01*
X145315701Y-113726152D01*
X145388686Y-113501528D01*
X145425633Y-113268257D01*
X145425633Y-113032062D01*
X145388686Y-112798791D01*
X145315699Y-112574163D01*
X145208475Y-112363726D01*
X145207637Y-112362572D01*
X145069650Y-112172650D01*
X144902643Y-112005643D01*
X144711566Y-111866817D01*
X144501129Y-111759593D01*
X144276501Y-111686606D01*
X144043230Y-111649660D01*
X144043225Y-111649660D01*
X143807041Y-111649660D01*
X143807036Y-111649660D01*
X143573764Y-111686606D01*
X143349136Y-111759593D01*
X143138699Y-111866817D01*
X143079283Y-111909986D01*
X142947623Y-112005643D01*
X142947621Y-112005645D01*
X142947620Y-112005645D01*
X142780618Y-112172647D01*
X142780618Y-112172648D01*
X142780616Y-112172650D01*
X142728589Y-112244259D01*
X142641790Y-112363726D01*
X142534566Y-112574163D01*
X142461579Y-112798791D01*
X142424633Y-113032062D01*
X138925633Y-113032062D01*
X138888686Y-112798791D01*
X138815699Y-112574163D01*
X138708475Y-112363726D01*
X138707637Y-112362572D01*
X138569650Y-112172650D01*
X138402643Y-112005643D01*
X138211566Y-111866817D01*
X138001129Y-111759593D01*
X137776501Y-111686606D01*
X137543230Y-111649660D01*
X137543225Y-111649660D01*
X137307041Y-111649660D01*
X137307036Y-111649660D01*
X137073764Y-111686606D01*
X136849136Y-111759593D01*
X136638699Y-111866817D01*
X136579283Y-111909986D01*
X136447623Y-112005643D01*
X136447621Y-112005645D01*
X136447620Y-112005645D01*
X136280618Y-112172647D01*
X136280618Y-112172648D01*
X136280616Y-112172650D01*
X136228589Y-112244259D01*
X136141790Y-112363726D01*
X136034566Y-112574163D01*
X135961579Y-112798791D01*
X135924633Y-113032062D01*
X123903633Y-113032062D01*
X123903633Y-110946315D01*
X170313133Y-110946315D01*
X170313133Y-111594160D01*
X171230121Y-111594160D01*
X171197208Y-111651167D01*
X171163133Y-111778334D01*
X171163133Y-111909986D01*
X171197208Y-112037153D01*
X171230121Y-112094160D01*
X170313133Y-112094160D01*
X170313133Y-112742004D01*
X170319534Y-112801532D01*
X170319536Y-112801539D01*
X170369778Y-112936246D01*
X170369782Y-112936253D01*
X170455942Y-113051347D01*
X170455945Y-113051350D01*
X170571039Y-113137510D01*
X170571046Y-113137514D01*
X170705753Y-113187756D01*
X170705760Y-113187758D01*
X170765288Y-113194159D01*
X170765305Y-113194160D01*
X171413133Y-113194160D01*
X171413133Y-112277172D01*
X171470140Y-112310085D01*
X171597307Y-112344160D01*
X171728959Y-112344160D01*
X171856126Y-112310085D01*
X171913133Y-112277172D01*
X171913133Y-113194160D01*
X172560961Y-113194160D01*
X172560977Y-113194159D01*
X172620505Y-113187758D01*
X172620512Y-113187756D01*
X172755219Y-113137514D01*
X172755226Y-113137510D01*
X172870320Y-113051350D01*
X172870323Y-113051347D01*
X172956483Y-112936253D01*
X172956487Y-112936246D01*
X173005555Y-112804689D01*
X173047426Y-112748755D01*
X173112890Y-112724338D01*
X173181163Y-112739190D01*
X173209418Y-112760341D01*
X173323346Y-112874269D01*
X173495312Y-112999208D01*
X173495314Y-112999209D01*
X173495317Y-112999211D01*
X173684721Y-113095717D01*
X173886890Y-113161406D01*
X174096846Y-113194660D01*
X174096847Y-113194660D01*
X174309419Y-113194660D01*
X174309420Y-113194660D01*
X174519376Y-113161406D01*
X174721545Y-113095717D01*
X174910949Y-112999211D01*
X174997604Y-112936253D01*
X175082919Y-112874269D01*
X175082921Y-112874266D01*
X175082925Y-112874264D01*
X175233237Y-112723952D01*
X175233239Y-112723948D01*
X175233242Y-112723946D01*
X175358181Y-112551980D01*
X175358180Y-112551980D01*
X175358184Y-112551976D01*
X175362647Y-112543214D01*
X175410621Y-112492419D01*
X175478441Y-112475623D01*
X175544577Y-112498159D01*
X175583619Y-112543216D01*
X175588084Y-112551980D01*
X175713023Y-112723946D01*
X175863346Y-112874269D01*
X176035312Y-112999208D01*
X176035314Y-112999209D01*
X176035317Y-112999211D01*
X176224721Y-113095717D01*
X176426890Y-113161406D01*
X176636846Y-113194660D01*
X176636847Y-113194660D01*
X176849419Y-113194660D01*
X176849420Y-113194660D01*
X177059376Y-113161406D01*
X177261545Y-113095717D01*
X177450949Y-112999211D01*
X177537604Y-112936253D01*
X177622919Y-112874269D01*
X177622921Y-112874266D01*
X177622925Y-112874264D01*
X177773237Y-112723952D01*
X177773239Y-112723948D01*
X177773242Y-112723946D01*
X177898181Y-112551980D01*
X177898180Y-112551980D01*
X177898184Y-112551976D01*
X177902647Y-112543214D01*
X177950621Y-112492419D01*
X178018441Y-112475623D01*
X178084577Y-112498159D01*
X178123619Y-112543216D01*
X178128084Y-112551980D01*
X178253023Y-112723946D01*
X178403346Y-112874269D01*
X178575312Y-112999208D01*
X178575314Y-112999209D01*
X178575317Y-112999211D01*
X178764721Y-113095717D01*
X178966890Y-113161406D01*
X179176846Y-113194660D01*
X179176847Y-113194660D01*
X179389419Y-113194660D01*
X179389420Y-113194660D01*
X179599376Y-113161406D01*
X179801545Y-113095717D01*
X179990949Y-112999211D01*
X180077604Y-112936253D01*
X180162919Y-112874269D01*
X180162921Y-112874266D01*
X180162925Y-112874264D01*
X180313237Y-112723952D01*
X180313239Y-112723948D01*
X180313242Y-112723946D01*
X180438181Y-112551980D01*
X180438180Y-112551980D01*
X180438184Y-112551976D01*
X180534690Y-112362572D01*
X180600379Y-112160403D01*
X180633633Y-111950447D01*
X180633633Y-111737873D01*
X180600379Y-111527917D01*
X180534690Y-111325748D01*
X180438184Y-111136344D01*
X180438182Y-111136341D01*
X180438181Y-111136339D01*
X180313242Y-110964373D01*
X180162919Y-110814050D01*
X179990953Y-110689111D01*
X179801547Y-110592604D01*
X179801546Y-110592603D01*
X179801545Y-110592603D01*
X179599376Y-110526914D01*
X179599374Y-110526913D01*
X179599373Y-110526913D01*
X179438090Y-110501368D01*
X179389420Y-110493660D01*
X179176846Y-110493660D01*
X179128175Y-110501368D01*
X178966893Y-110526913D01*
X178764718Y-110592604D01*
X178575312Y-110689111D01*
X178403346Y-110814050D01*
X178253023Y-110964373D01*
X178128082Y-111136342D01*
X178123617Y-111145106D01*
X178075642Y-111195902D01*
X178007821Y-111212696D01*
X177941686Y-111190158D01*
X177902649Y-111145106D01*
X177898183Y-111136342D01*
X177773242Y-110964373D01*
X177622919Y-110814050D01*
X177450953Y-110689111D01*
X177261547Y-110592604D01*
X177261546Y-110592603D01*
X177261545Y-110592603D01*
X177059376Y-110526914D01*
X177059374Y-110526913D01*
X177059373Y-110526913D01*
X176898090Y-110501368D01*
X176849420Y-110493660D01*
X176636846Y-110493660D01*
X176588175Y-110501368D01*
X176426893Y-110526913D01*
X176224718Y-110592604D01*
X176035312Y-110689111D01*
X175863346Y-110814050D01*
X175713023Y-110964373D01*
X175588082Y-111136342D01*
X175583617Y-111145106D01*
X175535642Y-111195902D01*
X175467821Y-111212696D01*
X175401686Y-111190158D01*
X175362649Y-111145106D01*
X175358183Y-111136342D01*
X175233242Y-110964373D01*
X175082919Y-110814050D01*
X174910953Y-110689111D01*
X174721547Y-110592604D01*
X174721546Y-110592603D01*
X174721545Y-110592603D01*
X174519376Y-110526914D01*
X174519374Y-110526913D01*
X174519373Y-110526913D01*
X174358090Y-110501368D01*
X174309420Y-110493660D01*
X174096846Y-110493660D01*
X174048175Y-110501368D01*
X173886893Y-110526913D01*
X173684718Y-110592604D01*
X173495312Y-110689111D01*
X173323348Y-110814049D01*
X173209418Y-110927979D01*
X173148095Y-110961463D01*
X173078403Y-110956479D01*
X173022470Y-110914607D01*
X173005555Y-110883630D01*
X172956487Y-110752073D01*
X172956483Y-110752066D01*
X172870323Y-110636972D01*
X172870320Y-110636969D01*
X172755226Y-110550809D01*
X172755219Y-110550805D01*
X172620512Y-110500563D01*
X172620505Y-110500561D01*
X172560977Y-110494160D01*
X171913133Y-110494160D01*
X171913133Y-111411148D01*
X171856126Y-111378235D01*
X171728959Y-111344160D01*
X171597307Y-111344160D01*
X171470140Y-111378235D01*
X171413133Y-111411148D01*
X171413133Y-110494160D01*
X170765288Y-110494160D01*
X170705760Y-110500561D01*
X170705753Y-110500563D01*
X170571046Y-110550805D01*
X170571039Y-110550809D01*
X170455945Y-110636969D01*
X170455942Y-110636972D01*
X170369782Y-110752066D01*
X170369778Y-110752073D01*
X170319536Y-110886780D01*
X170319534Y-110886787D01*
X170313133Y-110946315D01*
X123903633Y-110946315D01*
X123903633Y-105077153D01*
X131787500Y-105077153D01*
X131787500Y-105234846D01*
X131818261Y-105389489D01*
X131818264Y-105389501D01*
X131878602Y-105535172D01*
X131878609Y-105535185D01*
X131966210Y-105666288D01*
X131966213Y-105666292D01*
X132077707Y-105777786D01*
X132077711Y-105777789D01*
X132208814Y-105865390D01*
X132208827Y-105865397D01*
X132323113Y-105912735D01*
X132354503Y-105925737D01*
X132418656Y-105938498D01*
X132509849Y-105956638D01*
X132526605Y-105965402D01*
X132545085Y-105969423D01*
X132570123Y-105988167D01*
X132571760Y-105989023D01*
X132573339Y-105990574D01*
X132611139Y-106028374D01*
X132611149Y-106028385D01*
X132615479Y-106032715D01*
X132615480Y-106032716D01*
X132727284Y-106144520D01*
X132727286Y-106144521D01*
X132727290Y-106144524D01*
X132864209Y-106223573D01*
X132864216Y-106223577D01*
X132965971Y-106250842D01*
X133016942Y-106264500D01*
X133016943Y-106264500D01*
X133277367Y-106264500D01*
X133344406Y-106284185D01*
X133346258Y-106285398D01*
X133477947Y-106373390D01*
X133477960Y-106373397D01*
X133590141Y-106419863D01*
X133623636Y-106433737D01*
X133778286Y-106464499D01*
X133778289Y-106464500D01*
X133778291Y-106464500D01*
X133935977Y-106464500D01*
X133935978Y-106464499D01*
X134090630Y-106433737D01*
X134236312Y-106373394D01*
X134367422Y-106285789D01*
X134478922Y-106174289D01*
X134566527Y-106043179D01*
X134626870Y-105897497D01*
X134657633Y-105742842D01*
X134657633Y-105585158D01*
X134657633Y-105585155D01*
X134657632Y-105585153D01*
X134650682Y-105550213D01*
X134626870Y-105430503D01*
X134609882Y-105389489D01*
X134566530Y-105284827D01*
X134566523Y-105284814D01*
X134478922Y-105153711D01*
X134478919Y-105153707D01*
X134367425Y-105042213D01*
X134367421Y-105042210D01*
X134236318Y-104954609D01*
X134236305Y-104954602D01*
X134090634Y-104894264D01*
X134090622Y-104894261D01*
X133935978Y-104863500D01*
X133935975Y-104863500D01*
X133778291Y-104863500D01*
X133778288Y-104863500D01*
X133623643Y-104894261D01*
X133623631Y-104894264D01*
X133501253Y-104944955D01*
X133431784Y-104952424D01*
X133369305Y-104921149D01*
X133339240Y-104877846D01*
X133297397Y-104776827D01*
X133297390Y-104776814D01*
X133209789Y-104645711D01*
X133209786Y-104645707D01*
X133098292Y-104534213D01*
X133098288Y-104534210D01*
X132967185Y-104446609D01*
X132967172Y-104446602D01*
X132821501Y-104386264D01*
X132821489Y-104386261D01*
X132666845Y-104355500D01*
X132666842Y-104355500D01*
X132509158Y-104355500D01*
X132509155Y-104355500D01*
X132354510Y-104386261D01*
X132354498Y-104386264D01*
X132208827Y-104446602D01*
X132208814Y-104446609D01*
X132077711Y-104534210D01*
X132077707Y-104534213D01*
X131966213Y-104645707D01*
X131966210Y-104645711D01*
X131878609Y-104776814D01*
X131878602Y-104776827D01*
X131818264Y-104922498D01*
X131818261Y-104922510D01*
X131787500Y-105077153D01*
X123903633Y-105077153D01*
X123903633Y-102537153D01*
X131187500Y-102537153D01*
X131187500Y-102694846D01*
X131218261Y-102849489D01*
X131218264Y-102849501D01*
X131278602Y-102995172D01*
X131278609Y-102995185D01*
X131366210Y-103126288D01*
X131366213Y-103126292D01*
X131477707Y-103237786D01*
X131477711Y-103237789D01*
X131608814Y-103325390D01*
X131608827Y-103325397D01*
X131754498Y-103385735D01*
X131754503Y-103385737D01*
X131819147Y-103398595D01*
X131909849Y-103416638D01*
X131926605Y-103425402D01*
X131945085Y-103429423D01*
X131970123Y-103448167D01*
X131971760Y-103449023D01*
X131973339Y-103450574D01*
X132011139Y-103488374D01*
X132011149Y-103488385D01*
X132015479Y-103492715D01*
X132015480Y-103492716D01*
X132127284Y-103604520D01*
X132127286Y-103604521D01*
X132127290Y-103604524D01*
X132264209Y-103683573D01*
X132264216Y-103683577D01*
X132376019Y-103713534D01*
X132416942Y-103724500D01*
X132416943Y-103724500D01*
X134248072Y-103724500D01*
X134315111Y-103744185D01*
X134360866Y-103796989D01*
X134370810Y-103866147D01*
X134362633Y-103895952D01*
X134358264Y-103906498D01*
X134358261Y-103906510D01*
X134327500Y-104061153D01*
X134327500Y-104218846D01*
X134358261Y-104373489D01*
X134358264Y-104373501D01*
X134418602Y-104519172D01*
X134418609Y-104519185D01*
X134506210Y-104650288D01*
X134506213Y-104650292D01*
X134617707Y-104761786D01*
X134617711Y-104761789D01*
X134748814Y-104849390D01*
X134748827Y-104849397D01*
X134894498Y-104909735D01*
X134894503Y-104909737D01*
X134951875Y-104921149D01*
X135049849Y-104940638D01*
X135066605Y-104949402D01*
X135085085Y-104953423D01*
X135110123Y-104972167D01*
X135111760Y-104973023D01*
X135113339Y-104974574D01*
X135151139Y-105012374D01*
X135151149Y-105012385D01*
X135155479Y-105016715D01*
X135155480Y-105016716D01*
X135267284Y-105128520D01*
X135267286Y-105128521D01*
X135267290Y-105128524D01*
X135362475Y-105183478D01*
X135404216Y-105207577D01*
X135505971Y-105234842D01*
X135556942Y-105248500D01*
X135556943Y-105248500D01*
X136164234Y-105248500D01*
X136231273Y-105268185D01*
X136233125Y-105269398D01*
X136364814Y-105357390D01*
X136364827Y-105357397D01*
X136510498Y-105417735D01*
X136510503Y-105417737D01*
X136638373Y-105443172D01*
X136665153Y-105448499D01*
X136665156Y-105448500D01*
X136665158Y-105448500D01*
X136822844Y-105448500D01*
X136822845Y-105448499D01*
X136977497Y-105417737D01*
X137123179Y-105357394D01*
X137254289Y-105269789D01*
X137365789Y-105158289D01*
X137453394Y-105027179D01*
X137453395Y-105027176D01*
X137453397Y-105027173D01*
X137470802Y-104985153D01*
X148551500Y-104985153D01*
X148551500Y-105142846D01*
X148582261Y-105297489D01*
X148582264Y-105297501D01*
X148642602Y-105443172D01*
X148642609Y-105443185D01*
X148730210Y-105574288D01*
X148730213Y-105574292D01*
X148841707Y-105685786D01*
X148841711Y-105685789D01*
X148972814Y-105773390D01*
X148972827Y-105773397D01*
X149118498Y-105833735D01*
X149118503Y-105833737D01*
X149228987Y-105855713D01*
X149251691Y-105860230D01*
X149313602Y-105892615D01*
X149348176Y-105953330D01*
X149351500Y-105981847D01*
X149351500Y-106700234D01*
X149331815Y-106767273D01*
X149330602Y-106769125D01*
X149242609Y-106900814D01*
X149242602Y-106900827D01*
X149182264Y-107046498D01*
X149182261Y-107046510D01*
X149151500Y-107201153D01*
X149151500Y-107358846D01*
X149182261Y-107513489D01*
X149182264Y-107513501D01*
X149242602Y-107659172D01*
X149242609Y-107659185D01*
X149330210Y-107790288D01*
X149330213Y-107790292D01*
X149441707Y-107901786D01*
X149441711Y-107901789D01*
X149572814Y-107989390D01*
X149572827Y-107989397D01*
X149677765Y-108032863D01*
X149718503Y-108049737D01*
X149846373Y-108075172D01*
X149873153Y-108080499D01*
X149873156Y-108080500D01*
X149873158Y-108080500D01*
X150030844Y-108080500D01*
X150030845Y-108080499D01*
X150185497Y-108049737D01*
X150331179Y-107989394D01*
X150462289Y-107901789D01*
X150573789Y-107790289D01*
X150661394Y-107659179D01*
X150721737Y-107513497D01*
X150752500Y-107358842D01*
X150752500Y-107201158D01*
X150752500Y-107201155D01*
X150752499Y-107201153D01*
X150731479Y-107095480D01*
X150721737Y-107046503D01*
X150704556Y-107005023D01*
X150661397Y-106900827D01*
X150661390Y-106900814D01*
X150573398Y-106769125D01*
X150552520Y-106702447D01*
X150552500Y-106700234D01*
X150552500Y-105594278D01*
X150552500Y-105585153D01*
X174459500Y-105585153D01*
X174459500Y-105742846D01*
X174490261Y-105897489D01*
X174490264Y-105897501D01*
X174550602Y-106043172D01*
X174550609Y-106043185D01*
X174638210Y-106174288D01*
X174638213Y-106174292D01*
X174749707Y-106285786D01*
X174749711Y-106285789D01*
X174880814Y-106373390D01*
X174880827Y-106373397D01*
X174993008Y-106419863D01*
X175026503Y-106433737D01*
X175091147Y-106446595D01*
X175181849Y-106464638D01*
X175243760Y-106497023D01*
X175245339Y-106498574D01*
X177823139Y-109076374D01*
X177823149Y-109076385D01*
X177827479Y-109080715D01*
X177827480Y-109080716D01*
X177939284Y-109192520D01*
X177990845Y-109222288D01*
X178026095Y-109242639D01*
X178026097Y-109242641D01*
X178064151Y-109264611D01*
X178076215Y-109271577D01*
X178228943Y-109312501D01*
X178228946Y-109312501D01*
X178394653Y-109312501D01*
X178394669Y-109312500D01*
X179252234Y-109312500D01*
X179319273Y-109332185D01*
X179321125Y-109333398D01*
X179452814Y-109421390D01*
X179452827Y-109421397D01*
X179598498Y-109481735D01*
X179598503Y-109481737D01*
X179753153Y-109512499D01*
X179753156Y-109512500D01*
X179753158Y-109512500D01*
X179910844Y-109512500D01*
X179910845Y-109512499D01*
X180065497Y-109481737D01*
X180211179Y-109421394D01*
X180342289Y-109333789D01*
X180453789Y-109222289D01*
X180541394Y-109091179D01*
X180601737Y-108945497D01*
X180632500Y-108790842D01*
X180632500Y-108633158D01*
X180632500Y-108633155D01*
X180632499Y-108633153D01*
X180605317Y-108496500D01*
X180601737Y-108478503D01*
X180571456Y-108405397D01*
X180541397Y-108332827D01*
X180541390Y-108332814D01*
X180453789Y-108201711D01*
X180453786Y-108201707D01*
X180342292Y-108090213D01*
X180342288Y-108090210D01*
X180286752Y-108053102D01*
X180241947Y-107999490D01*
X180233240Y-107930165D01*
X180263394Y-107867137D01*
X180286752Y-107846898D01*
X180304779Y-107834852D01*
X180342289Y-107809789D01*
X180453789Y-107698289D01*
X180508002Y-107617153D01*
X199899500Y-107617153D01*
X199899500Y-107774846D01*
X199930261Y-107929489D01*
X199930264Y-107929501D01*
X199990602Y-108075172D01*
X199990607Y-108075181D01*
X200078210Y-108206288D01*
X200078213Y-108206292D01*
X200189707Y-108317786D01*
X200189711Y-108317789D01*
X200320814Y-108405390D01*
X200320827Y-108405397D01*
X200466498Y-108465735D01*
X200466503Y-108465737D01*
X200621153Y-108496499D01*
X200621156Y-108496500D01*
X200621158Y-108496500D01*
X200778844Y-108496500D01*
X200778845Y-108496499D01*
X200933497Y-108465737D01*
X201079179Y-108405394D01*
X201079185Y-108405390D01*
X201210875Y-108317398D01*
X201277553Y-108296520D01*
X201279766Y-108296500D01*
X201604234Y-108296500D01*
X201671273Y-108316185D01*
X201673125Y-108317398D01*
X201804814Y-108405390D01*
X201804827Y-108405397D01*
X201950498Y-108465735D01*
X201950503Y-108465737D01*
X202105153Y-108496499D01*
X202105156Y-108496500D01*
X202105158Y-108496500D01*
X202262844Y-108496500D01*
X202262845Y-108496499D01*
X202417497Y-108465737D01*
X202563179Y-108405394D01*
X202694289Y-108317789D01*
X202805789Y-108206289D01*
X202889839Y-108080500D01*
X202893393Y-108075181D01*
X202893397Y-108075172D01*
X202953735Y-107929501D01*
X202953737Y-107929497D01*
X202984500Y-107774842D01*
X202984500Y-107617158D01*
X202984500Y-107617155D01*
X202984499Y-107617153D01*
X202973850Y-107563616D01*
X202953737Y-107462503D01*
X202936749Y-107421489D01*
X202893397Y-107316827D01*
X202893390Y-107316814D01*
X202805789Y-107185711D01*
X202805786Y-107185707D01*
X202694292Y-107074213D01*
X202694288Y-107074210D01*
X202563185Y-106986609D01*
X202563172Y-106986602D01*
X202417501Y-106926264D01*
X202417489Y-106926261D01*
X202262845Y-106895500D01*
X202262842Y-106895500D01*
X202105158Y-106895500D01*
X202105155Y-106895500D01*
X201950510Y-106926261D01*
X201950498Y-106926264D01*
X201804827Y-106986602D01*
X201804814Y-106986609D01*
X201673125Y-107074602D01*
X201606447Y-107095480D01*
X201604234Y-107095500D01*
X201279766Y-107095500D01*
X201212727Y-107075815D01*
X201210875Y-107074602D01*
X201079185Y-106986609D01*
X201079172Y-106986602D01*
X200933501Y-106926264D01*
X200933489Y-106926261D01*
X200778845Y-106895500D01*
X200778842Y-106895500D01*
X200621158Y-106895500D01*
X200621155Y-106895500D01*
X200466510Y-106926261D01*
X200466498Y-106926264D01*
X200320827Y-106986602D01*
X200320814Y-106986609D01*
X200189711Y-107074210D01*
X200189707Y-107074213D01*
X200078213Y-107185707D01*
X200078210Y-107185711D01*
X199990609Y-107316814D01*
X199990602Y-107316827D01*
X199930264Y-107462498D01*
X199930261Y-107462510D01*
X199899500Y-107617153D01*
X180508002Y-107617153D01*
X180541394Y-107567179D01*
X180547527Y-107552374D01*
X180601735Y-107421501D01*
X180601737Y-107421497D01*
X180632500Y-107266842D01*
X180632500Y-107109158D01*
X180632500Y-107109155D01*
X180632499Y-107109153D01*
X180625549Y-107074213D01*
X180601737Y-106954503D01*
X180579504Y-106900827D01*
X180541397Y-106808827D01*
X180541390Y-106808814D01*
X180453789Y-106677711D01*
X180453786Y-106677707D01*
X180342292Y-106566213D01*
X180342288Y-106566210D01*
X180211185Y-106478609D01*
X180211172Y-106478602D01*
X180065501Y-106418264D01*
X180065489Y-106418261D01*
X179910845Y-106387500D01*
X179910842Y-106387500D01*
X179753158Y-106387500D01*
X179753155Y-106387500D01*
X179598511Y-106418260D01*
X179598502Y-106418263D01*
X179537157Y-106443672D01*
X179467688Y-106451139D01*
X179405209Y-106419863D01*
X179402026Y-106416791D01*
X179142574Y-106157339D01*
X179109089Y-106096016D01*
X179108638Y-106093849D01*
X179083887Y-105969423D01*
X179077737Y-105938503D01*
X179047456Y-105865397D01*
X179017397Y-105792827D01*
X179017390Y-105792814D01*
X178929789Y-105661711D01*
X178929786Y-105661707D01*
X178818292Y-105550213D01*
X178818288Y-105550210D01*
X178687185Y-105462609D01*
X178687172Y-105462602D01*
X178541501Y-105402264D01*
X178541489Y-105402261D01*
X178386845Y-105371500D01*
X178386842Y-105371500D01*
X178229158Y-105371500D01*
X178229155Y-105371500D01*
X178074510Y-105402261D01*
X178074498Y-105402264D01*
X177928827Y-105462602D01*
X177928814Y-105462609D01*
X177797711Y-105550210D01*
X177797707Y-105550213D01*
X177686213Y-105661707D01*
X177686210Y-105661711D01*
X177598609Y-105792814D01*
X177598602Y-105792827D01*
X177538264Y-105938498D01*
X177538261Y-105938510D01*
X177507500Y-106093153D01*
X177507500Y-106250846D01*
X177538261Y-106405489D01*
X177538264Y-106405501D01*
X177598602Y-106551172D01*
X177598609Y-106551185D01*
X177686210Y-106682288D01*
X177686213Y-106682292D01*
X177797707Y-106793786D01*
X177797711Y-106793789D01*
X177928814Y-106881390D01*
X177928827Y-106881397D01*
X178074498Y-106941735D01*
X178074503Y-106941737D01*
X178138656Y-106954498D01*
X178229849Y-106972638D01*
X178291760Y-107005023D01*
X178293339Y-107006574D01*
X178839139Y-107552374D01*
X178839149Y-107552385D01*
X178843479Y-107556715D01*
X178843480Y-107556716D01*
X178955284Y-107668520D01*
X179006845Y-107698288D01*
X179042095Y-107718639D01*
X179042097Y-107718641D01*
X179080151Y-107740611D01*
X179092215Y-107747577D01*
X179244943Y-107788501D01*
X179252236Y-107788501D01*
X179270381Y-107793829D01*
X179289290Y-107794167D01*
X179317508Y-107807667D01*
X179319275Y-107808186D01*
X179321128Y-107809399D01*
X179321709Y-107809787D01*
X179321711Y-107809789D01*
X179353919Y-107831310D01*
X179377248Y-107846898D01*
X179422052Y-107900511D01*
X179430759Y-107969836D01*
X179400604Y-108032863D01*
X179377247Y-108053102D01*
X179321125Y-108090602D01*
X179254448Y-108111480D01*
X179252234Y-108111500D01*
X178608097Y-108111500D01*
X178541058Y-108091815D01*
X178520416Y-108075181D01*
X176094574Y-105649339D01*
X176061089Y-105588016D01*
X176060638Y-105585849D01*
X176033317Y-105448500D01*
X176029737Y-105430503D01*
X176012749Y-105389489D01*
X175969397Y-105284827D01*
X175969390Y-105284814D01*
X175881789Y-105153711D01*
X175881786Y-105153707D01*
X175770292Y-105042213D01*
X175770288Y-105042210D01*
X175639185Y-104954609D01*
X175639172Y-104954602D01*
X175493501Y-104894264D01*
X175493489Y-104894261D01*
X175338845Y-104863500D01*
X175338842Y-104863500D01*
X175181158Y-104863500D01*
X175181155Y-104863500D01*
X175026510Y-104894261D01*
X175026498Y-104894264D01*
X174880827Y-104954602D01*
X174880814Y-104954609D01*
X174749711Y-105042210D01*
X174749707Y-105042213D01*
X174638213Y-105153707D01*
X174638210Y-105153711D01*
X174550609Y-105284814D01*
X174550602Y-105284827D01*
X174490264Y-105430498D01*
X174490261Y-105430510D01*
X174459500Y-105585153D01*
X150552500Y-105585153D01*
X150552500Y-105584943D01*
X150519720Y-105462606D01*
X150511577Y-105432215D01*
X150468379Y-105357394D01*
X150432520Y-105295284D01*
X150320716Y-105183480D01*
X150320715Y-105183479D01*
X150316385Y-105179149D01*
X150316374Y-105179139D01*
X150186574Y-105049339D01*
X150153089Y-104988016D01*
X150152638Y-104985849D01*
X150131154Y-104877846D01*
X150121737Y-104830503D01*
X150099504Y-104776827D01*
X150061397Y-104684827D01*
X150061390Y-104684814D01*
X149973789Y-104553711D01*
X149973786Y-104553707D01*
X149862292Y-104442213D01*
X149862288Y-104442210D01*
X149731185Y-104354609D01*
X149731172Y-104354602D01*
X149585501Y-104294264D01*
X149585489Y-104294261D01*
X149430845Y-104263500D01*
X149430842Y-104263500D01*
X149273158Y-104263500D01*
X149273155Y-104263500D01*
X149118510Y-104294261D01*
X149118498Y-104294264D01*
X148972827Y-104354602D01*
X148972814Y-104354609D01*
X148841711Y-104442210D01*
X148841707Y-104442213D01*
X148730213Y-104553707D01*
X148730210Y-104553711D01*
X148642609Y-104684814D01*
X148642602Y-104684827D01*
X148582264Y-104830498D01*
X148582261Y-104830510D01*
X148551500Y-104985153D01*
X137470802Y-104985153D01*
X137492978Y-104931614D01*
X137492978Y-104931613D01*
X137513737Y-104881497D01*
X137544500Y-104726842D01*
X137544500Y-104569158D01*
X137544500Y-104569155D01*
X137544499Y-104569153D01*
X137537549Y-104534213D01*
X137513737Y-104414503D01*
X137496749Y-104373489D01*
X137453397Y-104268827D01*
X137453390Y-104268814D01*
X137365789Y-104137711D01*
X137365786Y-104137707D01*
X137254292Y-104026213D01*
X137254288Y-104026210D01*
X137198752Y-103989102D01*
X137153947Y-103935490D01*
X137145240Y-103866165D01*
X137175394Y-103803137D01*
X137198752Y-103782898D01*
X137231792Y-103760821D01*
X137254289Y-103745789D01*
X137365789Y-103634289D01*
X137453394Y-103503179D01*
X137513737Y-103357497D01*
X137544500Y-103202842D01*
X137544500Y-103045158D01*
X137544500Y-103045155D01*
X137544499Y-103045153D01*
X137513738Y-102890510D01*
X137513737Y-102890503D01*
X137496749Y-102849489D01*
X137453397Y-102744827D01*
X137453390Y-102744814D01*
X137365789Y-102613711D01*
X137365786Y-102613707D01*
X137254292Y-102502213D01*
X137254288Y-102502210D01*
X137123185Y-102414609D01*
X137123172Y-102414602D01*
X136977501Y-102354264D01*
X136977489Y-102354261D01*
X136822845Y-102323500D01*
X136822842Y-102323500D01*
X136665158Y-102323500D01*
X136665155Y-102323500D01*
X136510510Y-102354261D01*
X136510498Y-102354264D01*
X136364827Y-102414602D01*
X136364814Y-102414609D01*
X136233125Y-102502602D01*
X136166447Y-102523480D01*
X136164234Y-102523500D01*
X132887547Y-102523500D01*
X132820508Y-102503815D01*
X132774753Y-102451011D01*
X132765930Y-102423694D01*
X132757737Y-102382503D01*
X132733297Y-102323500D01*
X132697397Y-102236827D01*
X132697390Y-102236814D01*
X132609789Y-102105711D01*
X132609786Y-102105707D01*
X132498292Y-101994213D01*
X132498288Y-101994210D01*
X132367185Y-101906609D01*
X132367172Y-101906602D01*
X132221501Y-101846264D01*
X132221489Y-101846261D01*
X132066845Y-101815500D01*
X132066842Y-101815500D01*
X131909158Y-101815500D01*
X131909155Y-101815500D01*
X131754510Y-101846261D01*
X131754498Y-101846264D01*
X131608827Y-101906602D01*
X131608814Y-101906609D01*
X131477711Y-101994210D01*
X131477707Y-101994213D01*
X131366213Y-102105707D01*
X131366210Y-102105711D01*
X131278609Y-102236814D01*
X131278602Y-102236827D01*
X131218264Y-102382498D01*
X131218261Y-102382510D01*
X131187500Y-102537153D01*
X123903633Y-102537153D01*
X123903633Y-93861947D01*
X139216000Y-93861947D01*
X139216000Y-94098052D01*
X139252934Y-94331247D01*
X139325897Y-94555802D01*
X139433087Y-94766174D01*
X139493338Y-94849104D01*
X139493340Y-94849105D01*
X140224871Y-94117574D01*
X140240755Y-94176853D01*
X140307898Y-94293147D01*
X140402853Y-94388102D01*
X140519147Y-94455245D01*
X140578425Y-94471128D01*
X139846893Y-95202658D01*
X139929828Y-95262914D01*
X140140197Y-95370102D01*
X140364752Y-95443065D01*
X140364751Y-95443065D01*
X140597948Y-95480000D01*
X140834052Y-95480000D01*
X141067247Y-95443065D01*
X141291802Y-95370102D01*
X141502163Y-95262918D01*
X141502169Y-95262914D01*
X141585104Y-95202658D01*
X141585105Y-95202658D01*
X140853574Y-94471128D01*
X140912853Y-94455245D01*
X141029147Y-94388102D01*
X141124102Y-94293147D01*
X141191245Y-94176853D01*
X141207128Y-94117575D01*
X141938658Y-94849105D01*
X141938658Y-94849104D01*
X141998914Y-94766169D01*
X141998918Y-94766163D01*
X142106102Y-94555802D01*
X142179065Y-94331247D01*
X142216000Y-94098052D01*
X142216000Y-93861952D01*
X142215999Y-93861943D01*
X142214969Y-93855441D01*
X165980500Y-93855441D01*
X165980500Y-94104558D01*
X165980501Y-94104575D01*
X166013017Y-94351561D01*
X166077498Y-94592207D01*
X166172830Y-94822361D01*
X166172837Y-94822376D01*
X166297400Y-95038126D01*
X166449060Y-95235774D01*
X166449066Y-95235781D01*
X166625218Y-95411933D01*
X166625225Y-95411939D01*
X166822873Y-95563599D01*
X167038623Y-95688162D01*
X167038638Y-95688169D01*
X167137825Y-95729253D01*
X167268793Y-95783502D01*
X167509435Y-95847982D01*
X167756435Y-95880500D01*
X167756442Y-95880500D01*
X168005558Y-95880500D01*
X168005565Y-95880500D01*
X168252565Y-95847982D01*
X168493207Y-95783502D01*
X168723373Y-95688164D01*
X168939127Y-95563599D01*
X169136776Y-95411938D01*
X169312938Y-95235776D01*
X169464599Y-95038127D01*
X169589164Y-94822373D01*
X169684502Y-94592207D01*
X169748982Y-94351565D01*
X169781500Y-94104565D01*
X169781500Y-93855435D01*
X169748982Y-93608435D01*
X169684502Y-93367793D01*
X169589164Y-93137627D01*
X169464599Y-92921873D01*
X169312938Y-92724224D01*
X169312933Y-92724218D01*
X169136781Y-92548066D01*
X169136774Y-92548060D01*
X168939126Y-92396400D01*
X168723376Y-92271837D01*
X168723361Y-92271830D01*
X168493207Y-92176498D01*
X168252561Y-92112017D01*
X168005575Y-92079501D01*
X168005570Y-92079500D01*
X168005565Y-92079500D01*
X167756435Y-92079500D01*
X167756429Y-92079500D01*
X167756424Y-92079501D01*
X167509438Y-92112017D01*
X167268792Y-92176498D01*
X167038638Y-92271830D01*
X167038623Y-92271837D01*
X166822873Y-92396400D01*
X166625225Y-92548060D01*
X166625218Y-92548066D01*
X166449066Y-92724218D01*
X166449060Y-92724225D01*
X166297400Y-92921873D01*
X166172837Y-93137623D01*
X166172830Y-93137638D01*
X166077498Y-93367792D01*
X166013017Y-93608438D01*
X165980501Y-93855424D01*
X165980500Y-93855441D01*
X142214969Y-93855441D01*
X142179065Y-93628752D01*
X142106102Y-93404197D01*
X141998914Y-93193828D01*
X141938658Y-93110894D01*
X141938658Y-93110893D01*
X141207128Y-93842424D01*
X141191245Y-93783147D01*
X141124102Y-93666853D01*
X141029147Y-93571898D01*
X140912853Y-93504755D01*
X140853574Y-93488871D01*
X141585105Y-92757340D01*
X141585104Y-92757338D01*
X141502174Y-92697087D01*
X141291802Y-92589897D01*
X141067247Y-92516934D01*
X141067248Y-92516934D01*
X140834052Y-92480000D01*
X140597948Y-92480000D01*
X140364752Y-92516934D01*
X140140197Y-92589897D01*
X139929830Y-92697084D01*
X139846894Y-92757340D01*
X140578425Y-93488871D01*
X140519147Y-93504755D01*
X140402853Y-93571898D01*
X140307898Y-93666853D01*
X140240755Y-93783147D01*
X140224871Y-93842425D01*
X139493340Y-93110894D01*
X139433084Y-93193830D01*
X139325897Y-93404197D01*
X139252934Y-93628752D01*
X139216000Y-93861947D01*
X123903633Y-93861947D01*
X123903633Y-83741153D01*
X125183500Y-83741153D01*
X125183500Y-83898846D01*
X125214261Y-84053489D01*
X125214264Y-84053501D01*
X125274602Y-84199172D01*
X125274609Y-84199185D01*
X125362210Y-84330288D01*
X125362213Y-84330292D01*
X125473707Y-84441786D01*
X125473711Y-84441789D01*
X125604814Y-84529390D01*
X125604827Y-84529397D01*
X125750498Y-84589735D01*
X125750503Y-84589737D01*
X125905153Y-84620499D01*
X125905156Y-84620500D01*
X125905158Y-84620500D01*
X126062844Y-84620500D01*
X126062845Y-84620499D01*
X126217497Y-84589737D01*
X126363179Y-84529394D01*
X126363185Y-84529390D01*
X126494875Y-84441398D01*
X126561553Y-84420520D01*
X126563766Y-84420500D01*
X136057331Y-84420500D01*
X136057347Y-84420501D01*
X136064943Y-84420501D01*
X136223054Y-84420501D01*
X136223057Y-84420501D01*
X136375785Y-84379577D01*
X136425904Y-84350639D01*
X136512716Y-84300520D01*
X136624520Y-84188716D01*
X136624520Y-84188714D01*
X136634728Y-84178507D01*
X136634729Y-84178504D01*
X137174662Y-83638572D01*
X137235983Y-83605089D01*
X137238150Y-83604638D01*
X137296085Y-83593113D01*
X137393497Y-83573737D01*
X137539179Y-83513394D01*
X137670289Y-83425789D01*
X137781789Y-83314289D01*
X137869394Y-83183179D01*
X137929737Y-83037497D01*
X137960500Y-82882842D01*
X137960500Y-82725158D01*
X137960500Y-82725155D01*
X137960499Y-82725153D01*
X137929738Y-82570510D01*
X137929738Y-82570508D01*
X137929737Y-82570503D01*
X137929735Y-82570498D01*
X137869397Y-82424827D01*
X137869390Y-82424814D01*
X137781789Y-82293711D01*
X137781786Y-82293707D01*
X137670292Y-82182213D01*
X137670288Y-82182210D01*
X137539185Y-82094609D01*
X137539172Y-82094602D01*
X137393501Y-82034264D01*
X137393489Y-82034261D01*
X137238845Y-82003500D01*
X137238842Y-82003500D01*
X137081158Y-82003500D01*
X137081155Y-82003500D01*
X136926510Y-82034261D01*
X136926498Y-82034264D01*
X136780827Y-82094602D01*
X136780814Y-82094609D01*
X136649711Y-82182210D01*
X136649707Y-82182213D01*
X136538213Y-82293707D01*
X136538210Y-82293711D01*
X136450609Y-82424814D01*
X136450602Y-82424827D01*
X136390264Y-82570498D01*
X136390261Y-82570508D01*
X136359361Y-82725850D01*
X136326976Y-82787761D01*
X136325425Y-82789339D01*
X135931584Y-83183181D01*
X135870261Y-83216666D01*
X135843903Y-83219500D01*
X126563766Y-83219500D01*
X126496727Y-83199815D01*
X126494875Y-83198602D01*
X126363185Y-83110609D01*
X126363172Y-83110602D01*
X126217501Y-83050264D01*
X126217489Y-83050261D01*
X126062845Y-83019500D01*
X126062842Y-83019500D01*
X125905158Y-83019500D01*
X125905155Y-83019500D01*
X125750510Y-83050261D01*
X125750498Y-83050264D01*
X125604827Y-83110602D01*
X125604814Y-83110609D01*
X125473711Y-83198210D01*
X125473707Y-83198213D01*
X125362213Y-83309707D01*
X125362210Y-83309711D01*
X125274609Y-83440814D01*
X125274602Y-83440827D01*
X125214264Y-83586498D01*
X125214261Y-83586510D01*
X125183500Y-83741153D01*
X123903633Y-83741153D01*
X123903633Y-72482038D01*
X126571000Y-72482038D01*
X126571000Y-72733961D01*
X126610410Y-72982785D01*
X126688260Y-73222383D01*
X126802632Y-73446848D01*
X126950701Y-73650649D01*
X126950705Y-73650654D01*
X127128849Y-73828798D01*
X127216252Y-73892299D01*
X127258918Y-73947628D01*
X127264897Y-74017242D01*
X127253852Y-74048911D01*
X127162618Y-74227967D01*
X127101790Y-74415173D01*
X127071000Y-74609577D01*
X127071000Y-74806422D01*
X127101790Y-75000826D01*
X127162617Y-75188029D01*
X127251976Y-75363405D01*
X127367672Y-75522646D01*
X127367674Y-75522648D01*
X127465345Y-75620319D01*
X127498830Y-75681642D01*
X127493846Y-75751334D01*
X127465345Y-75795681D01*
X127367674Y-75893351D01*
X127367674Y-75893352D01*
X127367672Y-75893354D01*
X127317985Y-75961741D01*
X127251976Y-76052594D01*
X127162617Y-76227970D01*
X127101790Y-76415173D01*
X127071000Y-76609577D01*
X127071000Y-76806422D01*
X127101790Y-77000826D01*
X127162617Y-77188029D01*
X127210415Y-77281837D01*
X127251976Y-77363405D01*
X127278281Y-77399611D01*
X127278283Y-77399613D01*
X127301763Y-77465419D01*
X127285938Y-77533473D01*
X127252277Y-77571765D01*
X127213952Y-77600455D01*
X127127706Y-77715664D01*
X127127702Y-77715671D01*
X127077408Y-77850517D01*
X127071001Y-77910116D01*
X127071001Y-77910123D01*
X127071000Y-77910135D01*
X127071000Y-79505870D01*
X127071001Y-79505876D01*
X127078169Y-79572555D01*
X127065762Y-79641314D01*
X127042561Y-79673488D01*
X126950705Y-79765345D01*
X126950701Y-79765350D01*
X126802632Y-79969151D01*
X126688260Y-80193616D01*
X126610410Y-80433214D01*
X126571000Y-80682038D01*
X126571000Y-80933961D01*
X126610410Y-81182785D01*
X126688260Y-81422383D01*
X126802632Y-81646848D01*
X126950701Y-81850649D01*
X126950705Y-81850654D01*
X127128845Y-82028794D01*
X127128850Y-82028798D01*
X127219428Y-82094606D01*
X127332655Y-82176870D01*
X127475684Y-82249747D01*
X127557116Y-82291239D01*
X127557118Y-82291239D01*
X127557121Y-82291241D01*
X127796715Y-82369090D01*
X128045538Y-82408500D01*
X128045539Y-82408500D01*
X129597461Y-82408500D01*
X129597462Y-82408500D01*
X129846285Y-82369090D01*
X130085879Y-82291241D01*
X130310345Y-82176870D01*
X130514156Y-82028793D01*
X130692293Y-81850656D01*
X130840370Y-81646845D01*
X130954741Y-81422379D01*
X131032590Y-81182785D01*
X131072000Y-80933962D01*
X131072000Y-80682038D01*
X131032590Y-80433215D01*
X130954741Y-80193621D01*
X130954739Y-80193618D01*
X130954739Y-80193616D01*
X130880608Y-80048127D01*
X130840370Y-79969155D01*
X130821452Y-79943117D01*
X130692298Y-79765350D01*
X130692294Y-79765345D01*
X130600439Y-79673490D01*
X130566954Y-79612167D01*
X130564831Y-79572554D01*
X130566318Y-79558716D01*
X130572000Y-79505873D01*
X130571999Y-77942135D01*
X139215500Y-77942135D01*
X139215500Y-80037870D01*
X139215501Y-80037876D01*
X139221908Y-80097483D01*
X139272202Y-80232328D01*
X139272206Y-80232335D01*
X139358452Y-80347544D01*
X139358455Y-80347547D01*
X139473664Y-80433793D01*
X139473671Y-80433797D01*
X139608517Y-80484091D01*
X139608516Y-80484091D01*
X139615444Y-80484835D01*
X139668127Y-80490500D01*
X141763872Y-80490499D01*
X141823483Y-80484091D01*
X141958331Y-80433796D01*
X142073546Y-80347546D01*
X142159796Y-80232331D01*
X142210091Y-80097483D01*
X142216500Y-80037873D01*
X142216499Y-78865441D01*
X165980500Y-78865441D01*
X165980500Y-79114558D01*
X165980501Y-79114575D01*
X166013017Y-79361561D01*
X166077498Y-79602207D01*
X166172830Y-79832361D01*
X166172837Y-79832376D01*
X166297400Y-80048126D01*
X166449060Y-80245774D01*
X166449066Y-80245781D01*
X166625218Y-80421933D01*
X166625225Y-80421939D01*
X166822873Y-80573599D01*
X167038623Y-80698162D01*
X167038638Y-80698169D01*
X167137825Y-80739253D01*
X167268793Y-80793502D01*
X167509435Y-80857982D01*
X167756435Y-80890500D01*
X167756442Y-80890500D01*
X168005558Y-80890500D01*
X168005565Y-80890500D01*
X168252565Y-80857982D01*
X168493207Y-80793502D01*
X168723373Y-80698164D01*
X168939127Y-80573599D01*
X169136776Y-80421938D01*
X169312938Y-80245776D01*
X169464599Y-80048127D01*
X169589164Y-79832373D01*
X169684502Y-79602207D01*
X169748982Y-79361565D01*
X169781500Y-79114565D01*
X169781500Y-78865435D01*
X169748982Y-78618435D01*
X169684502Y-78377793D01*
X169589164Y-78147627D01*
X169464599Y-77931873D01*
X169312938Y-77734224D01*
X169312933Y-77734218D01*
X169136781Y-77558066D01*
X169136774Y-77558060D01*
X168939126Y-77406400D01*
X168723376Y-77281837D01*
X168723361Y-77281830D01*
X168493207Y-77186498D01*
X168252561Y-77122017D01*
X168005575Y-77089501D01*
X168005570Y-77089500D01*
X168005565Y-77089500D01*
X167756435Y-77089500D01*
X167756429Y-77089500D01*
X167756424Y-77089501D01*
X167509438Y-77122017D01*
X167268792Y-77186498D01*
X167038638Y-77281830D01*
X167038623Y-77281837D01*
X166822873Y-77406400D01*
X166625225Y-77558060D01*
X166625218Y-77558066D01*
X166449066Y-77734218D01*
X166449060Y-77734225D01*
X166297400Y-77931873D01*
X166172837Y-78147623D01*
X166172830Y-78147638D01*
X166077498Y-78377792D01*
X166013017Y-78618438D01*
X165980501Y-78865424D01*
X165980500Y-78865441D01*
X142216499Y-78865441D01*
X142216499Y-77942128D01*
X142210091Y-77882517D01*
X142198155Y-77850516D01*
X142159797Y-77747671D01*
X142159793Y-77747664D01*
X142073547Y-77632455D01*
X142073544Y-77632452D01*
X141958335Y-77546206D01*
X141958328Y-77546202D01*
X141823482Y-77495908D01*
X141823483Y-77495908D01*
X141763883Y-77489501D01*
X141763881Y-77489500D01*
X141763873Y-77489500D01*
X141763864Y-77489500D01*
X139668129Y-77489500D01*
X139668123Y-77489501D01*
X139608516Y-77495908D01*
X139473671Y-77546202D01*
X139473664Y-77546206D01*
X139358455Y-77632452D01*
X139358452Y-77632455D01*
X139272206Y-77747664D01*
X139272202Y-77747671D01*
X139221908Y-77882517D01*
X139216602Y-77931873D01*
X139215501Y-77942123D01*
X139215500Y-77942135D01*
X130571999Y-77942135D01*
X130571999Y-77910128D01*
X130565591Y-77850517D01*
X130527229Y-77747664D01*
X130515297Y-77715671D01*
X130515293Y-77715664D01*
X130429048Y-77600456D01*
X130429046Y-77600455D01*
X130429046Y-77600454D01*
X130390720Y-77571763D01*
X130348851Y-77515829D01*
X130343868Y-77446137D01*
X130364714Y-77399616D01*
X130391024Y-77363405D01*
X130480384Y-77188025D01*
X130541209Y-77000826D01*
X130572000Y-76806422D01*
X130572000Y-76609577D01*
X130541209Y-76415173D01*
X130480382Y-76227970D01*
X130391023Y-76052594D01*
X130275328Y-75893354D01*
X130177655Y-75795681D01*
X130144170Y-75734358D01*
X130149154Y-75664666D01*
X130177655Y-75620319D01*
X130275328Y-75522646D01*
X130391024Y-75363405D01*
X130480384Y-75188025D01*
X130541209Y-75000826D01*
X130572000Y-74806422D01*
X130572000Y-74609577D01*
X130541209Y-74415173D01*
X130480382Y-74227970D01*
X130389147Y-74048912D01*
X130376251Y-73980243D01*
X130402527Y-73915502D01*
X130426748Y-73892298D01*
X130514152Y-73828796D01*
X130514152Y-73828795D01*
X130514156Y-73828793D01*
X130692293Y-73650656D01*
X130840370Y-73446845D01*
X130954741Y-73222379D01*
X131032590Y-72982785D01*
X131072000Y-72733962D01*
X131072000Y-72482038D01*
X131032590Y-72233215D01*
X130954741Y-71993621D01*
X130954739Y-71993618D01*
X130954739Y-71993616D01*
X130913247Y-71912184D01*
X130840370Y-71769155D01*
X130821452Y-71743117D01*
X130692298Y-71565350D01*
X130692294Y-71565345D01*
X130514154Y-71387205D01*
X130514149Y-71387201D01*
X130310348Y-71239132D01*
X130310347Y-71239131D01*
X130310345Y-71239130D01*
X130240247Y-71203413D01*
X130085883Y-71124760D01*
X129846285Y-71046910D01*
X129702307Y-71024106D01*
X129597462Y-71007500D01*
X128045538Y-71007500D01*
X127940693Y-71024106D01*
X127796714Y-71046910D01*
X127557116Y-71124760D01*
X127332651Y-71239132D01*
X127128850Y-71387201D01*
X127128845Y-71387205D01*
X126950705Y-71565345D01*
X126950701Y-71565350D01*
X126802632Y-71769151D01*
X126688260Y-71993616D01*
X126610410Y-72233214D01*
X126571000Y-72482038D01*
X123903633Y-72482038D01*
X123903633Y-62821153D01*
X139407500Y-62821153D01*
X139407500Y-62978846D01*
X139438261Y-63133489D01*
X139438264Y-63133501D01*
X139498602Y-63279172D01*
X139498609Y-63279185D01*
X139586602Y-63410874D01*
X139607480Y-63477551D01*
X139607500Y-63479765D01*
X139607500Y-66553330D01*
X139607499Y-66553348D01*
X139607499Y-66719054D01*
X139607498Y-66719054D01*
X139648423Y-66871785D01*
X139673085Y-66914499D01*
X139673086Y-66914503D01*
X139673087Y-66914503D01*
X139727479Y-67008714D01*
X139727481Y-67008717D01*
X139846349Y-67127585D01*
X139846355Y-67127590D01*
X139881425Y-67162660D01*
X139914910Y-67223983D01*
X139915361Y-67226149D01*
X139946261Y-67381491D01*
X139946264Y-67381501D01*
X140006602Y-67527172D01*
X140006609Y-67527185D01*
X140094210Y-67658288D01*
X140094213Y-67658292D01*
X140205707Y-67769786D01*
X140205711Y-67769789D01*
X140336814Y-67857390D01*
X140336827Y-67857397D01*
X140482498Y-67917735D01*
X140482503Y-67917737D01*
X140637153Y-67948499D01*
X140637156Y-67948500D01*
X140637158Y-67948500D01*
X140794844Y-67948500D01*
X140794845Y-67948499D01*
X140949497Y-67917737D01*
X141095179Y-67857394D01*
X141226289Y-67769789D01*
X141337789Y-67658289D01*
X141425394Y-67527179D01*
X141485737Y-67381497D01*
X141516500Y-67226842D01*
X141516500Y-67069158D01*
X141516500Y-67069155D01*
X141516499Y-67069153D01*
X141485738Y-66914510D01*
X141485737Y-66914503D01*
X141451771Y-66832500D01*
X141425397Y-66768827D01*
X141425390Y-66768814D01*
X141337789Y-66637711D01*
X141337786Y-66637707D01*
X141226292Y-66526213D01*
X141226288Y-66526210D01*
X141095185Y-66438609D01*
X141095172Y-66438602D01*
X140949501Y-66378264D01*
X140949492Y-66378261D01*
X140908307Y-66370069D01*
X140846396Y-66337683D01*
X140811823Y-66276967D01*
X140808500Y-66248452D01*
X140808500Y-64853153D01*
X149059500Y-64853153D01*
X149059500Y-65010846D01*
X149090261Y-65165489D01*
X149090264Y-65165501D01*
X149150602Y-65311172D01*
X149150609Y-65311185D01*
X149238210Y-65442288D01*
X149238213Y-65442292D01*
X149349707Y-65553786D01*
X149349711Y-65553789D01*
X149480814Y-65641390D01*
X149480827Y-65641397D01*
X149589461Y-65686394D01*
X149626503Y-65701737D01*
X149781153Y-65732499D01*
X149781156Y-65732500D01*
X149781158Y-65732500D01*
X149938844Y-65732500D01*
X149938845Y-65732499D01*
X150093497Y-65701737D01*
X150206166Y-65655067D01*
X150239172Y-65641397D01*
X150239172Y-65641396D01*
X150239179Y-65641394D01*
X150249720Y-65634351D01*
X150370875Y-65553398D01*
X150437553Y-65532520D01*
X150439766Y-65532500D01*
X152741059Y-65532500D01*
X152808098Y-65552185D01*
X152828740Y-65568819D01*
X152905707Y-65645786D01*
X152905711Y-65645789D01*
X153036814Y-65733390D01*
X153036827Y-65733397D01*
X153143559Y-65777606D01*
X153182503Y-65793737D01*
X153337153Y-65824499D01*
X153337156Y-65824500D01*
X153337158Y-65824500D01*
X153494844Y-65824500D01*
X153494845Y-65824499D01*
X153649497Y-65793737D01*
X153795179Y-65733394D01*
X153926289Y-65645789D01*
X154037789Y-65534289D01*
X154125394Y-65403179D01*
X154185737Y-65257497D01*
X154216500Y-65102842D01*
X154216500Y-65093477D01*
X154236185Y-65026438D01*
X154288989Y-64980683D01*
X154316305Y-64971861D01*
X154345762Y-64966002D01*
X154491444Y-64905659D01*
X154622554Y-64818054D01*
X154734054Y-64706554D01*
X154821659Y-64575444D01*
X154872574Y-64452524D01*
X154881022Y-64432129D01*
X154924863Y-64377725D01*
X154948131Y-64365020D01*
X155091434Y-64305662D01*
X155091434Y-64305661D01*
X155091441Y-64305659D01*
X155222551Y-64218054D01*
X155334051Y-64106554D01*
X155421656Y-63975444D01*
X155481999Y-63829762D01*
X155512762Y-63675107D01*
X155512762Y-63517423D01*
X155512762Y-63517420D01*
X155512761Y-63517418D01*
X155505271Y-63479765D01*
X155481999Y-63362768D01*
X155481997Y-63362763D01*
X155460247Y-63310253D01*
X155443113Y-63268888D01*
X157543235Y-63268888D01*
X157543235Y-63426581D01*
X157573996Y-63581224D01*
X157573999Y-63581236D01*
X157634337Y-63726907D01*
X157634344Y-63726920D01*
X157721945Y-63858023D01*
X157721948Y-63858027D01*
X157833442Y-63969521D01*
X157833446Y-63969524D01*
X157964549Y-64057125D01*
X157964562Y-64057132D01*
X158110233Y-64117470D01*
X158110238Y-64117472D01*
X158245231Y-64144324D01*
X158264888Y-64148234D01*
X158264891Y-64148235D01*
X158264893Y-64148235D01*
X158422579Y-64148235D01*
X158422580Y-64148234D01*
X158577232Y-64117472D01*
X158722914Y-64057129D01*
X158760980Y-64031694D01*
X158854610Y-63969133D01*
X158872656Y-63963482D01*
X158888566Y-63953258D01*
X158919527Y-63948806D01*
X158921288Y-63948255D01*
X158923501Y-63948235D01*
X159059638Y-63948235D01*
X159126677Y-63967920D01*
X159147319Y-63984554D01*
X159185425Y-64022660D01*
X159218910Y-64083983D01*
X159219361Y-64086149D01*
X159250261Y-64241491D01*
X159250264Y-64241501D01*
X159310602Y-64387172D01*
X159310609Y-64387185D01*
X159398210Y-64518288D01*
X159398213Y-64518292D01*
X159509707Y-64629786D01*
X159509711Y-64629789D01*
X159640814Y-64717390D01*
X159640827Y-64717397D01*
X159786498Y-64777735D01*
X159786503Y-64777737D01*
X159928972Y-64806076D01*
X159941153Y-64808499D01*
X159941156Y-64808500D01*
X159941158Y-64808500D01*
X160098844Y-64808500D01*
X160098845Y-64808499D01*
X160253497Y-64777737D01*
X160399179Y-64717394D01*
X160530289Y-64629789D01*
X160641789Y-64518289D01*
X160729394Y-64387179D01*
X160738573Y-64365020D01*
X160780412Y-64264009D01*
X160789737Y-64241497D01*
X160820500Y-64086842D01*
X160820500Y-63929158D01*
X160820500Y-63929155D01*
X160820499Y-63929153D01*
X160809639Y-63874556D01*
X160789737Y-63774503D01*
X160748567Y-63675109D01*
X160729397Y-63628827D01*
X160729390Y-63628814D01*
X160641789Y-63497711D01*
X160641786Y-63497707D01*
X160530292Y-63386213D01*
X160530288Y-63386210D01*
X160444897Y-63329153D01*
X161251500Y-63329153D01*
X161251500Y-63486846D01*
X161282261Y-63641489D01*
X161282264Y-63641501D01*
X161342602Y-63787172D01*
X161342609Y-63787185D01*
X161430602Y-63918874D01*
X161451480Y-63985551D01*
X161451500Y-63987765D01*
X161451500Y-65460234D01*
X161431815Y-65527273D01*
X161430602Y-65529125D01*
X161342609Y-65660814D01*
X161342602Y-65660827D01*
X161282264Y-65806498D01*
X161282261Y-65806510D01*
X161251500Y-65961153D01*
X161251500Y-66118846D01*
X161282261Y-66273489D01*
X161282264Y-66273501D01*
X161342602Y-66419172D01*
X161342609Y-66419185D01*
X161430210Y-66550288D01*
X161430213Y-66550292D01*
X161541707Y-66661786D01*
X161541711Y-66661789D01*
X161672814Y-66749390D01*
X161672827Y-66749397D01*
X161794971Y-66799990D01*
X161818503Y-66809737D01*
X161930426Y-66832000D01*
X161973153Y-66840499D01*
X161973156Y-66840500D01*
X161973158Y-66840500D01*
X162130844Y-66840500D01*
X162130845Y-66840499D01*
X162285497Y-66809737D01*
X162431179Y-66749394D01*
X162562289Y-66661789D01*
X162673789Y-66550289D01*
X162761394Y-66419179D01*
X162821737Y-66273497D01*
X162852500Y-66118842D01*
X162852500Y-65961158D01*
X162852500Y-65961155D01*
X162852499Y-65961153D01*
X196811500Y-65961153D01*
X196811500Y-66118846D01*
X196842261Y-66273489D01*
X196842264Y-66273501D01*
X196902602Y-66419172D01*
X196902609Y-66419185D01*
X196990602Y-66550874D01*
X197011480Y-66617551D01*
X197011500Y-66619765D01*
X197011500Y-68493330D01*
X197011499Y-68493348D01*
X197011499Y-68659054D01*
X197011498Y-68659054D01*
X197052423Y-68811785D01*
X197081358Y-68861900D01*
X197081359Y-68861904D01*
X197081360Y-68861904D01*
X197131479Y-68948714D01*
X197131481Y-68948717D01*
X197250349Y-69067585D01*
X197250355Y-69067590D01*
X201349425Y-73166660D01*
X201382910Y-73227983D01*
X201383361Y-73230149D01*
X201414261Y-73385491D01*
X201414264Y-73385501D01*
X201474602Y-73531172D01*
X201474609Y-73531185D01*
X201562210Y-73662288D01*
X201562213Y-73662292D01*
X201673707Y-73773786D01*
X201673711Y-73773789D01*
X201804814Y-73861390D01*
X201804827Y-73861397D01*
X201935450Y-73915502D01*
X201950503Y-73921737D01*
X202080665Y-73947628D01*
X202105153Y-73952499D01*
X202105156Y-73952500D01*
X202105158Y-73952500D01*
X202262844Y-73952500D01*
X202262845Y-73952499D01*
X202417497Y-73921737D01*
X202563179Y-73861394D01*
X202694289Y-73773789D01*
X202805789Y-73662289D01*
X202893394Y-73531179D01*
X202953737Y-73385497D01*
X202984500Y-73230842D01*
X202984500Y-73073158D01*
X202984500Y-73073155D01*
X202984499Y-73073153D01*
X202953737Y-72918503D01*
X202953735Y-72918498D01*
X202893397Y-72772827D01*
X202893390Y-72772814D01*
X202805789Y-72641711D01*
X202805786Y-72641707D01*
X202694292Y-72530213D01*
X202694288Y-72530210D01*
X202563185Y-72442609D01*
X202563172Y-72442602D01*
X202417501Y-72382264D01*
X202417491Y-72382261D01*
X202262149Y-72351361D01*
X202200238Y-72318976D01*
X202198660Y-72317425D01*
X200966664Y-71085429D01*
X200933179Y-71024106D01*
X200938163Y-70954414D01*
X200980035Y-70898481D01*
X201045499Y-70874064D01*
X201078537Y-70876131D01*
X201221155Y-70904500D01*
X201221158Y-70904500D01*
X201378844Y-70904500D01*
X201378845Y-70904499D01*
X201533497Y-70873737D01*
X201679179Y-70813394D01*
X201810289Y-70725789D01*
X201921789Y-70614289D01*
X202009394Y-70483179D01*
X202069737Y-70337497D01*
X202100500Y-70182842D01*
X202100500Y-70025158D01*
X202100500Y-70025155D01*
X202100499Y-70025153D01*
X202069738Y-69870510D01*
X202069737Y-69870503D01*
X202069735Y-69870498D01*
X202009397Y-69724827D01*
X202009390Y-69724814D01*
X201921789Y-69593711D01*
X201921786Y-69593707D01*
X201810292Y-69482213D01*
X201810288Y-69482210D01*
X201679185Y-69394609D01*
X201679172Y-69394602D01*
X201533501Y-69334264D01*
X201533489Y-69334261D01*
X201378845Y-69303500D01*
X201378842Y-69303500D01*
X201221158Y-69303500D01*
X201221155Y-69303500D01*
X201066510Y-69334261D01*
X201066498Y-69334264D01*
X200920827Y-69394602D01*
X200920814Y-69394609D01*
X200789125Y-69482602D01*
X200771078Y-69488252D01*
X200755169Y-69498477D01*
X200724207Y-69502928D01*
X200722447Y-69503480D01*
X200720234Y-69503500D01*
X200679766Y-69503500D01*
X200612727Y-69483815D01*
X200610875Y-69482602D01*
X200479185Y-69394609D01*
X200479172Y-69394602D01*
X200333501Y-69334264D01*
X200333489Y-69334261D01*
X200178845Y-69303500D01*
X200178842Y-69303500D01*
X200021158Y-69303500D01*
X200021155Y-69303500D01*
X199866510Y-69334261D01*
X199866498Y-69334264D01*
X199720827Y-69394602D01*
X199720814Y-69394609D01*
X199589711Y-69482210D01*
X199589707Y-69482213D01*
X199564259Y-69507662D01*
X199502936Y-69541147D01*
X199433244Y-69536163D01*
X199388897Y-69507662D01*
X198248819Y-68367584D01*
X198215334Y-68306261D01*
X198212500Y-68279903D01*
X198212500Y-66619765D01*
X198232185Y-66552726D01*
X198233398Y-66550874D01*
X198321390Y-66419185D01*
X198321390Y-66419184D01*
X198321394Y-66419179D01*
X198381737Y-66273497D01*
X198412500Y-66118842D01*
X198412500Y-65961158D01*
X198412500Y-65961155D01*
X198412499Y-65961153D01*
X198390803Y-65852080D01*
X198381737Y-65806503D01*
X198351456Y-65733397D01*
X198321397Y-65660827D01*
X198321390Y-65660814D01*
X198233789Y-65529711D01*
X198233786Y-65529707D01*
X198133727Y-65429648D01*
X199399500Y-65429648D01*
X199399500Y-65634352D01*
X199403691Y-65660814D01*
X199431522Y-65836534D01*
X199494781Y-66031223D01*
X199539426Y-66118842D01*
X199587585Y-66213359D01*
X199587715Y-66213613D01*
X199708028Y-66379213D01*
X199852786Y-66523971D01*
X199984638Y-66619765D01*
X200018390Y-66644287D01*
X200134607Y-66703503D01*
X200200776Y-66737218D01*
X200200778Y-66737218D01*
X200200781Y-66737220D01*
X200298017Y-66768814D01*
X200395465Y-66800477D01*
X200496557Y-66816488D01*
X200597648Y-66832500D01*
X200597649Y-66832500D01*
X200802351Y-66832500D01*
X200802352Y-66832500D01*
X201004534Y-66800477D01*
X201199219Y-66737220D01*
X201381610Y-66644287D01*
X201510183Y-66550874D01*
X201547213Y-66523971D01*
X201547215Y-66523968D01*
X201547219Y-66523966D01*
X201691966Y-66379219D01*
X201691968Y-66379215D01*
X201691971Y-66379213D01*
X201768777Y-66273497D01*
X201812287Y-66213610D01*
X201905220Y-66031219D01*
X201968477Y-65836534D01*
X202000500Y-65634352D01*
X202000500Y-65429682D01*
X204400000Y-65429682D01*
X204400000Y-65634317D01*
X204432009Y-65836417D01*
X204495244Y-66031031D01*
X204588141Y-66213350D01*
X204588147Y-66213359D01*
X204620523Y-66257921D01*
X204620524Y-66257922D01*
X205300000Y-65578446D01*
X205300000Y-65584661D01*
X205327259Y-65686394D01*
X205379920Y-65777606D01*
X205454394Y-65852080D01*
X205545606Y-65904741D01*
X205647339Y-65932000D01*
X205653553Y-65932000D01*
X204974076Y-66611474D01*
X205018650Y-66643859D01*
X205200968Y-66736755D01*
X205395582Y-66799990D01*
X205597683Y-66832000D01*
X205802317Y-66832000D01*
X206004417Y-66799990D01*
X206199031Y-66736755D01*
X206381349Y-66643859D01*
X206425921Y-66611474D01*
X205746447Y-65932000D01*
X205752661Y-65932000D01*
X205854394Y-65904741D01*
X205945606Y-65852080D01*
X206020080Y-65777606D01*
X206072741Y-65686394D01*
X206100000Y-65584661D01*
X206100000Y-65578447D01*
X206779474Y-66257921D01*
X206811859Y-66213349D01*
X206904755Y-66031031D01*
X206967990Y-65836417D01*
X207000000Y-65634317D01*
X207000000Y-65429682D01*
X206967990Y-65227582D01*
X206904755Y-65032968D01*
X206811859Y-64850650D01*
X206779474Y-64806077D01*
X206779474Y-64806076D01*
X206100000Y-65485551D01*
X206100000Y-65479339D01*
X206072741Y-65377606D01*
X206020080Y-65286394D01*
X205945606Y-65211920D01*
X205854394Y-65159259D01*
X205752661Y-65132000D01*
X205746446Y-65132000D01*
X206425922Y-64452524D01*
X206425921Y-64452523D01*
X206381359Y-64420147D01*
X206381350Y-64420141D01*
X206199031Y-64327244D01*
X206004417Y-64264009D01*
X205802317Y-64232000D01*
X205597683Y-64232000D01*
X205395582Y-64264009D01*
X205200968Y-64327244D01*
X205018644Y-64420143D01*
X204974077Y-64452523D01*
X204974077Y-64452524D01*
X205653554Y-65132000D01*
X205647339Y-65132000D01*
X205545606Y-65159259D01*
X205454394Y-65211920D01*
X205379920Y-65286394D01*
X205327259Y-65377606D01*
X205300000Y-65479339D01*
X205300000Y-65485553D01*
X204620524Y-64806077D01*
X204620523Y-64806077D01*
X204588143Y-64850644D01*
X204495244Y-65032968D01*
X204432009Y-65227582D01*
X204400000Y-65429682D01*
X202000500Y-65429682D01*
X202000500Y-65429648D01*
X201981735Y-65311172D01*
X201968477Y-65227465D01*
X201937458Y-65132000D01*
X201905220Y-65032781D01*
X201905218Y-65032778D01*
X201905218Y-65032776D01*
X201871193Y-64966000D01*
X201812287Y-64850390D01*
X201788792Y-64818051D01*
X201691971Y-64684786D01*
X201547213Y-64540028D01*
X201381613Y-64419715D01*
X201381612Y-64419714D01*
X201381610Y-64419713D01*
X201296955Y-64376579D01*
X201199223Y-64326781D01*
X201004534Y-64263522D01*
X200829995Y-64235878D01*
X200802352Y-64231500D01*
X200597648Y-64231500D01*
X200573329Y-64235351D01*
X200395465Y-64263522D01*
X200200776Y-64326781D01*
X200018386Y-64419715D01*
X199852786Y-64540028D01*
X199708028Y-64684786D01*
X199587715Y-64850386D01*
X199494781Y-65032776D01*
X199431522Y-65227465D01*
X199403693Y-65403172D01*
X199399500Y-65429648D01*
X198133727Y-65429648D01*
X198122292Y-65418213D01*
X198122288Y-65418210D01*
X197991185Y-65330609D01*
X197991172Y-65330602D01*
X197845501Y-65270264D01*
X197845489Y-65270261D01*
X197690845Y-65239500D01*
X197690842Y-65239500D01*
X197533158Y-65239500D01*
X197533155Y-65239500D01*
X197378510Y-65270261D01*
X197378498Y-65270264D01*
X197232827Y-65330602D01*
X197232814Y-65330609D01*
X197101711Y-65418210D01*
X197101707Y-65418213D01*
X196990213Y-65529707D01*
X196990210Y-65529711D01*
X196902609Y-65660814D01*
X196902602Y-65660827D01*
X196842264Y-65806498D01*
X196842261Y-65806510D01*
X196811500Y-65961153D01*
X162852499Y-65961153D01*
X162830803Y-65852080D01*
X162821737Y-65806503D01*
X162791456Y-65733397D01*
X162761397Y-65660827D01*
X162761390Y-65660814D01*
X162673398Y-65529125D01*
X162652520Y-65462447D01*
X162652500Y-65460234D01*
X162652500Y-63987765D01*
X162672185Y-63920726D01*
X162673398Y-63918874D01*
X162761390Y-63787185D01*
X162761390Y-63787184D01*
X162761394Y-63787179D01*
X162821737Y-63641497D01*
X162852500Y-63486842D01*
X162852500Y-63329158D01*
X162852500Y-63329155D01*
X162852499Y-63329153D01*
X162821737Y-63174503D01*
X162821735Y-63174498D01*
X162761397Y-63028827D01*
X162761390Y-63028814D01*
X162673789Y-62897711D01*
X162673786Y-62897707D01*
X162562292Y-62786213D01*
X162562288Y-62786210D01*
X162431185Y-62698609D01*
X162431172Y-62698602D01*
X162285501Y-62638264D01*
X162285489Y-62638261D01*
X162130845Y-62607500D01*
X162130842Y-62607500D01*
X161973158Y-62607500D01*
X161973155Y-62607500D01*
X161818510Y-62638261D01*
X161818498Y-62638264D01*
X161672827Y-62698602D01*
X161672814Y-62698609D01*
X161541711Y-62786210D01*
X161541707Y-62786213D01*
X161430213Y-62897707D01*
X161430210Y-62897711D01*
X161342609Y-63028814D01*
X161342602Y-63028827D01*
X161282264Y-63174498D01*
X161282261Y-63174510D01*
X161251500Y-63329153D01*
X160444897Y-63329153D01*
X160399185Y-63298609D01*
X160399172Y-63298602D01*
X160253501Y-63238264D01*
X160253491Y-63238261D01*
X160098149Y-63207361D01*
X160036238Y-63174976D01*
X160034660Y-63173425D01*
X159847325Y-62986090D01*
X159847323Y-62986087D01*
X159728452Y-62867216D01*
X159728444Y-62867210D01*
X159625022Y-62807500D01*
X159625019Y-62807499D01*
X159591522Y-62788159D01*
X159591521Y-62788158D01*
X159591520Y-62788158D01*
X159438792Y-62747234D01*
X159280678Y-62747234D01*
X159273082Y-62747234D01*
X159273066Y-62747235D01*
X158923501Y-62747235D01*
X158856462Y-62727550D01*
X158854610Y-62726337D01*
X158722920Y-62638344D01*
X158722907Y-62638337D01*
X158577236Y-62577999D01*
X158577224Y-62577996D01*
X158422580Y-62547235D01*
X158422577Y-62547235D01*
X158264893Y-62547235D01*
X158264890Y-62547235D01*
X158110245Y-62577996D01*
X158110233Y-62577999D01*
X157964562Y-62638337D01*
X157964549Y-62638344D01*
X157833446Y-62725945D01*
X157833442Y-62725948D01*
X157721948Y-62837442D01*
X157721945Y-62837446D01*
X157634344Y-62968549D01*
X157634337Y-62968562D01*
X157573999Y-63114233D01*
X157573996Y-63114245D01*
X157543235Y-63268888D01*
X155443113Y-63268888D01*
X155421659Y-63217092D01*
X155421652Y-63217079D01*
X155334051Y-63085976D01*
X155334048Y-63085972D01*
X155222554Y-62974478D01*
X155222550Y-62974475D01*
X155091447Y-62886874D01*
X155091434Y-62886867D01*
X154945763Y-62826529D01*
X154945751Y-62826526D01*
X154791107Y-62795765D01*
X154791104Y-62795765D01*
X154633420Y-62795765D01*
X154633417Y-62795765D01*
X154478772Y-62826526D01*
X154478760Y-62826529D01*
X154327455Y-62889202D01*
X154326707Y-62887397D01*
X154278396Y-62899500D01*
X151963766Y-62899500D01*
X151896727Y-62879815D01*
X151894875Y-62878602D01*
X151763185Y-62790609D01*
X151763172Y-62790602D01*
X151617501Y-62730264D01*
X151617489Y-62730261D01*
X151462845Y-62699500D01*
X151462842Y-62699500D01*
X151305158Y-62699500D01*
X151305155Y-62699500D01*
X151150510Y-62730261D01*
X151150498Y-62730264D01*
X151004827Y-62790602D01*
X151004814Y-62790609D01*
X150873711Y-62878210D01*
X150873707Y-62878213D01*
X150762213Y-62989707D01*
X150762210Y-62989711D01*
X150674609Y-63120814D01*
X150674602Y-63120827D01*
X150614264Y-63266498D01*
X150614261Y-63266508D01*
X150584537Y-63415940D01*
X150552152Y-63477851D01*
X150510373Y-63506309D01*
X150418558Y-63544339D01*
X150418549Y-63544344D01*
X150287446Y-63631945D01*
X150287442Y-63631948D01*
X150175948Y-63743442D01*
X150175945Y-63743446D01*
X150088344Y-63874549D01*
X150088337Y-63874562D01*
X150027999Y-64020233D01*
X150027997Y-64020240D01*
X150025719Y-64031694D01*
X149993333Y-64093604D01*
X149932616Y-64128177D01*
X149904102Y-64131500D01*
X149781155Y-64131500D01*
X149626510Y-64162261D01*
X149626498Y-64162264D01*
X149480827Y-64222602D01*
X149480814Y-64222609D01*
X149349711Y-64310210D01*
X149349707Y-64310213D01*
X149238213Y-64421707D01*
X149238210Y-64421711D01*
X149150609Y-64552814D01*
X149150602Y-64552827D01*
X149090264Y-64698498D01*
X149090261Y-64698510D01*
X149059500Y-64853153D01*
X140808500Y-64853153D01*
X140808500Y-63479765D01*
X140828185Y-63412726D01*
X140829398Y-63410874D01*
X140861542Y-63362768D01*
X140917394Y-63279179D01*
X140922643Y-63266508D01*
X140943111Y-63217092D01*
X140977737Y-63133497D01*
X141008500Y-62978842D01*
X141008500Y-62821158D01*
X141008500Y-62821155D01*
X141008499Y-62821153D01*
X141001549Y-62786213D01*
X140977737Y-62666503D01*
X140966072Y-62638341D01*
X140917397Y-62520827D01*
X140917390Y-62520814D01*
X140829789Y-62389711D01*
X140829786Y-62389707D01*
X140718292Y-62278213D01*
X140718288Y-62278210D01*
X140587185Y-62190609D01*
X140587172Y-62190602D01*
X140441501Y-62130264D01*
X140441489Y-62130261D01*
X140286845Y-62099500D01*
X140286842Y-62099500D01*
X140129158Y-62099500D01*
X140129155Y-62099500D01*
X139974510Y-62130261D01*
X139974498Y-62130264D01*
X139828827Y-62190602D01*
X139828814Y-62190609D01*
X139697711Y-62278210D01*
X139697707Y-62278213D01*
X139586213Y-62389707D01*
X139586210Y-62389711D01*
X139498609Y-62520814D01*
X139498602Y-62520827D01*
X139438264Y-62666498D01*
X139438261Y-62666510D01*
X139407500Y-62821153D01*
X123903633Y-62821153D01*
X123903633Y-61389153D01*
X199299500Y-61389153D01*
X199299500Y-61546846D01*
X199330261Y-61701489D01*
X199330264Y-61701501D01*
X199390602Y-61847172D01*
X199390609Y-61847185D01*
X199478210Y-61978288D01*
X199478213Y-61978292D01*
X199589707Y-62089786D01*
X199589711Y-62089789D01*
X199720814Y-62177390D01*
X199720827Y-62177397D01*
X199866498Y-62237735D01*
X199866503Y-62237737D01*
X200021153Y-62268499D01*
X200021156Y-62268500D01*
X200021158Y-62268500D01*
X200178844Y-62268500D01*
X200178845Y-62268499D01*
X200333497Y-62237737D01*
X200479179Y-62177394D01*
X200549714Y-62130264D01*
X200610875Y-62089398D01*
X200628921Y-62083747D01*
X200644831Y-62073523D01*
X200675792Y-62069071D01*
X200677553Y-62068520D01*
X200679766Y-62068500D01*
X200720234Y-62068500D01*
X200787273Y-62088185D01*
X200789125Y-62089398D01*
X200920814Y-62177390D01*
X200920827Y-62177397D01*
X201066498Y-62237735D01*
X201066503Y-62237737D01*
X201221153Y-62268499D01*
X201221156Y-62268500D01*
X201221158Y-62268500D01*
X201378844Y-62268500D01*
X201378845Y-62268499D01*
X201533497Y-62237737D01*
X201679179Y-62177394D01*
X201810289Y-62089789D01*
X201921789Y-61978289D01*
X202009394Y-61847179D01*
X202069737Y-61701497D01*
X202100500Y-61546842D01*
X202100500Y-61389158D01*
X202100500Y-61389155D01*
X202100499Y-61389153D01*
X202069738Y-61234510D01*
X202069737Y-61234503D01*
X202069735Y-61234498D01*
X202009397Y-61088827D01*
X202009390Y-61088814D01*
X201921789Y-60957711D01*
X201921786Y-60957707D01*
X201810292Y-60846213D01*
X201810288Y-60846210D01*
X201679185Y-60758609D01*
X201679172Y-60758602D01*
X201533501Y-60698264D01*
X201533489Y-60698261D01*
X201378845Y-60667500D01*
X201378842Y-60667500D01*
X201221158Y-60667500D01*
X201221155Y-60667500D01*
X201066510Y-60698261D01*
X201066498Y-60698264D01*
X200920827Y-60758602D01*
X200920814Y-60758609D01*
X200789125Y-60846602D01*
X200771078Y-60852252D01*
X200755169Y-60862477D01*
X200724207Y-60866928D01*
X200722447Y-60867480D01*
X200720234Y-60867500D01*
X200679766Y-60867500D01*
X200612727Y-60847815D01*
X200610875Y-60846602D01*
X200479185Y-60758609D01*
X200479172Y-60758602D01*
X200333501Y-60698264D01*
X200333489Y-60698261D01*
X200178845Y-60667500D01*
X200178842Y-60667500D01*
X200021158Y-60667500D01*
X200021155Y-60667500D01*
X199866510Y-60698261D01*
X199866498Y-60698264D01*
X199720827Y-60758602D01*
X199720814Y-60758609D01*
X199589711Y-60846210D01*
X199589707Y-60846213D01*
X199478213Y-60957707D01*
X199478210Y-60957711D01*
X199390609Y-61088814D01*
X199390602Y-61088827D01*
X199330264Y-61234498D01*
X199330261Y-61234510D01*
X199299500Y-61389153D01*
X123903633Y-61389153D01*
X123903633Y-58059713D01*
X141143500Y-58059713D01*
X141143500Y-58272286D01*
X141176753Y-58482239D01*
X141242444Y-58684414D01*
X141338951Y-58873820D01*
X141463890Y-59045786D01*
X141614213Y-59196109D01*
X141786179Y-59321048D01*
X141786181Y-59321049D01*
X141786184Y-59321051D01*
X141975588Y-59417557D01*
X142177757Y-59483246D01*
X142387713Y-59516500D01*
X142387714Y-59516500D01*
X142600286Y-59516500D01*
X142600287Y-59516500D01*
X142810243Y-59483246D01*
X143012412Y-59417557D01*
X143201816Y-59321051D01*
X143288138Y-59258335D01*
X143373786Y-59196109D01*
X143373788Y-59196106D01*
X143373792Y-59196104D01*
X143524104Y-59045792D01*
X143524106Y-59045788D01*
X143524109Y-59045786D01*
X143649048Y-58873820D01*
X143649047Y-58873820D01*
X143649051Y-58873816D01*
X143653514Y-58865054D01*
X143701488Y-58814259D01*
X143769308Y-58797463D01*
X143835444Y-58819999D01*
X143874486Y-58865056D01*
X143878951Y-58873820D01*
X144003890Y-59045786D01*
X144154213Y-59196109D01*
X144326179Y-59321048D01*
X144326181Y-59321049D01*
X144326184Y-59321051D01*
X144515588Y-59417557D01*
X144717757Y-59483246D01*
X144927713Y-59516500D01*
X144927714Y-59516500D01*
X145140286Y-59516500D01*
X145140287Y-59516500D01*
X145350243Y-59483246D01*
X145552412Y-59417557D01*
X145741816Y-59321051D01*
X145913792Y-59196104D01*
X146027329Y-59082566D01*
X146088648Y-59049084D01*
X146158340Y-59054068D01*
X146214274Y-59095939D01*
X146231189Y-59126917D01*
X146280202Y-59258328D01*
X146280206Y-59258335D01*
X146366452Y-59373544D01*
X146366455Y-59373547D01*
X146481664Y-59459793D01*
X146481671Y-59459797D01*
X146616517Y-59510091D01*
X146616516Y-59510091D01*
X146623444Y-59510835D01*
X146676127Y-59516500D01*
X148471872Y-59516499D01*
X148531483Y-59510091D01*
X148666331Y-59459796D01*
X148781546Y-59373546D01*
X148867796Y-59258331D01*
X148916810Y-59126916D01*
X148958681Y-59070984D01*
X149024145Y-59046566D01*
X149092418Y-59061417D01*
X149120673Y-59082569D01*
X149234213Y-59196109D01*
X149406179Y-59321048D01*
X149406181Y-59321049D01*
X149406184Y-59321051D01*
X149595588Y-59417557D01*
X149797757Y-59483246D01*
X150007713Y-59516500D01*
X150007714Y-59516500D01*
X150220286Y-59516500D01*
X150220287Y-59516500D01*
X150430243Y-59483246D01*
X150632412Y-59417557D01*
X150821816Y-59321051D01*
X150908138Y-59258335D01*
X150993786Y-59196109D01*
X150993788Y-59196106D01*
X150993792Y-59196104D01*
X151144104Y-59045792D01*
X151144106Y-59045788D01*
X151144109Y-59045786D01*
X151269048Y-58873820D01*
X151269047Y-58873820D01*
X151269051Y-58873816D01*
X151273514Y-58865054D01*
X151321488Y-58814259D01*
X151389308Y-58797463D01*
X151455444Y-58819999D01*
X151494486Y-58865056D01*
X151498951Y-58873820D01*
X151623890Y-59045786D01*
X151774213Y-59196109D01*
X151946179Y-59321048D01*
X151946181Y-59321049D01*
X151946184Y-59321051D01*
X152135588Y-59417557D01*
X152337757Y-59483246D01*
X152547713Y-59516500D01*
X152547714Y-59516500D01*
X152760286Y-59516500D01*
X152760287Y-59516500D01*
X152970243Y-59483246D01*
X153172412Y-59417557D01*
X153361816Y-59321051D01*
X153448138Y-59258335D01*
X153533786Y-59196109D01*
X153533788Y-59196106D01*
X153533792Y-59196104D01*
X153684104Y-59045792D01*
X153684106Y-59045788D01*
X153684109Y-59045786D01*
X153809048Y-58873820D01*
X153809047Y-58873820D01*
X153809051Y-58873816D01*
X153813514Y-58865054D01*
X153861488Y-58814259D01*
X153929308Y-58797463D01*
X153995444Y-58819999D01*
X154034486Y-58865056D01*
X154038951Y-58873820D01*
X154163890Y-59045786D01*
X154314213Y-59196109D01*
X154486179Y-59321048D01*
X154486181Y-59321049D01*
X154486184Y-59321051D01*
X154675588Y-59417557D01*
X154877757Y-59483246D01*
X155087713Y-59516500D01*
X155087714Y-59516500D01*
X155300286Y-59516500D01*
X155300287Y-59516500D01*
X155510243Y-59483246D01*
X155712412Y-59417557D01*
X155901816Y-59321051D01*
X155988138Y-59258335D01*
X156073786Y-59196109D01*
X156073788Y-59196106D01*
X156073792Y-59196104D01*
X156224104Y-59045792D01*
X156224106Y-59045788D01*
X156224109Y-59045786D01*
X156349048Y-58873820D01*
X156349047Y-58873820D01*
X156349051Y-58873816D01*
X156353514Y-58865054D01*
X156401488Y-58814259D01*
X156469308Y-58797463D01*
X156535444Y-58819999D01*
X156574486Y-58865056D01*
X156578951Y-58873820D01*
X156703890Y-59045786D01*
X156854213Y-59196109D01*
X157026179Y-59321048D01*
X157026181Y-59321049D01*
X157026184Y-59321051D01*
X157215588Y-59417557D01*
X157417757Y-59483246D01*
X157627713Y-59516500D01*
X157627714Y-59516500D01*
X157840286Y-59516500D01*
X157840287Y-59516500D01*
X158050243Y-59483246D01*
X158252412Y-59417557D01*
X158441816Y-59321051D01*
X158613792Y-59196104D01*
X158727329Y-59082566D01*
X158788648Y-59049084D01*
X158858340Y-59054068D01*
X158914274Y-59095939D01*
X158931189Y-59126917D01*
X158980202Y-59258328D01*
X158980206Y-59258335D01*
X159066452Y-59373544D01*
X159066455Y-59373547D01*
X159181664Y-59459793D01*
X159181671Y-59459797D01*
X159316517Y-59510091D01*
X159316516Y-59510091D01*
X159323444Y-59510835D01*
X159376127Y-59516500D01*
X161171872Y-59516499D01*
X161231483Y-59510091D01*
X161366331Y-59459796D01*
X161481546Y-59373546D01*
X161567796Y-59258331D01*
X161616810Y-59126916D01*
X161658681Y-59070984D01*
X161724145Y-59046566D01*
X161792418Y-59061417D01*
X161820673Y-59082569D01*
X161934213Y-59196109D01*
X162106179Y-59321048D01*
X162106181Y-59321049D01*
X162106184Y-59321051D01*
X162295588Y-59417557D01*
X162497757Y-59483246D01*
X162707713Y-59516500D01*
X162707714Y-59516500D01*
X162920286Y-59516500D01*
X162920287Y-59516500D01*
X163130243Y-59483246D01*
X163332412Y-59417557D01*
X163521816Y-59321051D01*
X163608138Y-59258335D01*
X163693786Y-59196109D01*
X163693788Y-59196106D01*
X163693792Y-59196104D01*
X163844104Y-59045792D01*
X163844106Y-59045788D01*
X163844109Y-59045786D01*
X163969048Y-58873820D01*
X163969047Y-58873820D01*
X163969051Y-58873816D01*
X163973514Y-58865054D01*
X164021488Y-58814259D01*
X164089308Y-58797463D01*
X164155444Y-58819999D01*
X164194486Y-58865056D01*
X164198951Y-58873820D01*
X164323890Y-59045786D01*
X164474213Y-59196109D01*
X164646179Y-59321048D01*
X164646181Y-59321049D01*
X164646184Y-59321051D01*
X164835588Y-59417557D01*
X165037757Y-59483246D01*
X165247713Y-59516500D01*
X165247714Y-59516500D01*
X165460286Y-59516500D01*
X165460287Y-59516500D01*
X165670243Y-59483246D01*
X165872412Y-59417557D01*
X166061816Y-59321051D01*
X166148138Y-59258335D01*
X166233786Y-59196109D01*
X166233788Y-59196106D01*
X166233792Y-59196104D01*
X166384104Y-59045792D01*
X166384106Y-59045788D01*
X166384109Y-59045786D01*
X166509048Y-58873820D01*
X166509047Y-58873820D01*
X166509051Y-58873816D01*
X166513514Y-58865054D01*
X166561488Y-58814259D01*
X166629308Y-58797463D01*
X166695444Y-58819999D01*
X166734486Y-58865056D01*
X166738951Y-58873820D01*
X166863890Y-59045786D01*
X167014213Y-59196109D01*
X167186179Y-59321048D01*
X167186181Y-59321049D01*
X167186184Y-59321051D01*
X167375588Y-59417557D01*
X167577757Y-59483246D01*
X167787713Y-59516500D01*
X167787714Y-59516500D01*
X168000286Y-59516500D01*
X168000287Y-59516500D01*
X168210243Y-59483246D01*
X168412412Y-59417557D01*
X168601816Y-59321051D01*
X168688138Y-59258335D01*
X168773786Y-59196109D01*
X168773788Y-59196106D01*
X168773792Y-59196104D01*
X168924104Y-59045792D01*
X168924106Y-59045788D01*
X168924109Y-59045786D01*
X169049048Y-58873820D01*
X169049047Y-58873820D01*
X169049051Y-58873816D01*
X169053514Y-58865054D01*
X169101488Y-58814259D01*
X169169308Y-58797463D01*
X169235444Y-58819999D01*
X169274486Y-58865056D01*
X169278951Y-58873820D01*
X169403890Y-59045786D01*
X169554213Y-59196109D01*
X169726179Y-59321048D01*
X169726181Y-59321049D01*
X169726184Y-59321051D01*
X169915588Y-59417557D01*
X170117757Y-59483246D01*
X170327713Y-59516500D01*
X170327714Y-59516500D01*
X170540286Y-59516500D01*
X170540287Y-59516500D01*
X170750243Y-59483246D01*
X170952412Y-59417557D01*
X171141816Y-59321051D01*
X171313792Y-59196104D01*
X171427329Y-59082566D01*
X171488648Y-59049084D01*
X171558340Y-59054068D01*
X171614274Y-59095939D01*
X171631189Y-59126917D01*
X171680202Y-59258328D01*
X171680206Y-59258335D01*
X171766452Y-59373544D01*
X171766455Y-59373547D01*
X171881664Y-59459793D01*
X171881671Y-59459797D01*
X172016517Y-59510091D01*
X172016516Y-59510091D01*
X172023444Y-59510835D01*
X172076127Y-59516500D01*
X173871872Y-59516499D01*
X173931483Y-59510091D01*
X174066331Y-59459796D01*
X174181546Y-59373546D01*
X174267796Y-59258331D01*
X174316810Y-59126916D01*
X174358681Y-59070984D01*
X174424145Y-59046566D01*
X174492418Y-59061417D01*
X174520673Y-59082569D01*
X174634213Y-59196109D01*
X174806179Y-59321048D01*
X174806181Y-59321049D01*
X174806184Y-59321051D01*
X174995588Y-59417557D01*
X175197757Y-59483246D01*
X175407713Y-59516500D01*
X175407714Y-59516500D01*
X175620286Y-59516500D01*
X175620287Y-59516500D01*
X175830243Y-59483246D01*
X176032412Y-59417557D01*
X176221816Y-59321051D01*
X176308138Y-59258335D01*
X176393786Y-59196109D01*
X176393788Y-59196106D01*
X176393792Y-59196104D01*
X176544104Y-59045792D01*
X176544106Y-59045788D01*
X176544109Y-59045786D01*
X176669048Y-58873820D01*
X176669047Y-58873820D01*
X176669051Y-58873816D01*
X176673514Y-58865054D01*
X176721488Y-58814259D01*
X176789308Y-58797463D01*
X176855444Y-58819999D01*
X176894486Y-58865056D01*
X176898951Y-58873820D01*
X177023890Y-59045786D01*
X177174213Y-59196109D01*
X177346179Y-59321048D01*
X177346181Y-59321049D01*
X177346184Y-59321051D01*
X177535588Y-59417557D01*
X177737757Y-59483246D01*
X177947713Y-59516500D01*
X177947714Y-59516500D01*
X178160286Y-59516500D01*
X178160287Y-59516500D01*
X178370243Y-59483246D01*
X178572412Y-59417557D01*
X178761816Y-59321051D01*
X178848138Y-59258335D01*
X178933786Y-59196109D01*
X178933788Y-59196106D01*
X178933792Y-59196104D01*
X179084104Y-59045792D01*
X179084106Y-59045788D01*
X179084109Y-59045786D01*
X179209048Y-58873820D01*
X179209047Y-58873820D01*
X179209051Y-58873816D01*
X179213514Y-58865054D01*
X179261488Y-58814259D01*
X179329308Y-58797463D01*
X179395444Y-58819999D01*
X179434486Y-58865056D01*
X179438951Y-58873820D01*
X179563890Y-59045786D01*
X179714213Y-59196109D01*
X179886179Y-59321048D01*
X179886181Y-59321049D01*
X179886184Y-59321051D01*
X180075588Y-59417557D01*
X180277757Y-59483246D01*
X180487713Y-59516500D01*
X180487714Y-59516500D01*
X180700286Y-59516500D01*
X180700287Y-59516500D01*
X180910243Y-59483246D01*
X181112412Y-59417557D01*
X181301816Y-59321051D01*
X181388138Y-59258335D01*
X181473786Y-59196109D01*
X181473788Y-59196106D01*
X181473792Y-59196104D01*
X181624104Y-59045792D01*
X181624106Y-59045788D01*
X181624109Y-59045786D01*
X181749048Y-58873820D01*
X181749047Y-58873820D01*
X181749051Y-58873816D01*
X181753514Y-58865054D01*
X181801488Y-58814259D01*
X181869308Y-58797463D01*
X181935444Y-58819999D01*
X181974486Y-58865056D01*
X181978951Y-58873820D01*
X182103890Y-59045786D01*
X182254213Y-59196109D01*
X182426179Y-59321048D01*
X182426181Y-59321049D01*
X182426184Y-59321051D01*
X182615588Y-59417557D01*
X182817757Y-59483246D01*
X183027713Y-59516500D01*
X183027714Y-59516500D01*
X183240286Y-59516500D01*
X183240287Y-59516500D01*
X183450243Y-59483246D01*
X183652412Y-59417557D01*
X183841816Y-59321051D01*
X184013792Y-59196104D01*
X184127329Y-59082566D01*
X184188648Y-59049084D01*
X184258340Y-59054068D01*
X184314274Y-59095939D01*
X184331189Y-59126917D01*
X184380202Y-59258328D01*
X184380206Y-59258335D01*
X184466452Y-59373544D01*
X184466455Y-59373547D01*
X184581664Y-59459793D01*
X184581671Y-59459797D01*
X184716517Y-59510091D01*
X184716516Y-59510091D01*
X184723444Y-59510835D01*
X184776127Y-59516500D01*
X186571872Y-59516499D01*
X186631483Y-59510091D01*
X186766331Y-59459796D01*
X186881546Y-59373546D01*
X186967796Y-59258331D01*
X187016810Y-59126916D01*
X187058681Y-59070984D01*
X187124145Y-59046566D01*
X187192418Y-59061417D01*
X187220673Y-59082569D01*
X187334213Y-59196109D01*
X187506179Y-59321048D01*
X187506181Y-59321049D01*
X187506184Y-59321051D01*
X187695588Y-59417557D01*
X187897757Y-59483246D01*
X188107713Y-59516500D01*
X188107714Y-59516500D01*
X188320286Y-59516500D01*
X188320287Y-59516500D01*
X188530243Y-59483246D01*
X188732412Y-59417557D01*
X188921816Y-59321051D01*
X189008138Y-59258335D01*
X189093786Y-59196109D01*
X189093788Y-59196106D01*
X189093792Y-59196104D01*
X189244104Y-59045792D01*
X189244106Y-59045788D01*
X189244109Y-59045786D01*
X189369048Y-58873820D01*
X189369047Y-58873820D01*
X189369051Y-58873816D01*
X189373514Y-58865054D01*
X189421488Y-58814259D01*
X189489308Y-58797463D01*
X189555444Y-58819999D01*
X189594486Y-58865056D01*
X189598951Y-58873820D01*
X189723890Y-59045786D01*
X189874213Y-59196109D01*
X190046179Y-59321048D01*
X190046181Y-59321049D01*
X190046184Y-59321051D01*
X190235588Y-59417557D01*
X190437757Y-59483246D01*
X190647713Y-59516500D01*
X190647714Y-59516500D01*
X190860286Y-59516500D01*
X190860287Y-59516500D01*
X191070243Y-59483246D01*
X191272412Y-59417557D01*
X191461816Y-59321051D01*
X191548138Y-59258335D01*
X191633786Y-59196109D01*
X191633788Y-59196106D01*
X191633792Y-59196104D01*
X191784104Y-59045792D01*
X191784106Y-59045788D01*
X191784109Y-59045786D01*
X191909048Y-58873820D01*
X191909047Y-58873820D01*
X191909051Y-58873816D01*
X192005557Y-58684412D01*
X192071246Y-58482243D01*
X192104500Y-58272287D01*
X192104500Y-58059713D01*
X192071246Y-57849757D01*
X192005557Y-57647588D01*
X191909051Y-57458184D01*
X191909049Y-57458181D01*
X191909048Y-57458179D01*
X191784109Y-57286213D01*
X191633786Y-57135890D01*
X191461820Y-57010951D01*
X191272414Y-56914444D01*
X191272413Y-56914443D01*
X191272412Y-56914443D01*
X191070243Y-56848754D01*
X191070241Y-56848753D01*
X191070240Y-56848753D01*
X190908957Y-56823208D01*
X190860287Y-56815500D01*
X190647713Y-56815500D01*
X190599042Y-56823208D01*
X190437760Y-56848753D01*
X190235585Y-56914444D01*
X190046179Y-57010951D01*
X189874213Y-57135890D01*
X189723890Y-57286213D01*
X189598949Y-57458182D01*
X189594484Y-57466946D01*
X189546509Y-57517742D01*
X189478688Y-57534536D01*
X189412553Y-57511998D01*
X189373516Y-57466946D01*
X189369050Y-57458182D01*
X189244109Y-57286213D01*
X189093786Y-57135890D01*
X188921820Y-57010951D01*
X188732414Y-56914444D01*
X188732413Y-56914443D01*
X188732412Y-56914443D01*
X188530243Y-56848754D01*
X188530241Y-56848753D01*
X188530240Y-56848753D01*
X188368957Y-56823208D01*
X188320287Y-56815500D01*
X188107713Y-56815500D01*
X188059042Y-56823208D01*
X187897760Y-56848753D01*
X187695585Y-56914444D01*
X187506179Y-57010951D01*
X187334215Y-57135889D01*
X187220673Y-57249431D01*
X187159350Y-57282915D01*
X187089658Y-57277931D01*
X187033725Y-57236059D01*
X187016810Y-57205082D01*
X186967797Y-57073671D01*
X186967793Y-57073664D01*
X186881547Y-56958455D01*
X186881544Y-56958452D01*
X186766335Y-56872206D01*
X186766328Y-56872202D01*
X186631482Y-56821908D01*
X186631483Y-56821908D01*
X186571883Y-56815501D01*
X186571881Y-56815500D01*
X186571873Y-56815500D01*
X186571864Y-56815500D01*
X184776129Y-56815500D01*
X184776123Y-56815501D01*
X184716516Y-56821908D01*
X184581671Y-56872202D01*
X184581664Y-56872206D01*
X184466455Y-56958452D01*
X184466452Y-56958455D01*
X184380206Y-57073664D01*
X184380203Y-57073669D01*
X184331189Y-57205083D01*
X184289317Y-57261016D01*
X184223853Y-57285433D01*
X184155580Y-57270581D01*
X184127326Y-57249430D01*
X184013786Y-57135890D01*
X183841820Y-57010951D01*
X183652414Y-56914444D01*
X183652413Y-56914443D01*
X183652412Y-56914443D01*
X183450243Y-56848754D01*
X183450241Y-56848753D01*
X183450240Y-56848753D01*
X183288957Y-56823208D01*
X183240287Y-56815500D01*
X183027713Y-56815500D01*
X182979042Y-56823208D01*
X182817760Y-56848753D01*
X182615585Y-56914444D01*
X182426179Y-57010951D01*
X182254213Y-57135890D01*
X182103890Y-57286213D01*
X181978949Y-57458182D01*
X181974484Y-57466946D01*
X181926509Y-57517742D01*
X181858688Y-57534536D01*
X181792553Y-57511998D01*
X181753516Y-57466946D01*
X181749050Y-57458182D01*
X181624109Y-57286213D01*
X181473786Y-57135890D01*
X181301820Y-57010951D01*
X181112414Y-56914444D01*
X181112413Y-56914443D01*
X181112412Y-56914443D01*
X180910243Y-56848754D01*
X180910241Y-56848753D01*
X180910240Y-56848753D01*
X180748957Y-56823208D01*
X180700287Y-56815500D01*
X180487713Y-56815500D01*
X180439042Y-56823208D01*
X180277760Y-56848753D01*
X180075585Y-56914444D01*
X179886179Y-57010951D01*
X179714213Y-57135890D01*
X179563890Y-57286213D01*
X179438949Y-57458182D01*
X179434484Y-57466946D01*
X179386509Y-57517742D01*
X179318688Y-57534536D01*
X179252553Y-57511998D01*
X179213516Y-57466946D01*
X179209050Y-57458182D01*
X179084109Y-57286213D01*
X178933786Y-57135890D01*
X178761820Y-57010951D01*
X178572414Y-56914444D01*
X178572413Y-56914443D01*
X178572412Y-56914443D01*
X178370243Y-56848754D01*
X178370241Y-56848753D01*
X178370240Y-56848753D01*
X178208957Y-56823208D01*
X178160287Y-56815500D01*
X177947713Y-56815500D01*
X177899042Y-56823208D01*
X177737760Y-56848753D01*
X177535585Y-56914444D01*
X177346179Y-57010951D01*
X177174213Y-57135890D01*
X177023890Y-57286213D01*
X176898949Y-57458182D01*
X176894484Y-57466946D01*
X176846509Y-57517742D01*
X176778688Y-57534536D01*
X176712553Y-57511998D01*
X176673516Y-57466946D01*
X176669050Y-57458182D01*
X176544109Y-57286213D01*
X176393786Y-57135890D01*
X176221820Y-57010951D01*
X176032414Y-56914444D01*
X176032413Y-56914443D01*
X176032412Y-56914443D01*
X175830243Y-56848754D01*
X175830241Y-56848753D01*
X175830240Y-56848753D01*
X175668957Y-56823208D01*
X175620287Y-56815500D01*
X175407713Y-56815500D01*
X175359042Y-56823208D01*
X175197760Y-56848753D01*
X174995585Y-56914444D01*
X174806179Y-57010951D01*
X174634215Y-57135889D01*
X174520673Y-57249431D01*
X174459350Y-57282915D01*
X174389658Y-57277931D01*
X174333725Y-57236059D01*
X174316810Y-57205082D01*
X174267797Y-57073671D01*
X174267793Y-57073664D01*
X174181547Y-56958455D01*
X174181544Y-56958452D01*
X174066335Y-56872206D01*
X174066328Y-56872202D01*
X173931482Y-56821908D01*
X173931483Y-56821908D01*
X173871883Y-56815501D01*
X173871881Y-56815500D01*
X173871873Y-56815500D01*
X173871864Y-56815500D01*
X172076129Y-56815500D01*
X172076123Y-56815501D01*
X172016516Y-56821908D01*
X171881671Y-56872202D01*
X171881664Y-56872206D01*
X171766455Y-56958452D01*
X171766452Y-56958455D01*
X171680206Y-57073664D01*
X171680203Y-57073669D01*
X171631189Y-57205083D01*
X171589317Y-57261016D01*
X171523853Y-57285433D01*
X171455580Y-57270581D01*
X171427326Y-57249430D01*
X171313786Y-57135890D01*
X171141820Y-57010951D01*
X170952414Y-56914444D01*
X170952413Y-56914443D01*
X170952412Y-56914443D01*
X170750243Y-56848754D01*
X170750241Y-56848753D01*
X170750240Y-56848753D01*
X170588957Y-56823208D01*
X170540287Y-56815500D01*
X170327713Y-56815500D01*
X170279042Y-56823208D01*
X170117760Y-56848753D01*
X169915585Y-56914444D01*
X169726179Y-57010951D01*
X169554213Y-57135890D01*
X169403890Y-57286213D01*
X169278949Y-57458182D01*
X169274484Y-57466946D01*
X169226509Y-57517742D01*
X169158688Y-57534536D01*
X169092553Y-57511998D01*
X169053516Y-57466946D01*
X169049050Y-57458182D01*
X168924109Y-57286213D01*
X168773786Y-57135890D01*
X168601820Y-57010951D01*
X168412414Y-56914444D01*
X168412413Y-56914443D01*
X168412412Y-56914443D01*
X168210243Y-56848754D01*
X168210241Y-56848753D01*
X168210240Y-56848753D01*
X168048957Y-56823208D01*
X168000287Y-56815500D01*
X167787713Y-56815500D01*
X167739042Y-56823208D01*
X167577760Y-56848753D01*
X167375585Y-56914444D01*
X167186179Y-57010951D01*
X167014213Y-57135890D01*
X166863890Y-57286213D01*
X166738949Y-57458182D01*
X166734484Y-57466946D01*
X166686509Y-57517742D01*
X166618688Y-57534536D01*
X166552553Y-57511998D01*
X166513516Y-57466946D01*
X166509050Y-57458182D01*
X166384109Y-57286213D01*
X166233786Y-57135890D01*
X166061820Y-57010951D01*
X165872414Y-56914444D01*
X165872413Y-56914443D01*
X165872412Y-56914443D01*
X165670243Y-56848754D01*
X165670241Y-56848753D01*
X165670240Y-56848753D01*
X165508957Y-56823208D01*
X165460287Y-56815500D01*
X165247713Y-56815500D01*
X165199042Y-56823208D01*
X165037760Y-56848753D01*
X164835585Y-56914444D01*
X164646179Y-57010951D01*
X164474213Y-57135890D01*
X164323890Y-57286213D01*
X164198949Y-57458182D01*
X164194484Y-57466946D01*
X164146509Y-57517742D01*
X164078688Y-57534536D01*
X164012553Y-57511998D01*
X163973516Y-57466946D01*
X163969050Y-57458182D01*
X163844109Y-57286213D01*
X163693786Y-57135890D01*
X163521820Y-57010951D01*
X163332414Y-56914444D01*
X163332413Y-56914443D01*
X163332412Y-56914443D01*
X163130243Y-56848754D01*
X163130241Y-56848753D01*
X163130240Y-56848753D01*
X162968957Y-56823208D01*
X162920287Y-56815500D01*
X162707713Y-56815500D01*
X162659042Y-56823208D01*
X162497760Y-56848753D01*
X162295585Y-56914444D01*
X162106179Y-57010951D01*
X161934215Y-57135889D01*
X161820673Y-57249431D01*
X161759350Y-57282915D01*
X161689658Y-57277931D01*
X161633725Y-57236059D01*
X161616810Y-57205082D01*
X161567797Y-57073671D01*
X161567793Y-57073664D01*
X161481547Y-56958455D01*
X161481544Y-56958452D01*
X161366335Y-56872206D01*
X161366328Y-56872202D01*
X161231482Y-56821908D01*
X161231483Y-56821908D01*
X161171883Y-56815501D01*
X161171881Y-56815500D01*
X161171873Y-56815500D01*
X161171864Y-56815500D01*
X159376129Y-56815500D01*
X159376123Y-56815501D01*
X159316516Y-56821908D01*
X159181671Y-56872202D01*
X159181664Y-56872206D01*
X159066455Y-56958452D01*
X159066452Y-56958455D01*
X158980206Y-57073664D01*
X158980203Y-57073669D01*
X158931189Y-57205083D01*
X158889317Y-57261016D01*
X158823853Y-57285433D01*
X158755580Y-57270581D01*
X158727326Y-57249430D01*
X158613786Y-57135890D01*
X158441820Y-57010951D01*
X158252414Y-56914444D01*
X158252413Y-56914443D01*
X158252412Y-56914443D01*
X158050243Y-56848754D01*
X158050241Y-56848753D01*
X158050240Y-56848753D01*
X157888957Y-56823208D01*
X157840287Y-56815500D01*
X157627713Y-56815500D01*
X157579042Y-56823208D01*
X157417760Y-56848753D01*
X157215585Y-56914444D01*
X157026179Y-57010951D01*
X156854213Y-57135890D01*
X156703890Y-57286213D01*
X156578949Y-57458182D01*
X156574484Y-57466946D01*
X156526509Y-57517742D01*
X156458688Y-57534536D01*
X156392553Y-57511998D01*
X156353516Y-57466946D01*
X156349050Y-57458182D01*
X156224109Y-57286213D01*
X156073786Y-57135890D01*
X155901820Y-57010951D01*
X155712414Y-56914444D01*
X155712413Y-56914443D01*
X155712412Y-56914443D01*
X155510243Y-56848754D01*
X155510241Y-56848753D01*
X155510240Y-56848753D01*
X155348957Y-56823208D01*
X155300287Y-56815500D01*
X155087713Y-56815500D01*
X155039042Y-56823208D01*
X154877760Y-56848753D01*
X154675585Y-56914444D01*
X154486179Y-57010951D01*
X154314213Y-57135890D01*
X154163890Y-57286213D01*
X154038949Y-57458182D01*
X154034484Y-57466946D01*
X153986509Y-57517742D01*
X153918688Y-57534536D01*
X153852553Y-57511998D01*
X153813516Y-57466946D01*
X153809050Y-57458182D01*
X153684109Y-57286213D01*
X153533786Y-57135890D01*
X153361820Y-57010951D01*
X153172414Y-56914444D01*
X153172413Y-56914443D01*
X153172412Y-56914443D01*
X152970243Y-56848754D01*
X152970241Y-56848753D01*
X152970240Y-56848753D01*
X152808957Y-56823208D01*
X152760287Y-56815500D01*
X152547713Y-56815500D01*
X152499042Y-56823208D01*
X152337760Y-56848753D01*
X152135585Y-56914444D01*
X151946179Y-57010951D01*
X151774213Y-57135890D01*
X151623890Y-57286213D01*
X151498949Y-57458182D01*
X151494484Y-57466946D01*
X151446509Y-57517742D01*
X151378688Y-57534536D01*
X151312553Y-57511998D01*
X151273516Y-57466946D01*
X151269050Y-57458182D01*
X151144109Y-57286213D01*
X150993786Y-57135890D01*
X150821820Y-57010951D01*
X150632414Y-56914444D01*
X150632413Y-56914443D01*
X150632412Y-56914443D01*
X150430243Y-56848754D01*
X150430241Y-56848753D01*
X150430240Y-56848753D01*
X150268957Y-56823208D01*
X150220287Y-56815500D01*
X150007713Y-56815500D01*
X149959042Y-56823208D01*
X149797760Y-56848753D01*
X149595585Y-56914444D01*
X149406179Y-57010951D01*
X149234215Y-57135889D01*
X149120673Y-57249431D01*
X149059350Y-57282915D01*
X148989658Y-57277931D01*
X148933725Y-57236059D01*
X148916810Y-57205082D01*
X148867797Y-57073671D01*
X148867793Y-57073664D01*
X148781547Y-56958455D01*
X148781544Y-56958452D01*
X148666335Y-56872206D01*
X148666328Y-56872202D01*
X148531482Y-56821908D01*
X148531483Y-56821908D01*
X148471883Y-56815501D01*
X148471881Y-56815500D01*
X148471873Y-56815500D01*
X148471864Y-56815500D01*
X146676129Y-56815500D01*
X146676123Y-56815501D01*
X146616516Y-56821908D01*
X146481671Y-56872202D01*
X146481664Y-56872206D01*
X146366455Y-56958452D01*
X146366452Y-56958455D01*
X146280206Y-57073664D01*
X146280203Y-57073669D01*
X146231189Y-57205083D01*
X146189317Y-57261016D01*
X146123853Y-57285433D01*
X146055580Y-57270581D01*
X146027326Y-57249430D01*
X145913786Y-57135890D01*
X145741820Y-57010951D01*
X145552414Y-56914444D01*
X145552413Y-56914443D01*
X145552412Y-56914443D01*
X145350243Y-56848754D01*
X145350241Y-56848753D01*
X145350240Y-56848753D01*
X145188957Y-56823208D01*
X145140287Y-56815500D01*
X144927713Y-56815500D01*
X144879042Y-56823208D01*
X144717760Y-56848753D01*
X144515585Y-56914444D01*
X144326179Y-57010951D01*
X144154213Y-57135890D01*
X144003890Y-57286213D01*
X143878949Y-57458182D01*
X143874484Y-57466946D01*
X143826509Y-57517742D01*
X143758688Y-57534536D01*
X143692553Y-57511998D01*
X143653516Y-57466946D01*
X143649050Y-57458182D01*
X143524109Y-57286213D01*
X143373786Y-57135890D01*
X143201820Y-57010951D01*
X143012414Y-56914444D01*
X143012413Y-56914443D01*
X143012412Y-56914443D01*
X142810243Y-56848754D01*
X142810241Y-56848753D01*
X142810240Y-56848753D01*
X142648957Y-56823208D01*
X142600287Y-56815500D01*
X142387713Y-56815500D01*
X142339042Y-56823208D01*
X142177760Y-56848753D01*
X141975585Y-56914444D01*
X141786179Y-57010951D01*
X141614213Y-57135890D01*
X141463890Y-57286213D01*
X141338951Y-57458179D01*
X141242444Y-57647585D01*
X141176753Y-57849760D01*
X141143500Y-58059713D01*
X123903633Y-58059713D01*
X123903633Y-51890778D01*
X141223500Y-51890778D01*
X141223500Y-52111222D01*
X141234556Y-52181025D01*
X141257985Y-52328952D01*
X141326103Y-52538603D01*
X141326104Y-52538606D01*
X141426187Y-52735025D01*
X141555752Y-52913358D01*
X141555756Y-52913363D01*
X141711636Y-53069243D01*
X141711641Y-53069247D01*
X141799729Y-53133246D01*
X141889978Y-53198815D01*
X142018375Y-53264237D01*
X142086393Y-53298895D01*
X142086396Y-53298896D01*
X142191221Y-53332955D01*
X142296049Y-53367015D01*
X142513778Y-53401500D01*
X142513779Y-53401500D01*
X142734221Y-53401500D01*
X142734222Y-53401500D01*
X142951951Y-53367015D01*
X143161606Y-53298895D01*
X143358022Y-53198815D01*
X143536365Y-53069242D01*
X143692242Y-52913365D01*
X143821815Y-52735022D01*
X143921895Y-52538606D01*
X143990015Y-52328951D01*
X144024500Y-52111222D01*
X144024500Y-51890778D01*
X143990015Y-51673049D01*
X143967118Y-51602577D01*
X144403500Y-51602577D01*
X144403500Y-51799422D01*
X144434290Y-51993826D01*
X144495117Y-52181029D01*
X144570488Y-52328952D01*
X144584476Y-52356405D01*
X144700172Y-52515646D01*
X144839354Y-52654828D01*
X144998595Y-52770524D01*
X145081455Y-52812743D01*
X145173970Y-52859882D01*
X145173972Y-52859882D01*
X145173975Y-52859884D01*
X145274317Y-52892487D01*
X145361173Y-52920709D01*
X145555578Y-52951500D01*
X145555583Y-52951500D01*
X145752422Y-52951500D01*
X145946826Y-52920709D01*
X145969428Y-52913365D01*
X146134025Y-52859884D01*
X146309405Y-52770524D01*
X146468646Y-52654828D01*
X146607828Y-52515646D01*
X146723524Y-52356405D01*
X146812884Y-52181025D01*
X146873709Y-51993826D01*
X146890030Y-51890778D01*
X146904500Y-51799422D01*
X146904500Y-51602577D01*
X146873709Y-51408173D01*
X146812882Y-51220970D01*
X146723523Y-51045594D01*
X146607828Y-50886354D01*
X146468646Y-50747172D01*
X146309405Y-50631476D01*
X146287061Y-50620091D01*
X146134029Y-50542117D01*
X145946826Y-50481290D01*
X145752422Y-50450500D01*
X145752417Y-50450500D01*
X145555583Y-50450500D01*
X145555578Y-50450500D01*
X145361173Y-50481290D01*
X145173970Y-50542117D01*
X144998594Y-50631476D01*
X144958029Y-50660949D01*
X144839354Y-50747172D01*
X144839352Y-50747174D01*
X144839351Y-50747174D01*
X144700174Y-50886351D01*
X144700174Y-50886352D01*
X144700172Y-50886354D01*
X144663951Y-50936208D01*
X144584476Y-51045594D01*
X144495117Y-51220970D01*
X144434290Y-51408173D01*
X144403500Y-51602577D01*
X143967118Y-51602577D01*
X143921895Y-51463394D01*
X143921895Y-51463393D01*
X143887237Y-51395375D01*
X143821815Y-51266978D01*
X143788392Y-51220975D01*
X143692247Y-51088641D01*
X143692243Y-51088636D01*
X143536363Y-50932756D01*
X143536358Y-50932752D01*
X143358025Y-50803187D01*
X143358024Y-50803186D01*
X143358022Y-50803185D01*
X143275917Y-50761350D01*
X143161606Y-50703104D01*
X143161603Y-50703103D01*
X142951952Y-50634985D01*
X142843086Y-50617742D01*
X142734222Y-50600500D01*
X142513778Y-50600500D01*
X142441201Y-50611995D01*
X142296047Y-50634985D01*
X142086396Y-50703103D01*
X142086393Y-50703104D01*
X141889974Y-50803187D01*
X141711641Y-50932752D01*
X141711636Y-50932756D01*
X141555756Y-51088636D01*
X141555752Y-51088641D01*
X141426187Y-51266974D01*
X141326104Y-51463393D01*
X141326103Y-51463396D01*
X141257985Y-51673047D01*
X141257985Y-51673049D01*
X141223500Y-51890778D01*
X123903633Y-51890778D01*
X123903633Y-46440778D01*
X141223500Y-46440778D01*
X141223500Y-46661221D01*
X141257985Y-46878952D01*
X141326103Y-47088603D01*
X141326104Y-47088606D01*
X141354241Y-47143826D01*
X141410589Y-47254414D01*
X141426187Y-47285025D01*
X141555752Y-47463358D01*
X141555756Y-47463363D01*
X141711636Y-47619243D01*
X141711641Y-47619247D01*
X141863152Y-47729325D01*
X141889978Y-47748815D01*
X141999903Y-47804825D01*
X142086393Y-47848895D01*
X142086396Y-47848896D01*
X142191221Y-47882955D01*
X142296049Y-47917015D01*
X142513778Y-47951500D01*
X142513779Y-47951500D01*
X142734221Y-47951500D01*
X142734222Y-47951500D01*
X142951951Y-47917015D01*
X143161606Y-47848895D01*
X143358022Y-47748815D01*
X143536365Y-47619242D01*
X143692242Y-47463365D01*
X143821815Y-47285022D01*
X143921895Y-47088606D01*
X143990015Y-46878951D01*
X144010031Y-46752577D01*
X144403500Y-46752577D01*
X144403500Y-46949422D01*
X144434290Y-47143826D01*
X144495117Y-47331029D01*
X144562545Y-47463363D01*
X144584476Y-47506405D01*
X144700172Y-47665646D01*
X144839354Y-47804828D01*
X144998595Y-47920524D01*
X145023452Y-47933189D01*
X145173970Y-48009882D01*
X145173972Y-48009882D01*
X145173975Y-48009884D01*
X145274317Y-48042487D01*
X145361173Y-48070709D01*
X145555578Y-48101500D01*
X145555583Y-48101500D01*
X145752422Y-48101500D01*
X145946826Y-48070709D01*
X145953772Y-48068452D01*
X146134025Y-48009884D01*
X146309405Y-47920524D01*
X146468646Y-47804828D01*
X146607828Y-47665646D01*
X146723524Y-47506405D01*
X146812884Y-47331025D01*
X146873709Y-47143826D01*
X146882455Y-47088606D01*
X146904500Y-46949422D01*
X146904500Y-46752577D01*
X146887341Y-46644239D01*
X146885040Y-46629713D01*
X189173500Y-46629713D01*
X189173500Y-46842287D01*
X189206754Y-47052243D01*
X189236511Y-47143826D01*
X189272444Y-47254414D01*
X189368951Y-47443820D01*
X189493890Y-47615786D01*
X189607430Y-47729326D01*
X189640915Y-47790649D01*
X189635931Y-47860341D01*
X189594059Y-47916274D01*
X189563083Y-47933189D01*
X189431669Y-47982203D01*
X189431664Y-47982206D01*
X189316455Y-48068452D01*
X189316452Y-48068455D01*
X189230206Y-48183664D01*
X189230202Y-48183671D01*
X189179908Y-48318517D01*
X189173501Y-48378116D01*
X189173501Y-48378123D01*
X189173500Y-48378135D01*
X189173500Y-50173870D01*
X189173501Y-50173876D01*
X189179908Y-50233483D01*
X189230202Y-50368328D01*
X189230206Y-50368335D01*
X189316452Y-50483544D01*
X189316455Y-50483547D01*
X189431664Y-50569793D01*
X189431671Y-50569797D01*
X189563082Y-50618810D01*
X189619016Y-50660681D01*
X189643433Y-50726145D01*
X189628582Y-50794418D01*
X189607431Y-50822673D01*
X189493889Y-50936215D01*
X189368951Y-51108179D01*
X189272444Y-51297585D01*
X189206753Y-51499760D01*
X189173500Y-51709713D01*
X189173500Y-51922286D01*
X189203424Y-52111222D01*
X189206754Y-52132243D01*
X189222604Y-52181025D01*
X189272444Y-52334414D01*
X189368951Y-52523820D01*
X189493890Y-52695786D01*
X189644213Y-52846109D01*
X189816179Y-52971048D01*
X189816181Y-52971049D01*
X189816184Y-52971051D01*
X190005588Y-53067557D01*
X190207757Y-53133246D01*
X190417713Y-53166500D01*
X190417714Y-53166500D01*
X190630286Y-53166500D01*
X190630287Y-53166500D01*
X190840243Y-53133246D01*
X191042412Y-53067557D01*
X191231816Y-52971051D01*
X191258726Y-52951500D01*
X191403786Y-52846109D01*
X191403788Y-52846106D01*
X191403792Y-52846104D01*
X191554104Y-52695792D01*
X191554106Y-52695788D01*
X191554109Y-52695786D01*
X191663086Y-52545789D01*
X191679051Y-52523816D01*
X191775557Y-52334412D01*
X191841246Y-52132243D01*
X191874500Y-51922287D01*
X191874500Y-51709713D01*
X191841246Y-51499757D01*
X191775557Y-51297588D01*
X191679051Y-51108184D01*
X191679049Y-51108181D01*
X191679048Y-51108179D01*
X191554109Y-50936213D01*
X191440569Y-50822673D01*
X191407084Y-50761350D01*
X191412068Y-50691658D01*
X191453940Y-50635725D01*
X191484915Y-50618810D01*
X191616331Y-50569796D01*
X191731546Y-50483546D01*
X191817796Y-50368331D01*
X191868091Y-50233483D01*
X191874500Y-50173873D01*
X191874499Y-48378128D01*
X191868091Y-48318517D01*
X191817796Y-48183669D01*
X191817795Y-48183668D01*
X191817793Y-48183664D01*
X191731547Y-48068455D01*
X191731544Y-48068452D01*
X191616335Y-47982206D01*
X191616328Y-47982202D01*
X191484917Y-47933189D01*
X191428983Y-47891318D01*
X191404566Y-47825853D01*
X191419418Y-47757580D01*
X191440563Y-47729332D01*
X191554104Y-47615792D01*
X191679051Y-47443816D01*
X191775557Y-47254412D01*
X191841246Y-47052243D01*
X191874500Y-46842287D01*
X191874500Y-46629713D01*
X191841246Y-46419757D01*
X191775557Y-46217588D01*
X191679051Y-46028184D01*
X191679049Y-46028181D01*
X191679048Y-46028179D01*
X191554109Y-45856213D01*
X191403786Y-45705890D01*
X191231820Y-45580951D01*
X191042414Y-45484444D01*
X191042413Y-45484443D01*
X191042412Y-45484443D01*
X190840243Y-45418754D01*
X190840241Y-45418753D01*
X190840240Y-45418753D01*
X190678957Y-45393208D01*
X190630287Y-45385500D01*
X190417713Y-45385500D01*
X190369042Y-45393208D01*
X190207760Y-45418753D01*
X190005585Y-45484444D01*
X189816179Y-45580951D01*
X189644213Y-45705890D01*
X189493890Y-45856213D01*
X189368951Y-46028179D01*
X189272444Y-46217585D01*
X189206753Y-46419760D01*
X189184831Y-46558172D01*
X189173500Y-46629713D01*
X146885040Y-46629713D01*
X146879976Y-46597742D01*
X146873709Y-46558174D01*
X146812884Y-46370975D01*
X146812882Y-46370972D01*
X146812882Y-46370970D01*
X146723523Y-46195594D01*
X146607828Y-46036354D01*
X146468646Y-45897172D01*
X146309405Y-45781476D01*
X146134029Y-45692117D01*
X145946826Y-45631290D01*
X145752422Y-45600500D01*
X145752417Y-45600500D01*
X145555583Y-45600500D01*
X145555578Y-45600500D01*
X145361173Y-45631290D01*
X145173970Y-45692117D01*
X144998594Y-45781476D01*
X144907741Y-45847485D01*
X144839354Y-45897172D01*
X144839352Y-45897174D01*
X144839351Y-45897174D01*
X144700174Y-46036351D01*
X144700174Y-46036352D01*
X144700172Y-46036354D01*
X144650485Y-46104741D01*
X144584476Y-46195594D01*
X144495117Y-46370970D01*
X144434290Y-46558173D01*
X144403500Y-46752577D01*
X144010031Y-46752577D01*
X144024500Y-46661222D01*
X144024500Y-46440778D01*
X143990015Y-46223049D01*
X143929355Y-46036354D01*
X143921896Y-46013396D01*
X143921895Y-46013393D01*
X143841806Y-45856213D01*
X143821815Y-45816978D01*
X143741110Y-45705896D01*
X143692247Y-45638641D01*
X143692243Y-45638636D01*
X143536363Y-45482756D01*
X143536358Y-45482752D01*
X143358025Y-45353187D01*
X143358024Y-45353186D01*
X143358022Y-45353185D01*
X143295096Y-45321122D01*
X143161606Y-45253104D01*
X143161603Y-45253103D01*
X142951952Y-45184985D01*
X142843086Y-45167742D01*
X142734222Y-45150500D01*
X142513778Y-45150500D01*
X142441201Y-45161995D01*
X142296047Y-45184985D01*
X142086396Y-45253103D01*
X142086393Y-45253104D01*
X141889974Y-45353187D01*
X141711641Y-45482752D01*
X141711636Y-45482756D01*
X141555756Y-45638636D01*
X141555752Y-45638641D01*
X141426187Y-45816974D01*
X141326104Y-46013393D01*
X141326103Y-46013396D01*
X141257985Y-46223047D01*
X141223500Y-46440778D01*
X123903633Y-46440778D01*
X123903633Y-40279713D01*
X141143500Y-40279713D01*
X141143500Y-40492286D01*
X141176753Y-40702239D01*
X141242444Y-40904414D01*
X141338951Y-41093820D01*
X141463890Y-41265786D01*
X141614213Y-41416109D01*
X141786179Y-41541048D01*
X141786181Y-41541049D01*
X141786184Y-41541051D01*
X141975588Y-41637557D01*
X142177757Y-41703246D01*
X142387713Y-41736500D01*
X142387714Y-41736500D01*
X142600286Y-41736500D01*
X142600287Y-41736500D01*
X142810243Y-41703246D01*
X143012412Y-41637557D01*
X143201816Y-41541051D01*
X143288138Y-41478335D01*
X143373786Y-41416109D01*
X143373788Y-41416106D01*
X143373792Y-41416104D01*
X143524104Y-41265792D01*
X143524106Y-41265788D01*
X143524109Y-41265786D01*
X143649048Y-41093820D01*
X143649047Y-41093820D01*
X143649051Y-41093816D01*
X143653514Y-41085054D01*
X143701488Y-41034259D01*
X143769308Y-41017463D01*
X143835444Y-41039999D01*
X143874486Y-41085056D01*
X143878951Y-41093820D01*
X144003890Y-41265786D01*
X144154213Y-41416109D01*
X144326179Y-41541048D01*
X144326181Y-41541049D01*
X144326184Y-41541051D01*
X144515588Y-41637557D01*
X144717757Y-41703246D01*
X144927713Y-41736500D01*
X144927714Y-41736500D01*
X145140286Y-41736500D01*
X145140287Y-41736500D01*
X145350243Y-41703246D01*
X145552412Y-41637557D01*
X145741816Y-41541051D01*
X145913792Y-41416104D01*
X146027329Y-41302566D01*
X146088648Y-41269084D01*
X146158340Y-41274068D01*
X146214274Y-41315939D01*
X146231189Y-41346917D01*
X146280202Y-41478328D01*
X146280206Y-41478335D01*
X146366452Y-41593544D01*
X146366455Y-41593547D01*
X146481664Y-41679793D01*
X146481671Y-41679797D01*
X146616517Y-41730091D01*
X146616516Y-41730091D01*
X146623444Y-41730835D01*
X146676127Y-41736500D01*
X148471872Y-41736499D01*
X148531483Y-41730091D01*
X148666331Y-41679796D01*
X148781546Y-41593546D01*
X148867796Y-41478331D01*
X148916810Y-41346916D01*
X148958681Y-41290984D01*
X149024145Y-41266566D01*
X149092418Y-41281417D01*
X149120673Y-41302569D01*
X149234213Y-41416109D01*
X149406179Y-41541048D01*
X149406181Y-41541049D01*
X149406184Y-41541051D01*
X149595588Y-41637557D01*
X149797757Y-41703246D01*
X150007713Y-41736500D01*
X150007714Y-41736500D01*
X150220286Y-41736500D01*
X150220287Y-41736500D01*
X150430243Y-41703246D01*
X150632412Y-41637557D01*
X150821816Y-41541051D01*
X150908138Y-41478335D01*
X150993786Y-41416109D01*
X150993788Y-41416106D01*
X150993792Y-41416104D01*
X151144104Y-41265792D01*
X151144106Y-41265788D01*
X151144109Y-41265786D01*
X151269048Y-41093820D01*
X151269047Y-41093820D01*
X151269051Y-41093816D01*
X151273514Y-41085054D01*
X151321488Y-41034259D01*
X151389308Y-41017463D01*
X151455444Y-41039999D01*
X151494486Y-41085056D01*
X151498951Y-41093820D01*
X151623890Y-41265786D01*
X151774213Y-41416109D01*
X151946179Y-41541048D01*
X151946181Y-41541049D01*
X151946184Y-41541051D01*
X152135588Y-41637557D01*
X152337757Y-41703246D01*
X152547713Y-41736500D01*
X152547714Y-41736500D01*
X152760286Y-41736500D01*
X152760287Y-41736500D01*
X152970243Y-41703246D01*
X153172412Y-41637557D01*
X153361816Y-41541051D01*
X153448138Y-41478335D01*
X153533786Y-41416109D01*
X153533788Y-41416106D01*
X153533792Y-41416104D01*
X153684104Y-41265792D01*
X153684106Y-41265788D01*
X153684109Y-41265786D01*
X153809048Y-41093820D01*
X153809047Y-41093820D01*
X153809051Y-41093816D01*
X153813514Y-41085054D01*
X153861488Y-41034259D01*
X153929308Y-41017463D01*
X153995444Y-41039999D01*
X154034486Y-41085056D01*
X154038951Y-41093820D01*
X154163890Y-41265786D01*
X154314213Y-41416109D01*
X154486179Y-41541048D01*
X154486181Y-41541049D01*
X154486184Y-41541051D01*
X154675588Y-41637557D01*
X154877757Y-41703246D01*
X155087713Y-41736500D01*
X155087714Y-41736500D01*
X155300286Y-41736500D01*
X155300287Y-41736500D01*
X155510243Y-41703246D01*
X155712412Y-41637557D01*
X155901816Y-41541051D01*
X155988138Y-41478335D01*
X156073786Y-41416109D01*
X156073788Y-41416106D01*
X156073792Y-41416104D01*
X156224104Y-41265792D01*
X156224106Y-41265788D01*
X156224109Y-41265786D01*
X156349048Y-41093820D01*
X156349047Y-41093820D01*
X156349051Y-41093816D01*
X156353514Y-41085054D01*
X156401488Y-41034259D01*
X156469308Y-41017463D01*
X156535444Y-41039999D01*
X156574486Y-41085056D01*
X156578951Y-41093820D01*
X156703890Y-41265786D01*
X156854213Y-41416109D01*
X157026179Y-41541048D01*
X157026181Y-41541049D01*
X157026184Y-41541051D01*
X157215588Y-41637557D01*
X157417757Y-41703246D01*
X157627713Y-41736500D01*
X157627714Y-41736500D01*
X157840286Y-41736500D01*
X157840287Y-41736500D01*
X158050243Y-41703246D01*
X158252412Y-41637557D01*
X158441816Y-41541051D01*
X158613792Y-41416104D01*
X158727329Y-41302566D01*
X158788648Y-41269084D01*
X158858340Y-41274068D01*
X158914274Y-41315939D01*
X158931189Y-41346917D01*
X158980202Y-41478328D01*
X158980206Y-41478335D01*
X159066452Y-41593544D01*
X159066455Y-41593547D01*
X159181664Y-41679793D01*
X159181671Y-41679797D01*
X159316517Y-41730091D01*
X159316516Y-41730091D01*
X159323444Y-41730835D01*
X159376127Y-41736500D01*
X161171872Y-41736499D01*
X161231483Y-41730091D01*
X161366331Y-41679796D01*
X161481546Y-41593546D01*
X161567796Y-41478331D01*
X161616810Y-41346916D01*
X161658681Y-41290984D01*
X161724145Y-41266566D01*
X161792418Y-41281417D01*
X161820673Y-41302569D01*
X161934213Y-41416109D01*
X162106179Y-41541048D01*
X162106181Y-41541049D01*
X162106184Y-41541051D01*
X162295588Y-41637557D01*
X162497757Y-41703246D01*
X162707713Y-41736500D01*
X162707714Y-41736500D01*
X162920286Y-41736500D01*
X162920287Y-41736500D01*
X163130243Y-41703246D01*
X163332412Y-41637557D01*
X163521816Y-41541051D01*
X163608138Y-41478335D01*
X163693786Y-41416109D01*
X163693788Y-41416106D01*
X163693792Y-41416104D01*
X163844104Y-41265792D01*
X163844106Y-41265788D01*
X163844109Y-41265786D01*
X163969048Y-41093820D01*
X163969047Y-41093820D01*
X163969051Y-41093816D01*
X163973514Y-41085054D01*
X164021488Y-41034259D01*
X164089308Y-41017463D01*
X164155444Y-41039999D01*
X164194486Y-41085056D01*
X164198951Y-41093820D01*
X164323890Y-41265786D01*
X164474213Y-41416109D01*
X164646179Y-41541048D01*
X164646181Y-41541049D01*
X164646184Y-41541051D01*
X164835588Y-41637557D01*
X165037757Y-41703246D01*
X165247713Y-41736500D01*
X165247714Y-41736500D01*
X165460286Y-41736500D01*
X165460287Y-41736500D01*
X165670243Y-41703246D01*
X165872412Y-41637557D01*
X166061816Y-41541051D01*
X166148138Y-41478335D01*
X166233786Y-41416109D01*
X166233788Y-41416106D01*
X166233792Y-41416104D01*
X166384104Y-41265792D01*
X166384106Y-41265788D01*
X166384109Y-41265786D01*
X166509048Y-41093820D01*
X166509047Y-41093820D01*
X166509051Y-41093816D01*
X166513514Y-41085054D01*
X166561488Y-41034259D01*
X166629308Y-41017463D01*
X166695444Y-41039999D01*
X166734486Y-41085056D01*
X166738951Y-41093820D01*
X166863890Y-41265786D01*
X167014213Y-41416109D01*
X167186179Y-41541048D01*
X167186181Y-41541049D01*
X167186184Y-41541051D01*
X167375588Y-41637557D01*
X167577757Y-41703246D01*
X167787713Y-41736500D01*
X167787714Y-41736500D01*
X168000286Y-41736500D01*
X168000287Y-41736500D01*
X168210243Y-41703246D01*
X168412412Y-41637557D01*
X168601816Y-41541051D01*
X168688138Y-41478335D01*
X168773786Y-41416109D01*
X168773788Y-41416106D01*
X168773792Y-41416104D01*
X168924104Y-41265792D01*
X168924106Y-41265788D01*
X168924109Y-41265786D01*
X169049048Y-41093820D01*
X169049047Y-41093820D01*
X169049051Y-41093816D01*
X169053514Y-41085054D01*
X169101488Y-41034259D01*
X169169308Y-41017463D01*
X169235444Y-41039999D01*
X169274486Y-41085056D01*
X169278951Y-41093820D01*
X169403890Y-41265786D01*
X169554213Y-41416109D01*
X169726179Y-41541048D01*
X169726181Y-41541049D01*
X169726184Y-41541051D01*
X169915588Y-41637557D01*
X170117757Y-41703246D01*
X170327713Y-41736500D01*
X170327714Y-41736500D01*
X170540286Y-41736500D01*
X170540287Y-41736500D01*
X170750243Y-41703246D01*
X170952412Y-41637557D01*
X171141816Y-41541051D01*
X171313792Y-41416104D01*
X171427329Y-41302566D01*
X171488648Y-41269084D01*
X171558340Y-41274068D01*
X171614274Y-41315939D01*
X171631189Y-41346917D01*
X171680202Y-41478328D01*
X171680206Y-41478335D01*
X171766452Y-41593544D01*
X171766455Y-41593547D01*
X171881664Y-41679793D01*
X171881671Y-41679797D01*
X172016517Y-41730091D01*
X172016516Y-41730091D01*
X172023444Y-41730835D01*
X172076127Y-41736500D01*
X173871872Y-41736499D01*
X173931483Y-41730091D01*
X174066331Y-41679796D01*
X174181546Y-41593546D01*
X174267796Y-41478331D01*
X174316810Y-41346916D01*
X174358681Y-41290984D01*
X174424145Y-41266566D01*
X174492418Y-41281417D01*
X174520673Y-41302569D01*
X174634213Y-41416109D01*
X174806179Y-41541048D01*
X174806181Y-41541049D01*
X174806184Y-41541051D01*
X174995588Y-41637557D01*
X175197757Y-41703246D01*
X175407713Y-41736500D01*
X175407714Y-41736500D01*
X175620286Y-41736500D01*
X175620287Y-41736500D01*
X175830243Y-41703246D01*
X176032412Y-41637557D01*
X176221816Y-41541051D01*
X176308138Y-41478335D01*
X176393786Y-41416109D01*
X176393788Y-41416106D01*
X176393792Y-41416104D01*
X176544104Y-41265792D01*
X176544106Y-41265788D01*
X176544109Y-41265786D01*
X176669048Y-41093820D01*
X176669047Y-41093820D01*
X176669051Y-41093816D01*
X176673514Y-41085054D01*
X176721488Y-41034259D01*
X176789308Y-41017463D01*
X176855444Y-41039999D01*
X176894486Y-41085056D01*
X176898951Y-41093820D01*
X177023890Y-41265786D01*
X177174213Y-41416109D01*
X177346179Y-41541048D01*
X177346181Y-41541049D01*
X177346184Y-41541051D01*
X177535588Y-41637557D01*
X177737757Y-41703246D01*
X177947713Y-41736500D01*
X177947714Y-41736500D01*
X178160286Y-41736500D01*
X178160287Y-41736500D01*
X178370243Y-41703246D01*
X178572412Y-41637557D01*
X178761816Y-41541051D01*
X178848138Y-41478335D01*
X178933786Y-41416109D01*
X178933788Y-41416106D01*
X178933792Y-41416104D01*
X179084104Y-41265792D01*
X179084106Y-41265788D01*
X179084109Y-41265786D01*
X179209048Y-41093820D01*
X179209047Y-41093820D01*
X179209051Y-41093816D01*
X179213514Y-41085054D01*
X179261488Y-41034259D01*
X179329308Y-41017463D01*
X179395444Y-41039999D01*
X179434486Y-41085056D01*
X179438951Y-41093820D01*
X179563890Y-41265786D01*
X179714213Y-41416109D01*
X179886179Y-41541048D01*
X179886181Y-41541049D01*
X179886184Y-41541051D01*
X180075588Y-41637557D01*
X180277757Y-41703246D01*
X180487713Y-41736500D01*
X180487714Y-41736500D01*
X180700286Y-41736500D01*
X180700287Y-41736500D01*
X180910243Y-41703246D01*
X181112412Y-41637557D01*
X181301816Y-41541051D01*
X181388138Y-41478335D01*
X181473786Y-41416109D01*
X181473788Y-41416106D01*
X181473792Y-41416104D01*
X181624104Y-41265792D01*
X181624106Y-41265788D01*
X181624109Y-41265786D01*
X181749048Y-41093820D01*
X181749047Y-41093820D01*
X181749051Y-41093816D01*
X181753514Y-41085054D01*
X181801488Y-41034259D01*
X181869308Y-41017463D01*
X181935444Y-41039999D01*
X181974486Y-41085056D01*
X181978951Y-41093820D01*
X182103890Y-41265786D01*
X182254213Y-41416109D01*
X182426179Y-41541048D01*
X182426181Y-41541049D01*
X182426184Y-41541051D01*
X182615588Y-41637557D01*
X182817757Y-41703246D01*
X183027713Y-41736500D01*
X183027714Y-41736500D01*
X183240286Y-41736500D01*
X183240287Y-41736500D01*
X183450243Y-41703246D01*
X183652412Y-41637557D01*
X183841816Y-41541051D01*
X184013792Y-41416104D01*
X184127329Y-41302566D01*
X184188648Y-41269084D01*
X184258340Y-41274068D01*
X184314274Y-41315939D01*
X184331189Y-41346917D01*
X184380202Y-41478328D01*
X184380206Y-41478335D01*
X184466452Y-41593544D01*
X184466455Y-41593547D01*
X184581664Y-41679793D01*
X184581671Y-41679797D01*
X184716517Y-41730091D01*
X184716516Y-41730091D01*
X184723444Y-41730835D01*
X184776127Y-41736500D01*
X186571872Y-41736499D01*
X186631483Y-41730091D01*
X186766331Y-41679796D01*
X186881546Y-41593546D01*
X186967796Y-41478331D01*
X187016810Y-41346916D01*
X187058681Y-41290984D01*
X187124145Y-41266566D01*
X187192418Y-41281417D01*
X187220673Y-41302569D01*
X187334213Y-41416109D01*
X187506179Y-41541048D01*
X187506181Y-41541049D01*
X187506184Y-41541051D01*
X187695588Y-41637557D01*
X187897757Y-41703246D01*
X188107713Y-41736500D01*
X188107714Y-41736500D01*
X188320286Y-41736500D01*
X188320287Y-41736500D01*
X188530243Y-41703246D01*
X188732412Y-41637557D01*
X188921816Y-41541051D01*
X189008138Y-41478335D01*
X189093786Y-41416109D01*
X189093788Y-41416106D01*
X189093792Y-41416104D01*
X189244104Y-41265792D01*
X189244106Y-41265788D01*
X189244109Y-41265786D01*
X189369048Y-41093820D01*
X189369047Y-41093820D01*
X189369051Y-41093816D01*
X189373514Y-41085054D01*
X189421488Y-41034259D01*
X189489308Y-41017463D01*
X189555444Y-41039999D01*
X189594486Y-41085056D01*
X189598951Y-41093820D01*
X189723890Y-41265786D01*
X189874213Y-41416109D01*
X190046179Y-41541048D01*
X190046181Y-41541049D01*
X190046184Y-41541051D01*
X190235588Y-41637557D01*
X190437757Y-41703246D01*
X190647713Y-41736500D01*
X190647714Y-41736500D01*
X190860286Y-41736500D01*
X190860287Y-41736500D01*
X191070243Y-41703246D01*
X191272412Y-41637557D01*
X191461816Y-41541051D01*
X191548138Y-41478335D01*
X191633786Y-41416109D01*
X191633788Y-41416106D01*
X191633792Y-41416104D01*
X191784104Y-41265792D01*
X191784106Y-41265788D01*
X191784109Y-41265786D01*
X191909048Y-41093820D01*
X191909047Y-41093820D01*
X191909051Y-41093816D01*
X192005557Y-40904412D01*
X192071246Y-40702243D01*
X192104500Y-40492287D01*
X192104500Y-40279713D01*
X192071246Y-40069757D01*
X192005557Y-39867588D01*
X191909051Y-39678184D01*
X191909049Y-39678181D01*
X191909048Y-39678179D01*
X191784109Y-39506213D01*
X191633786Y-39355890D01*
X191461820Y-39230951D01*
X191272414Y-39134444D01*
X191272413Y-39134443D01*
X191272412Y-39134443D01*
X191070243Y-39068754D01*
X191070241Y-39068753D01*
X191070240Y-39068753D01*
X190908957Y-39043208D01*
X190860287Y-39035500D01*
X190647713Y-39035500D01*
X190599042Y-39043208D01*
X190437760Y-39068753D01*
X190235585Y-39134444D01*
X190046179Y-39230951D01*
X189874213Y-39355890D01*
X189723890Y-39506213D01*
X189598949Y-39678182D01*
X189594484Y-39686946D01*
X189546509Y-39737742D01*
X189478688Y-39754536D01*
X189412553Y-39731998D01*
X189373516Y-39686946D01*
X189369050Y-39678182D01*
X189244109Y-39506213D01*
X189093786Y-39355890D01*
X188921820Y-39230951D01*
X188732414Y-39134444D01*
X188732413Y-39134443D01*
X188732412Y-39134443D01*
X188530243Y-39068754D01*
X188530241Y-39068753D01*
X188530240Y-39068753D01*
X188368957Y-39043208D01*
X188320287Y-39035500D01*
X188107713Y-39035500D01*
X188059042Y-39043208D01*
X187897760Y-39068753D01*
X187695585Y-39134444D01*
X187506179Y-39230951D01*
X187334215Y-39355889D01*
X187220673Y-39469431D01*
X187159350Y-39502915D01*
X187089658Y-39497931D01*
X187033725Y-39456059D01*
X187016810Y-39425082D01*
X186967797Y-39293671D01*
X186967793Y-39293664D01*
X186881547Y-39178455D01*
X186881544Y-39178452D01*
X186766335Y-39092206D01*
X186766328Y-39092202D01*
X186631482Y-39041908D01*
X186631483Y-39041908D01*
X186571883Y-39035501D01*
X186571881Y-39035500D01*
X186571873Y-39035500D01*
X186571864Y-39035500D01*
X184776129Y-39035500D01*
X184776123Y-39035501D01*
X184716516Y-39041908D01*
X184581671Y-39092202D01*
X184581664Y-39092206D01*
X184466455Y-39178452D01*
X184466452Y-39178455D01*
X184380206Y-39293664D01*
X184380203Y-39293669D01*
X184331189Y-39425083D01*
X184289317Y-39481016D01*
X184223853Y-39505433D01*
X184155580Y-39490581D01*
X184127326Y-39469430D01*
X184013786Y-39355890D01*
X183841820Y-39230951D01*
X183652414Y-39134444D01*
X183652413Y-39134443D01*
X183652412Y-39134443D01*
X183450243Y-39068754D01*
X183450241Y-39068753D01*
X183450240Y-39068753D01*
X183288957Y-39043208D01*
X183240287Y-39035500D01*
X183027713Y-39035500D01*
X182979042Y-39043208D01*
X182817760Y-39068753D01*
X182615585Y-39134444D01*
X182426179Y-39230951D01*
X182254213Y-39355890D01*
X182103890Y-39506213D01*
X181978949Y-39678182D01*
X181974484Y-39686946D01*
X181926509Y-39737742D01*
X181858688Y-39754536D01*
X181792553Y-39731998D01*
X181753516Y-39686946D01*
X181749050Y-39678182D01*
X181624109Y-39506213D01*
X181473786Y-39355890D01*
X181301820Y-39230951D01*
X181112414Y-39134444D01*
X181112413Y-39134443D01*
X181112412Y-39134443D01*
X180910243Y-39068754D01*
X180910241Y-39068753D01*
X180910240Y-39068753D01*
X180748957Y-39043208D01*
X180700287Y-39035500D01*
X180487713Y-39035500D01*
X180439042Y-39043208D01*
X180277760Y-39068753D01*
X180075585Y-39134444D01*
X179886179Y-39230951D01*
X179714213Y-39355890D01*
X179563890Y-39506213D01*
X179438949Y-39678182D01*
X179434484Y-39686946D01*
X179386509Y-39737742D01*
X179318688Y-39754536D01*
X179252553Y-39731998D01*
X179213516Y-39686946D01*
X179209050Y-39678182D01*
X179084109Y-39506213D01*
X178933786Y-39355890D01*
X178761820Y-39230951D01*
X178572414Y-39134444D01*
X178572413Y-39134443D01*
X178572412Y-39134443D01*
X178370243Y-39068754D01*
X178370241Y-39068753D01*
X178370240Y-39068753D01*
X178208957Y-39043208D01*
X178160287Y-39035500D01*
X177947713Y-39035500D01*
X177899042Y-39043208D01*
X177737760Y-39068753D01*
X177535585Y-39134444D01*
X177346179Y-39230951D01*
X177174213Y-39355890D01*
X177023890Y-39506213D01*
X176898949Y-39678182D01*
X176894484Y-39686946D01*
X176846509Y-39737742D01*
X176778688Y-39754536D01*
X176712553Y-39731998D01*
X176673516Y-39686946D01*
X176669050Y-39678182D01*
X176544109Y-39506213D01*
X176393786Y-39355890D01*
X176221820Y-39230951D01*
X176032414Y-39134444D01*
X176032413Y-39134443D01*
X176032412Y-39134443D01*
X175830243Y-39068754D01*
X175830241Y-39068753D01*
X175830240Y-39068753D01*
X175668957Y-39043208D01*
X175620287Y-39035500D01*
X175407713Y-39035500D01*
X175359042Y-39043208D01*
X175197760Y-39068753D01*
X174995585Y-39134444D01*
X174806179Y-39230951D01*
X174634215Y-39355889D01*
X174520673Y-39469431D01*
X174459350Y-39502915D01*
X174389658Y-39497931D01*
X174333725Y-39456059D01*
X174316810Y-39425082D01*
X174267797Y-39293671D01*
X174267793Y-39293664D01*
X174181547Y-39178455D01*
X174181544Y-39178452D01*
X174066335Y-39092206D01*
X174066328Y-39092202D01*
X173931482Y-39041908D01*
X173931483Y-39041908D01*
X173871883Y-39035501D01*
X173871881Y-39035500D01*
X173871873Y-39035500D01*
X173871864Y-39035500D01*
X172076129Y-39035500D01*
X172076123Y-39035501D01*
X172016516Y-39041908D01*
X171881671Y-39092202D01*
X171881664Y-39092206D01*
X171766455Y-39178452D01*
X171766452Y-39178455D01*
X171680206Y-39293664D01*
X171680203Y-39293669D01*
X171631189Y-39425083D01*
X171589317Y-39481016D01*
X171523853Y-39505433D01*
X171455580Y-39490581D01*
X171427326Y-39469430D01*
X171313786Y-39355890D01*
X171141820Y-39230951D01*
X170952414Y-39134444D01*
X170952413Y-39134443D01*
X170952412Y-39134443D01*
X170750243Y-39068754D01*
X170750241Y-39068753D01*
X170750240Y-39068753D01*
X170588957Y-39043208D01*
X170540287Y-39035500D01*
X170327713Y-39035500D01*
X170279042Y-39043208D01*
X170117760Y-39068753D01*
X169915585Y-39134444D01*
X169726179Y-39230951D01*
X169554213Y-39355890D01*
X169403890Y-39506213D01*
X169278949Y-39678182D01*
X169274484Y-39686946D01*
X169226509Y-39737742D01*
X169158688Y-39754536D01*
X169092553Y-39731998D01*
X169053516Y-39686946D01*
X169049050Y-39678182D01*
X168924109Y-39506213D01*
X168773786Y-39355890D01*
X168601820Y-39230951D01*
X168412414Y-39134444D01*
X168412413Y-39134443D01*
X168412412Y-39134443D01*
X168210243Y-39068754D01*
X168210241Y-39068753D01*
X168210240Y-39068753D01*
X168048957Y-39043208D01*
X168000287Y-39035500D01*
X167787713Y-39035500D01*
X167739042Y-39043208D01*
X167577760Y-39068753D01*
X167375585Y-39134444D01*
X167186179Y-39230951D01*
X167014213Y-39355890D01*
X166863890Y-39506213D01*
X166738949Y-39678182D01*
X166734484Y-39686946D01*
X166686509Y-39737742D01*
X166618688Y-39754536D01*
X166552553Y-39731998D01*
X166513516Y-39686946D01*
X166509050Y-39678182D01*
X166384109Y-39506213D01*
X166233786Y-39355890D01*
X166061820Y-39230951D01*
X165872414Y-39134444D01*
X165872413Y-39134443D01*
X165872412Y-39134443D01*
X165670243Y-39068754D01*
X165670241Y-39068753D01*
X165670240Y-39068753D01*
X165508957Y-39043208D01*
X165460287Y-39035500D01*
X165247713Y-39035500D01*
X165199042Y-39043208D01*
X165037760Y-39068753D01*
X164835585Y-39134444D01*
X164646179Y-39230951D01*
X164474213Y-39355890D01*
X164323890Y-39506213D01*
X164198949Y-39678182D01*
X164194484Y-39686946D01*
X164146509Y-39737742D01*
X164078688Y-39754536D01*
X164012553Y-39731998D01*
X163973516Y-39686946D01*
X163969050Y-39678182D01*
X163844109Y-39506213D01*
X163693786Y-39355890D01*
X163521820Y-39230951D01*
X163332414Y-39134444D01*
X163332413Y-39134443D01*
X163332412Y-39134443D01*
X163130243Y-39068754D01*
X163130241Y-39068753D01*
X163130240Y-39068753D01*
X162968957Y-39043208D01*
X162920287Y-39035500D01*
X162707713Y-39035500D01*
X162659042Y-39043208D01*
X162497760Y-39068753D01*
X162295585Y-39134444D01*
X162106179Y-39230951D01*
X161934215Y-39355889D01*
X161820673Y-39469431D01*
X161759350Y-39502915D01*
X161689658Y-39497931D01*
X161633725Y-39456059D01*
X161616810Y-39425082D01*
X161567797Y-39293671D01*
X161567793Y-39293664D01*
X161481547Y-39178455D01*
X161481544Y-39178452D01*
X161366335Y-39092206D01*
X161366328Y-39092202D01*
X161231482Y-39041908D01*
X161231483Y-39041908D01*
X161171883Y-39035501D01*
X161171881Y-39035500D01*
X161171873Y-39035500D01*
X161171864Y-39035500D01*
X159376129Y-39035500D01*
X159376123Y-39035501D01*
X159316516Y-39041908D01*
X159181671Y-39092202D01*
X159181664Y-39092206D01*
X159066455Y-39178452D01*
X159066452Y-39178455D01*
X158980206Y-39293664D01*
X158980203Y-39293669D01*
X158931189Y-39425083D01*
X158889317Y-39481016D01*
X158823853Y-39505433D01*
X158755580Y-39490581D01*
X158727326Y-39469430D01*
X158613786Y-39355890D01*
X158441820Y-39230951D01*
X158252414Y-39134444D01*
X158252413Y-39134443D01*
X158252412Y-39134443D01*
X158050243Y-39068754D01*
X158050241Y-39068753D01*
X158050240Y-39068753D01*
X157888957Y-39043208D01*
X157840287Y-39035500D01*
X157627713Y-39035500D01*
X157579042Y-39043208D01*
X157417760Y-39068753D01*
X157215585Y-39134444D01*
X157026179Y-39230951D01*
X156854213Y-39355890D01*
X156703890Y-39506213D01*
X156578949Y-39678182D01*
X156574484Y-39686946D01*
X156526509Y-39737742D01*
X156458688Y-39754536D01*
X156392553Y-39731998D01*
X156353516Y-39686946D01*
X156349050Y-39678182D01*
X156224109Y-39506213D01*
X156073786Y-39355890D01*
X155901820Y-39230951D01*
X155712414Y-39134444D01*
X155712413Y-39134443D01*
X155712412Y-39134443D01*
X155510243Y-39068754D01*
X155510241Y-39068753D01*
X155510240Y-39068753D01*
X155348957Y-39043208D01*
X155300287Y-39035500D01*
X155087713Y-39035500D01*
X155039042Y-39043208D01*
X154877760Y-39068753D01*
X154675585Y-39134444D01*
X154486179Y-39230951D01*
X154314213Y-39355890D01*
X154163890Y-39506213D01*
X154038949Y-39678182D01*
X154034484Y-39686946D01*
X153986509Y-39737742D01*
X153918688Y-39754536D01*
X153852553Y-39731998D01*
X153813516Y-39686946D01*
X153809050Y-39678182D01*
X153684109Y-39506213D01*
X153533786Y-39355890D01*
X153361820Y-39230951D01*
X153172414Y-39134444D01*
X153172413Y-39134443D01*
X153172412Y-39134443D01*
X152970243Y-39068754D01*
X152970241Y-39068753D01*
X152970240Y-39068753D01*
X152808957Y-39043208D01*
X152760287Y-39035500D01*
X152547713Y-39035500D01*
X152499042Y-39043208D01*
X152337760Y-39068753D01*
X152135585Y-39134444D01*
X151946179Y-39230951D01*
X151774213Y-39355890D01*
X151623890Y-39506213D01*
X151498949Y-39678182D01*
X151494484Y-39686946D01*
X151446509Y-39737742D01*
X151378688Y-39754536D01*
X151312553Y-39731998D01*
X151273516Y-39686946D01*
X151269050Y-39678182D01*
X151144109Y-39506213D01*
X150993786Y-39355890D01*
X150821820Y-39230951D01*
X150632414Y-39134444D01*
X150632413Y-39134443D01*
X150632412Y-39134443D01*
X150430243Y-39068754D01*
X150430241Y-39068753D01*
X150430240Y-39068753D01*
X150268957Y-39043208D01*
X150220287Y-39035500D01*
X150007713Y-39035500D01*
X149959042Y-39043208D01*
X149797760Y-39068753D01*
X149595585Y-39134444D01*
X149406179Y-39230951D01*
X149234215Y-39355889D01*
X149120673Y-39469431D01*
X149059350Y-39502915D01*
X148989658Y-39497931D01*
X148933725Y-39456059D01*
X148916810Y-39425082D01*
X148867797Y-39293671D01*
X148867793Y-39293664D01*
X148781547Y-39178455D01*
X148781544Y-39178452D01*
X148666335Y-39092206D01*
X148666328Y-39092202D01*
X148531482Y-39041908D01*
X148531483Y-39041908D01*
X148471883Y-39035501D01*
X148471881Y-39035500D01*
X148471873Y-39035500D01*
X148471864Y-39035500D01*
X146676129Y-39035500D01*
X146676123Y-39035501D01*
X146616516Y-39041908D01*
X146481671Y-39092202D01*
X146481664Y-39092206D01*
X146366455Y-39178452D01*
X146366452Y-39178455D01*
X146280206Y-39293664D01*
X146280203Y-39293669D01*
X146231189Y-39425083D01*
X146189317Y-39481016D01*
X146123853Y-39505433D01*
X146055580Y-39490581D01*
X146027326Y-39469430D01*
X145913786Y-39355890D01*
X145741820Y-39230951D01*
X145552414Y-39134444D01*
X145552413Y-39134443D01*
X145552412Y-39134443D01*
X145350243Y-39068754D01*
X145350241Y-39068753D01*
X145350240Y-39068753D01*
X145188957Y-39043208D01*
X145140287Y-39035500D01*
X144927713Y-39035500D01*
X144879042Y-39043208D01*
X144717760Y-39068753D01*
X144515585Y-39134444D01*
X144326179Y-39230951D01*
X144154213Y-39355890D01*
X144003890Y-39506213D01*
X143878949Y-39678182D01*
X143874484Y-39686946D01*
X143826509Y-39737742D01*
X143758688Y-39754536D01*
X143692553Y-39731998D01*
X143653516Y-39686946D01*
X143649050Y-39678182D01*
X143524109Y-39506213D01*
X143373786Y-39355890D01*
X143201820Y-39230951D01*
X143012414Y-39134444D01*
X143012413Y-39134443D01*
X143012412Y-39134443D01*
X142810243Y-39068754D01*
X142810241Y-39068753D01*
X142810240Y-39068753D01*
X142648957Y-39043208D01*
X142600287Y-39035500D01*
X142387713Y-39035500D01*
X142339042Y-39043208D01*
X142177760Y-39068753D01*
X141975585Y-39134444D01*
X141786179Y-39230951D01*
X141614213Y-39355890D01*
X141463890Y-39506213D01*
X141338951Y-39678179D01*
X141242444Y-39867585D01*
X141176753Y-40069760D01*
X141143500Y-40279713D01*
X123903633Y-40279713D01*
X123903633Y-31612500D01*
X123923318Y-31545461D01*
X123976122Y-31499706D01*
X124027633Y-31488500D01*
X210195500Y-31488500D01*
X210262539Y-31508185D01*
G37*
%TD.AperFunction*%
%TD*%
M02*
