M48
; DRILL file KiCad 10.0.3 date 2026-10-01T18:46:28
; FORMAT={-:-/ absolute / metric / decimal}
; #@! TF.CreationDate,2026-10-01T18:46:28+01:00
; #@! TF.GenerationSoftware,Kicad,Pcbnew,10.0.3
; #@! TF.FileFunction,Plated,1,2,PTH
FMAT,2
METRIC
; #@! TA.AperFunction,Plated,PTH,ViaDrill
T1C0.300
; #@! TA.AperFunction,Plated,PTH,ComponentDrill
T2C0.800
; #@! TA.AperFunction,Plated,PTH,ComponentDrill
T3C1.000
; #@! TA.AperFunction,Plated,PTH,ComponentDrill
T4C1.020
; #@! TA.AperFunction,Plated,PTH,ComponentDrill
T5C1.100
; #@! TA.AperFunction,Plated,PTH,ComponentDrill
T6C1.500
%
G90
G05
T1
X125.984Y-83.82
X131.988Y-102.616
X132.588Y-105.156
X133.857Y-105.664
X135.128Y-104.14
X136.744Y-103.124
X136.744Y-104.648
X137.16Y-82.804
X140.208Y-62.9
X140.716Y-67.148
X149.352Y-105.064
X149.86Y-64.932
X149.952Y-107.28
X150.798Y-64.254
X151.384Y-63.5
X153.416Y-65.024
X154.112Y-64.196
X154.712Y-63.596
X158.344Y-63.348
X160.02Y-64.008
X162.052Y-63.408
X162.052Y-66.04
X175.26Y-105.664
X178.308Y-106.172
X179.832Y-107.188
X179.832Y-108.712
X197.612Y-66.04
X200.1Y-61.468
X200.1Y-70.104
X200.7Y-107.696
X201.3Y-61.468
X201.3Y-70.104
X202.184Y-73.152
X202.184Y-107.696
T2
X128.821Y-74.708
X128.821Y-76.708
X128.821Y-78.708
X200.7Y-65.532
X205.7Y-65.532
T3
X171.663Y-111.844
X174.203Y-111.844
X176.743Y-111.844
X179.283Y-111.844
T4
X140.716Y-78.99
X140.716Y-93.98
X142.494Y-40.386
X142.494Y-58.166
X145.034Y-40.386
X145.034Y-58.166
X147.574Y-40.386
X147.574Y-58.166
X150.114Y-40.386
X150.114Y-58.166
X152.654Y-40.386
X152.654Y-58.166
X155.194Y-40.386
X155.194Y-58.166
X157.734Y-40.386
X157.734Y-58.166
X160.274Y-40.386
X160.274Y-58.166
X162.814Y-40.386
X162.814Y-58.166
X165.354Y-40.386
X165.354Y-58.166
X167.894Y-40.386
X167.894Y-58.166
X170.434Y-40.386
X170.434Y-58.166
X172.974Y-40.386
X172.974Y-58.166
X175.514Y-40.386
X175.514Y-58.166
X178.054Y-40.386
X178.054Y-58.166
X180.594Y-40.386
X180.594Y-58.166
X183.134Y-40.386
X183.134Y-58.166
X185.674Y-40.386
X185.674Y-58.166
X188.214Y-40.386
X188.214Y-58.166
X190.524Y-46.736
X190.524Y-49.276
X190.524Y-51.816
X190.754Y-40.386
X190.754Y-58.166
T5
X126.757Y-123.31
X126.757Y-127.81
X133.257Y-123.31
X133.257Y-127.81
X137.425Y-113.15
X137.425Y-117.65
X137.425Y-133.47
X137.425Y-137.97
X143.925Y-113.15
X143.925Y-117.65
X143.925Y-133.47
X143.925Y-137.97
X147.891Y-123.092
X147.891Y-127.592
X154.391Y-123.092
X154.391Y-127.592
X198.893Y-115.69
X198.893Y-120.19
X198.893Y-129.406
X198.893Y-133.906
X198.934Y-140.208
X198.934Y-144.708
X205.393Y-115.69
X205.393Y-120.19
X205.393Y-129.406
X205.393Y-133.906
X205.434Y-140.208
X205.434Y-144.708
T6
X128.821Y-72.608
X128.821Y-80.808
M30
